<svg width="706" height="94" viewBox="0 0 706 94" fill="none" xmlns="http://www.w3.org/2000/svg">
<rect x="0.312622" y="0.75" width="705.375" height="92.625" rx="21.375" fill="#9966FF"/>
<path d="M43.2418 19.5816L75.3892 28.7192C77.5675 29.4346 79.47 30.8083 80.8345 32.6508C82.199 34.4933 82.9581 36.7137 83.0073 39.0059V69.8955C83.099 70.8707 82.9517 71.8535 82.5783 72.7591C82.2049 73.6646 81.6165 74.4656 80.8641 75.0927C80.1116 75.7198 79.2178 76.1542 78.2598 76.3584C77.3018 76.5626 76.3085 76.5303 75.3657 76.2644L48.7731 69.0343C46.5945 68.3565 44.6843 67.0106 43.3129 65.1871C41.9415 63.3637 41.1784 61.1551 41.1315 58.874V25.2158C41.0833 23.0809 41.8812 21.0136 43.3513 19.4648C44.8214 17.9159 46.8443 17.0113 48.9788 16.9482H89.6202C91.9586 16.9482 94.2013 17.8772 95.8549 19.5307C97.5084 21.1843 98.4374 23.427 98.4374 25.7654V52.0789C98.427 53.2676 98.1822 54.4426 97.7168 55.5365C97.2515 56.6304 96.5749 57.6217 95.7258 58.4536C94.8767 59.2856 93.8717 59.9418 92.7685 60.3846C91.6653 60.8274 90.4855 61.0481 89.2969 61.0342H83.0073" stroke="white" stroke-width="4.40859" stroke-linecap="round" stroke-linejoin="round"/>
<path d="M70.8835 50.0127C71.1015 50.0127 71.3146 50.0773 71.4958 50.1984C71.6771 50.3195 71.8184 50.4917 71.9018 50.6931C71.9852 50.8945 72.007 51.1161 71.9645 51.3299C71.922 51.5437 71.817 51.74 71.6629 51.8942C71.5087 52.0483 71.3123 52.1533 71.0985 52.1958C70.8847 52.2383 70.6631 52.2165 70.4617 52.1331C70.2604 52.0497 70.0882 51.9084 69.9671 51.7272C69.846 51.5459 69.7814 51.3328 69.7814 51.1148C69.7814 50.8225 69.8975 50.5422 70.1042 50.3355C70.3109 50.1288 70.5912 50.0127 70.8835 50.0127" stroke="white" stroke-width="4.40859" stroke-linecap="round" stroke-linejoin="round"/>
<path d="M98.4373 38.9912H83.0072" stroke="white" stroke-width="4.40859" stroke-linecap="round" stroke-linejoin="round"/>
<path d="M229.036 53.7921C229.036 53.2494 228.953 52.7623 228.786 52.3309C228.633 51.8856 228.34 51.4821 227.909 51.1202C227.478 50.7445 226.872 50.3757 226.093 50.0139C225.314 49.6521 224.305 49.2764 223.066 48.8867C221.689 48.4414 220.38 47.9404 219.142 47.3838C217.917 46.8271 216.832 46.1801 215.886 45.4425C214.953 44.691 214.216 43.8213 213.673 42.8333C213.144 41.8452 212.88 40.6971 212.88 39.389C212.88 38.1227 213.158 36.9746 213.715 35.9448C214.271 34.9011 215.051 34.0105 216.053 33.2729C217.055 32.5215 218.237 31.944 219.601 31.5404C220.979 31.1368 222.489 30.9351 224.131 30.9351C226.371 30.9351 228.326 31.3386 229.996 32.1458C231.666 32.9529 232.961 34.0592 233.879 35.4647C234.811 36.8702 235.278 38.4775 235.278 40.2866L229.057 40.2866C229.057 39.396 228.869 38.6167 228.493 37.9487C228.132 37.2668 227.575 36.7311 226.824 36.3414C226.086 35.9518 225.154 35.757 224.026 35.757C222.941 35.757 222.036 35.924 221.313 36.2579C220.589 36.578 220.046 37.0164 219.685 37.573C219.323 38.1157 219.142 38.728 219.142 39.4099C219.142 39.9248 219.267 40.391 219.518 40.8085C219.782 41.226 220.172 41.6156 220.687 41.9774C221.201 42.3392 221.835 42.6802 222.586 43.0002C223.338 43.3203 224.207 43.6334 225.195 43.9396C226.851 44.4406 228.306 45.0042 229.558 45.6304C230.824 46.2566 231.882 46.9594 232.731 47.7386C233.58 48.5179 234.22 49.4016 234.651 50.3896C235.083 51.3777 235.298 52.4979 235.298 53.7504C235.298 55.0724 235.041 56.2552 234.526 57.299C234.011 58.3427 233.267 59.2263 232.293 59.95C231.318 60.6736 230.156 61.2233 228.807 61.599C227.457 61.9747 225.947 62.1626 224.277 62.1626C222.774 62.1626 221.292 61.9678 219.831 61.5781C218.37 61.1746 217.041 60.5692 215.844 59.7621C214.661 58.955 213.715 57.9252 213.005 56.6727C212.295 55.4203 211.94 53.9382 211.94 52.2266L218.223 52.2266C218.223 53.1729 218.37 53.973 218.662 54.6271C218.954 55.2811 219.365 55.8099 219.893 56.2135C220.436 56.6171 221.076 56.9093 221.814 57.0902C222.565 57.2711 223.386 57.3616 224.277 57.3616C225.362 57.3616 226.253 57.2085 226.949 56.9023C227.659 56.5962 228.18 56.1718 228.514 55.629C228.862 55.0863 229.036 54.474 229.036 53.7921ZM249.576 62.1626C247.823 62.1626 246.25 61.8843 244.859 61.3276C243.467 60.7571 242.284 59.9708 241.31 58.9689C240.35 57.9669 239.612 56.8049 239.097 55.4829C238.583 54.147 238.325 52.7275 238.325 51.2246L238.325 50.3896C238.325 48.678 238.569 47.1124 239.056 45.693C239.543 44.2736 240.239 43.042 241.143 41.9983C242.062 40.9546 243.175 40.1544 244.483 39.5978C245.791 39.0272 247.266 38.7419 248.908 38.7419C250.509 38.7419 251.928 39.0063 253.167 39.5352C254.405 40.064 255.442 40.8154 256.277 41.7896C257.126 42.7637 257.766 43.9326 258.197 45.2964C258.629 46.6462 258.844 48.1492 258.844 49.8052L258.844 52.3101L240.893 52.3101L240.893 48.3022L252.937 48.3022L252.937 47.843C252.937 47.0081 252.784 46.2636 252.478 45.6095C252.185 44.9415 251.74 44.4127 251.142 44.0231C250.543 43.6334 249.778 43.4386 248.846 43.4386C248.052 43.4386 247.371 43.6125 246.8 43.9604C246.229 44.3084 245.763 44.7954 245.401 45.4216C245.054 46.0479 244.789 46.7854 244.608 47.6343C244.441 48.4692 244.358 49.3877 244.358 50.3896L244.358 51.2246C244.358 52.1292 244.483 52.9641 244.733 53.7295C244.998 54.4949 245.367 55.1559 245.84 55.7125C246.327 56.2692 246.911 56.7006 247.593 57.0067C248.289 57.3129 249.075 57.4659 249.952 57.4659C251.037 57.4659 252.046 57.2572 252.979 56.8397C253.925 56.4083 254.739 55.7612 255.421 54.8984L258.343 58.0713C257.87 58.7532 257.223 59.4072 256.402 60.0334C255.595 60.6597 254.621 61.1746 253.48 61.5781C252.339 61.9678 251.037 62.1626 249.576 62.1626ZM268.154 43.9813L268.154 61.7451L262.142 61.7451L262.142 39.1594L267.778 39.1594L268.154 43.9813ZM267.277 49.6591L265.649 49.6591C265.649 47.9891 265.865 46.4862 266.296 45.1503C266.728 43.8004 267.333 42.6523 268.112 41.7061C268.892 40.7459 269.817 40.0153 270.889 39.5143C271.974 38.9994 273.185 38.7419 274.521 38.7419C275.578 38.7419 276.545 38.895 277.422 39.2012C278.299 39.5073 279.05 39.9944 279.677 40.6624C280.317 41.3303 280.804 42.214 281.138 43.3134C281.486 44.4127 281.66 45.7556 281.66 47.342L281.66 61.7451L275.606 61.7451L275.606 47.3212C275.606 46.3192 275.467 45.5399 275.189 44.9833C274.91 44.4266 274.5 44.037 273.957 43.8143C273.428 43.5778 272.774 43.4595 271.995 43.4595C271.188 43.4595 270.485 43.6195 269.887 43.9396C269.302 44.2596 268.815 44.705 268.425 45.2755C268.05 45.8322 267.764 46.4862 267.57 47.2377C267.375 47.9891 267.277 48.7963 267.277 49.6591ZM299.57 56.8188L299.57 29.6826L305.623 29.6826L305.623 61.7451L300.175 61.7451L299.57 56.8188ZM285.292 50.7236L285.292 50.2853C285.292 48.5597 285.487 46.9941 285.876 45.5886C286.266 44.1692 286.836 42.9515 287.588 41.9357C288.339 40.9198 289.265 40.1335 290.364 39.5769C291.463 39.0203 292.716 38.7419 294.121 38.7419C295.443 38.7419 296.598 39.0203 297.586 39.5769C298.588 40.1335 299.437 40.9268 300.133 41.9565C300.843 42.9724 301.413 44.1761 301.845 45.5678C302.276 46.9454 302.589 48.4553 302.784 50.0974L302.784 51.0576C302.589 52.6301 302.276 54.0913 301.845 55.4412C301.413 56.791 300.843 57.9739 300.133 58.9897C299.437 59.9917 298.588 60.771 297.586 61.3276C296.585 61.8843 295.416 62.1626 294.08 62.1626C292.674 62.1626 291.422 61.8773 290.322 61.3068C289.237 60.7362 288.318 59.936 287.567 58.9063C286.829 57.8765 286.266 56.6658 285.876 55.2742C285.487 53.8826 285.292 52.3657 285.292 50.7236ZM291.303 50.2853L291.303 50.7236C291.303 51.656 291.373 52.5258 291.512 53.3329C291.665 54.14 291.909 54.8567 292.243 55.4829C292.591 56.0952 293.036 56.5753 293.579 56.9232C294.135 57.2572 294.81 57.4242 295.603 57.4242C296.633 57.4242 297.482 57.1946 298.15 56.7354C298.818 56.2622 299.326 55.6151 299.674 54.7941C300.036 53.973 300.244 53.0267 300.3 51.9552L300.3 49.2207C300.258 48.344 300.133 47.5577 299.924 46.8619C299.73 46.1522 299.437 45.5469 299.048 45.0459C298.672 44.5449 298.199 44.1553 297.628 43.877C297.072 43.5986 296.411 43.4595 295.645 43.4595C294.866 43.4595 294.198 43.6404 293.641 44.0022C293.085 44.3501 292.632 44.8302 292.284 45.4425C291.951 46.0548 291.7 46.7784 291.533 47.6134C291.38 48.4344 291.303 49.3251 291.303 50.2853ZM332.029 39.1594L332.029 43.4177L318.878 43.4177L318.878 39.1594L332.029 39.1594ZM322.134 33.5861L328.146 33.5861L328.146 54.9402C328.146 55.5942 328.23 56.0952 328.397 56.4431C328.577 56.791 328.842 57.0345 329.19 57.1737C329.538 57.299 329.976 57.3616 330.505 57.3616C330.881 57.3616 331.215 57.3477 331.507 57.3198C331.813 57.2781 332.07 57.2363 332.279 57.1946L332.3 61.6199C331.785 61.7869 331.228 61.9191 330.63 62.0165C330.032 62.1139 329.371 62.1626 328.647 62.1626C327.325 62.1626 326.17 61.9469 325.182 61.5155C324.208 61.0702 323.456 60.3605 322.928 59.3864C322.399 58.4122 322.134 57.132 322.134 55.5455L322.134 33.5861ZM333.949 50.6819L333.949 50.2435C333.949 48.5875 334.186 47.0637 334.659 45.6721C335.132 44.2666 335.821 43.049 336.725 42.0192C337.63 40.9894 338.743 40.1892 340.065 39.6187C341.387 39.0342 342.904 38.7419 344.616 38.7419C346.327 38.7419 347.851 39.0342 349.187 39.6187C350.523 40.1892 351.643 40.9894 352.548 42.0192C353.466 43.049 354.162 44.2666 354.635 45.6721C355.108 47.0637 355.345 48.5875 355.345 50.2435L355.345 50.6819C355.345 52.324 355.108 53.8478 354.635 55.2533C354.162 56.6449 353.466 57.8626 352.548 58.9063C351.643 59.936 350.53 60.7362 349.208 61.3068C347.886 61.8773 346.369 62.1626 344.657 62.1626C342.946 62.1626 341.422 61.8773 340.086 61.3068C338.764 60.7362 337.644 59.936 336.725 58.9063C335.821 57.8626 335.132 56.6449 334.659 55.2533C334.186 53.8478 333.949 52.324 333.949 50.6819ZM339.961 50.2435L339.961 50.6819C339.961 51.6282 340.044 52.5118 340.211 53.3329C340.378 54.1539 340.643 54.8776 341.004 55.5038C341.38 56.1161 341.867 56.5962 342.466 56.9441C343.064 57.292 343.795 57.4659 344.657 57.4659C345.492 57.4659 346.209 57.292 346.807 56.9441C347.406 56.5962 347.886 56.1161 348.248 55.5038C348.61 54.8776 348.874 54.1539 349.041 53.3329C349.222 52.5118 349.312 51.6282 349.312 50.6819L349.312 50.2435C349.312 49.3251 349.222 48.4623 349.041 47.6552C348.874 46.8341 348.603 46.1105 348.227 45.4843C347.865 44.8441 347.385 44.3431 346.787 43.9813C346.188 43.6195 345.465 43.4386 344.616 43.4386C343.767 43.4386 343.043 43.6195 342.445 43.9813C341.86 44.3431 341.38 44.8441 341.004 45.4843C340.643 46.1105 340.378 46.8341 340.211 47.6552C340.044 48.4623 339.961 49.3251 339.961 50.2435ZM375.697 43.8352L375.697 61.7451L369.664 61.7451L369.664 39.1594L375.321 39.1594L375.697 43.8352ZM374.862 49.6591L373.192 49.6591C373.192 48.0866 373.38 46.6393 373.756 45.3173C374.145 43.9813 374.709 42.8263 375.447 41.8522C376.198 40.8641 377.123 40.0988 378.223 39.556C379.322 39.0133 380.596 38.7419 382.043 38.7419C383.045 38.7419 383.963 38.895 384.798 39.2012C385.633 39.4934 386.35 39.9596 386.948 40.5997C387.56 41.226 388.034 42.047 388.368 43.0629C388.702 44.0648 388.869 45.2686 388.869 46.6741L388.869 61.7451L382.857 61.7451L382.857 47.342C382.857 46.3123 382.718 45.519 382.439 44.9624C382.161 44.4058 381.764 44.0161 381.25 43.7935C380.749 43.5708 380.143 43.4595 379.434 43.4595C378.654 43.4595 377.972 43.6195 377.388 43.9396C376.817 44.2596 376.344 44.705 375.968 45.2755C375.593 45.8322 375.314 46.4862 375.133 47.2377C374.953 47.9891 374.862 48.7963 374.862 49.6591ZM388.305 48.9702L386.155 49.2416C386.155 47.7665 386.336 46.3958 386.698 45.1294C387.073 43.863 387.623 42.7498 388.347 41.7896C389.084 40.8293 389.996 40.0848 391.081 39.556C392.167 39.0133 393.419 38.7419 394.839 38.7419C395.924 38.7419 396.912 38.902 397.803 39.222C398.693 39.5282 399.452 40.0222 400.078 40.7041C400.718 41.3721 401.205 42.2488 401.539 43.3342C401.887 44.4197 402.061 45.7487 402.061 47.3212L402.061 61.7451L396.028 61.7451L396.028 47.3212C396.028 46.2775 395.889 45.4843 395.611 44.9415C395.346 44.3849 394.957 44.0022 394.442 43.7935C393.941 43.5708 393.343 43.4595 392.647 43.4595C391.923 43.4595 391.29 43.6056 390.747 43.8978C390.205 44.1762 389.752 44.5658 389.39 45.0668C389.029 45.5678 388.757 46.1522 388.576 46.8202C388.395 47.4742 388.305 48.1909 388.305 48.9702ZM413.416 59.1985L419.407 39.1594L425.857 39.1594L416.777 65.1476C416.582 65.7181 416.318 66.3304 415.984 66.9845C415.664 67.6386 415.226 68.2578 414.669 68.8423C414.126 69.4407 413.437 69.9277 412.602 70.3035C411.781 70.6792 410.772 70.8671 409.576 70.8671C409.005 70.8671 408.539 70.8323 408.177 70.7627C407.815 70.6931 407.384 70.5957 406.883 70.4705L406.883 66.066C407.036 66.066 407.196 66.066 407.363 66.066C407.53 66.08 407.69 66.0869 407.843 66.0869C408.636 66.0869 409.283 65.9965 409.784 65.8156C410.285 65.6346 410.689 65.3563 410.995 64.9806C411.301 64.6188 411.545 64.1456 411.726 63.5612L413.416 59.1985ZM410.912 39.1594L415.817 55.5247L416.673 61.8912L412.581 62.3296L404.461 39.1594L410.912 39.1594ZM445.354 55.9004L450.05 39.1594L453.87 39.1594L452.639 45.7347L447.942 61.7451L444.748 61.7451L445.354 55.9004ZM442.974 39.1594L446.335 55.8795L446.648 61.7451L442.891 61.7451L437.171 39.1594L442.974 39.1594ZM458.17 55.6082L461.448 39.1594L467.271 39.1594L461.552 61.7451L457.815 61.7451L458.17 55.6082ZM454.392 39.1594L459.068 55.7752L459.715 61.7451L456.5 61.7451L451.804 45.7556L450.614 39.1594L454.392 39.1594ZM482.489 56.6519L482.489 46.5906C482.489 45.8669 482.37 45.2477 482.134 44.7328C481.897 44.204 481.528 43.7935 481.027 43.5012C480.54 43.209 479.907 43.0629 479.128 43.0629C478.46 43.0629 477.882 43.1812 477.395 43.4177C476.908 43.6404 476.533 43.9674 476.268 44.3988C476.004 44.8163 475.872 45.3103 475.872 45.8809L469.86 45.8809C469.86 44.9207 470.082 44.0092 470.528 43.1464C470.973 42.2836 471.62 41.5252 472.469 40.8711C473.318 40.2031 474.327 39.6813 475.496 39.3055C476.679 38.9298 478.001 38.7419 479.462 38.7419C481.215 38.7419 482.774 39.0342 484.138 39.6187C485.501 40.2031 486.573 41.0798 487.352 42.2488C488.145 43.4177 488.542 44.8789 488.542 46.6323L488.542 56.297C488.542 57.5355 488.619 58.5514 488.772 59.3446C488.925 60.1239 489.147 60.8058 489.44 61.3903L489.44 61.7451L483.365 61.7451C483.073 61.1328 482.85 60.3674 482.697 59.449C482.558 58.5166 482.489 57.5842 482.489 56.6519ZM483.282 47.9891L483.324 51.3916L479.963 51.3916C479.17 51.3916 478.481 51.4821 477.896 51.663C477.312 51.8439 476.832 52.1013 476.456 52.4353C476.08 52.7554 475.802 53.1311 475.621 53.5625C475.454 53.9939 475.371 54.467 475.371 54.9819C475.371 55.4968 475.489 55.963 475.725 56.3805C475.962 56.7841 476.303 57.1041 476.748 57.3407C477.194 57.5634 477.715 57.6747 478.314 57.6747C479.218 57.6747 480.005 57.4938 480.673 57.132C481.341 56.7701 481.855 56.3248 482.217 55.796C482.593 55.2672 482.788 54.7662 482.802 54.2931L484.388 56.8397C484.165 57.4103 483.859 58.0017 483.47 58.614C483.094 59.2263 482.614 59.8038 482.029 60.3466C481.445 60.8754 480.742 61.3137 479.921 61.6616C479.1 61.9956 478.126 62.1626 476.999 62.1626C475.565 62.1626 474.264 61.8773 473.095 61.3068C471.94 60.7223 471.022 59.9221 470.34 58.9063C469.672 57.8765 469.338 56.7075 469.338 55.3994C469.338 54.2166 469.561 53.1659 470.006 52.2474C470.451 51.329 471.105 50.5566 471.968 49.9304C472.845 49.2903 473.937 48.8102 475.245 48.4901C476.553 48.1561 478.07 47.9891 479.796 47.9891L483.282 47.9891ZM499.522 29.6826L499.522 61.7451L493.489 61.7451L493.489 29.6826L499.522 29.6826ZM510.836 29.6826L510.836 61.7451L504.803 61.7451L504.803 29.6826L510.836 29.6826ZM526.199 62.1626C524.445 62.1626 522.873 61.8843 521.481 61.3276C520.09 60.7571 518.907 59.9708 517.933 58.9689C516.972 57.9669 516.235 56.8049 515.72 55.4829C515.205 54.147 514.948 52.7275 514.948 51.2246L514.948 50.3897C514.948 48.678 515.191 47.1124 515.678 45.693C516.165 44.2736 516.861 43.042 517.766 41.9983C518.684 40.9546 519.797 40.1544 521.106 39.5978C522.414 39.0272 523.889 38.7419 525.531 38.7419C527.131 38.7419 528.551 39.0064 529.789 39.5352C531.028 40.064 532.064 40.8154 532.899 41.7896C533.748 42.7637 534.388 43.9326 534.82 45.2964C535.251 46.6462 535.467 48.1492 535.467 49.8052L535.467 52.3101L517.515 52.3101L517.515 48.3023L529.56 48.3023L529.56 47.843C529.56 47.0081 529.406 46.2636 529.1 45.6095C528.808 44.9415 528.363 44.4127 527.764 44.0231C527.166 43.6334 526.401 43.4386 525.468 43.4386C524.675 43.4386 523.993 43.6126 523.423 43.9605C522.852 44.3084 522.386 44.7954 522.024 45.4216C521.676 46.0479 521.412 46.7854 521.231 47.6343C521.064 48.4692 520.98 49.3877 520.98 50.3897L520.98 51.2246C520.98 52.1292 521.106 52.9641 521.356 53.7295C521.62 54.4949 521.989 55.1559 522.462 55.7125C522.949 56.2692 523.534 56.7006 524.216 57.0067C524.912 57.3129 525.698 57.4659 526.575 57.4659C527.66 57.4659 528.669 57.2572 529.601 56.8397C530.548 56.4083 531.362 55.7612 532.044 54.8984L534.966 58.0713C534.493 58.7532 533.846 59.4072 533.025 60.0335C532.217 60.6597 531.243 61.1746 530.102 61.5781C528.961 61.9678 527.66 62.1626 526.199 62.1626ZM549.953 39.1594L549.953 43.4177L536.803 43.4177L536.803 39.1594L549.953 39.1594ZM540.059 33.5861L546.071 33.5861L546.071 54.9402C546.071 55.5942 546.154 56.0952 546.321 56.4431C546.502 56.791 546.767 57.0346 547.115 57.1737C547.462 57.299 547.901 57.3616 548.43 57.3616C548.805 57.3616 549.139 57.3477 549.432 57.3198C549.738 57.2781 549.995 57.2363 550.204 57.1946L550.225 61.6199C549.71 61.7869 549.153 61.9191 548.555 62.0165C547.956 62.1139 547.295 62.1626 546.572 62.1626C545.25 62.1626 544.095 61.9469 543.107 61.5155C542.133 61.0702 541.381 60.3605 540.852 59.3864C540.324 58.4122 540.059 57.132 540.059 55.5455L540.059 33.5861Z" fill="white"/>
</svg>
