<svg width="718" height="106" viewBox="0 0 718 106" fill="none" xmlns="http://www.w3.org/2000/svg">
<rect x="3.23818" y="3.30056" width="711.524" height="98.7738" rx="24.4494" fill="#CC0000" stroke="white" stroke-width="6.14887"/>
<path d="M230.049 59.4171C230.049 58.8744 229.965 58.3873 229.798 57.9559C229.645 57.5106 229.353 57.1071 228.922 56.7452C228.49 56.3695 227.885 56.0007 227.106 55.6389C226.326 55.2771 225.317 54.9014 224.079 54.5117C222.701 54.0664 221.393 53.5654 220.154 53.0088C218.93 52.4521 217.844 51.8051 216.898 51.0675C215.966 50.316 215.228 49.4463 214.685 48.4583C214.157 47.4702 213.892 46.3221 213.892 45.014C213.892 43.7477 214.171 42.5996 214.727 41.5698C215.284 40.5261 216.063 39.6355 217.065 38.8979C218.067 38.1465 219.25 37.569 220.614 37.1654C221.991 36.7618 223.501 36.5601 225.143 36.5601C227.384 36.5601 229.339 36.9636 231.009 37.7708C232.679 38.5779 233.973 39.6842 234.892 41.0897C235.824 42.4952 236.29 44.1025 236.29 45.9116L230.07 45.9116C230.07 45.021 229.882 44.2417 229.506 43.5737C229.144 42.8918 228.588 42.3561 227.836 41.9664C227.099 41.5768 226.166 41.382 225.039 41.382C223.954 41.382 223.049 41.549 222.325 41.8829C221.602 42.203 221.059 42.6414 220.697 43.198C220.335 43.7407 220.154 44.353 220.154 45.0349C220.154 45.5498 220.28 46.016 220.53 46.4335C220.795 46.851 221.184 47.2406 221.699 47.6024C222.214 47.9642 222.847 48.3052 223.599 48.6252C224.35 48.9453 225.22 49.2584 226.208 49.5646C227.864 50.0656 229.318 50.6292 230.571 51.2554C231.837 51.8816 232.895 52.5844 233.743 53.3636C234.592 54.1429 235.232 55.0266 235.664 56.0146C236.095 57.0027 236.311 58.1229 236.311 59.3754C236.311 60.6974 236.054 61.8802 235.539 62.924C235.024 63.9677 234.279 64.8513 233.305 65.575C232.331 66.2986 231.169 66.8483 229.819 67.224C228.469 67.5997 226.959 67.7876 225.289 67.7876C223.787 67.7876 222.305 67.5928 220.843 67.2031C219.382 66.7996 218.053 66.1942 216.856 65.3871C215.674 64.58 214.727 63.5502 214.018 62.2977C213.308 61.0453 212.953 59.5632 212.953 57.8516L219.236 57.8516C219.236 58.7979 219.382 59.598 219.674 60.2521C219.967 60.9061 220.377 61.4349 220.906 61.8385C221.449 62.2421 222.089 62.5343 222.826 62.7152C223.578 62.8961 224.399 62.9866 225.289 62.9866C226.375 62.9866 227.266 62.8335 227.961 62.5273C228.671 62.2212 229.193 61.7968 229.527 61.254C229.875 60.7113 230.049 60.099 230.049 59.4171ZM250.589 67.7876C248.835 67.7876 247.263 67.5093 245.871 66.9526C244.48 66.3821 243.297 65.5958 242.323 64.5939C241.362 63.5919 240.625 62.4299 240.11 61.1079C239.595 59.772 239.338 58.3525 239.338 56.8496L239.338 56.0146C239.338 54.303 239.581 52.7374 240.068 51.318C240.555 49.8986 241.251 48.667 242.156 47.6233C243.074 46.5796 244.187 45.7794 245.496 45.2228C246.804 44.6522 248.279 44.3669 249.921 44.3669C251.521 44.3669 252.941 44.6313 254.179 45.1602C255.418 45.689 256.454 46.4404 257.289 47.4146C258.138 48.3887 258.778 49.5576 259.21 50.9214C259.641 52.2712 259.857 53.7742 259.857 55.4302L259.857 57.9351L241.905 57.9351L241.905 53.9272L253.95 53.9272L253.95 53.468C253.95 52.6331 253.796 51.8886 253.49 51.2345C253.198 50.5665 252.753 50.0377 252.154 49.6481C251.556 49.2584 250.791 49.0636 249.858 49.0636C249.065 49.0636 248.383 49.2375 247.813 49.5854C247.242 49.9334 246.776 50.4204 246.414 51.0466C246.066 51.6729 245.802 52.4104 245.621 53.2593C245.454 54.0942 245.37 55.0127 245.37 56.0146L245.37 56.8496C245.37 57.7542 245.496 58.5891 245.746 59.3545C246.01 60.1199 246.379 60.7809 246.852 61.3375C247.339 61.8942 247.924 62.3256 248.606 62.6317C249.302 62.9379 250.088 63.0909 250.965 63.0909C252.05 63.0909 253.059 62.8822 253.991 62.4647C254.938 62.0333 255.752 61.3862 256.434 60.5234L259.356 63.6963C258.883 64.3782 258.236 65.0322 257.415 65.6584C256.607 66.2847 255.633 66.7996 254.492 67.2031C253.351 67.5928 252.05 67.7876 250.589 67.7876ZM269.167 49.6063L269.167 67.3701L263.155 67.3701L263.155 44.7844L268.791 44.7844L269.167 49.6063ZM268.29 55.2841L266.662 55.2841C266.662 53.6141 266.878 52.1112 267.309 50.7753C267.74 49.4254 268.346 48.2773 269.125 47.3311C269.904 46.3709 270.83 45.6403 271.901 45.1393C272.987 44.6244 274.197 44.3669 275.533 44.3669C276.591 44.3669 277.558 44.52 278.435 44.8262C279.311 45.1323 280.063 45.6194 280.689 46.2874C281.329 46.9553 281.816 47.839 282.15 48.9384C282.498 50.0377 282.672 51.3806 282.672 52.967L282.672 67.3701L276.619 67.3701L276.619 52.9462C276.619 51.9442 276.48 51.1649 276.201 50.6083C275.923 50.0516 275.512 49.662 274.97 49.4393C274.441 49.2028 273.787 49.0845 273.008 49.0845C272.2 49.0845 271.498 49.2445 270.899 49.5646C270.315 49.8846 269.828 50.33 269.438 50.9005C269.062 51.4572 268.777 52.1112 268.582 52.8627C268.387 53.6141 268.29 54.4213 268.29 55.2841ZM300.582 62.4438L300.582 35.3076L306.636 35.3076L306.636 67.3701L301.187 67.3701L300.582 62.4438ZM286.304 56.3486L286.304 55.9103C286.304 54.1847 286.499 52.6191 286.889 51.2136C287.278 49.7942 287.849 48.5765 288.6 47.5607C289.352 46.5448 290.277 45.7585 291.377 45.2019C292.476 44.6453 293.728 44.3669 295.134 44.3669C296.456 44.3669 297.611 44.6453 298.599 45.2019C299.601 45.7585 300.45 46.5518 301.146 47.5815C301.855 48.5974 302.426 49.8011 302.857 51.1928C303.289 52.5704 303.602 54.0803 303.797 55.7224L303.797 56.6826C303.602 58.2551 303.289 59.7163 302.857 61.0662C302.426 62.416 301.855 63.5989 301.146 64.6147C300.45 65.6167 299.601 66.396 298.599 66.9526C297.597 67.5093 296.428 67.7876 295.092 67.7876C293.687 67.7876 292.434 67.5023 291.335 66.9318C290.249 66.3612 289.331 65.561 288.58 64.5313C287.842 63.5015 287.278 62.2908 286.889 60.8992C286.499 59.5076 286.304 57.9907 286.304 56.3486ZM292.316 55.9103L292.316 56.3486C292.316 57.281 292.386 58.1508 292.525 58.9579C292.678 59.765 292.921 60.4817 293.255 61.1079C293.603 61.7202 294.049 62.2003 294.591 62.5482C295.148 62.8822 295.823 63.0492 296.616 63.0492C297.646 63.0492 298.495 62.8196 299.163 62.3604C299.831 61.8872 300.339 61.2401 300.686 60.4191C301.048 59.598 301.257 58.6517 301.313 57.5802L301.313 54.8457C301.271 53.969 301.146 53.1827 300.937 52.4869C300.742 51.7772 300.45 51.1719 300.06 50.6709C299.685 50.1699 299.211 49.7803 298.641 49.502C298.084 49.2236 297.423 49.0845 296.658 49.0845C295.878 49.0845 295.211 49.2654 294.654 49.6272C294.097 49.9751 293.645 50.4552 293.297 51.0675C292.963 51.6798 292.713 52.4034 292.546 53.2384C292.393 54.0594 292.316 54.9501 292.316 55.9103ZM333.041 44.7844L333.041 49.0427L319.891 49.0427L319.891 44.7844L333.041 44.7844ZM323.147 39.2111L329.159 39.2111L329.159 60.5652C329.159 61.2192 329.242 61.7202 329.409 62.0681C329.59 62.416 329.854 62.6595 330.202 62.7987C330.55 62.924 330.989 62.9866 331.517 62.9866C331.893 62.9866 332.227 62.9727 332.519 62.9448C332.826 62.9031 333.083 62.8613 333.292 62.8196L333.313 67.2449C332.798 67.4119 332.241 67.5441 331.643 67.6415C331.044 67.7389 330.383 67.7876 329.66 67.7876C328.338 67.7876 327.183 67.5719 326.195 67.1405C325.22 66.6952 324.469 65.9855 323.94 65.0114C323.411 64.0372 323.147 62.757 323.147 61.1705L323.147 39.2111ZM334.962 56.3069L334.962 55.8685C334.962 54.2125 335.198 52.6887 335.671 51.2971C336.144 49.8916 336.833 48.674 337.738 47.6442C338.642 46.6144 339.756 45.8142 341.078 45.2437C342.4 44.6592 343.917 44.3669 345.628 44.3669C347.34 44.3669 348.864 44.6592 350.2 45.2437C351.536 45.8142 352.656 46.6144 353.56 47.6442C354.479 48.674 355.175 49.8916 355.648 51.2971C356.121 52.6887 356.357 54.2125 356.357 55.8685L356.357 56.3069C356.357 57.949 356.121 59.4728 355.648 60.8783C355.175 62.2699 354.479 63.4876 353.56 64.5313C352.656 65.561 351.543 66.3612 350.221 66.9318C348.898 67.5023 347.382 67.7876 345.67 67.7876C343.958 67.7876 342.435 67.5023 341.099 66.9318C339.777 66.3612 338.656 65.561 337.738 64.5313C336.833 63.4876 336.144 62.2699 335.671 60.8783C335.198 59.4728 334.962 57.949 334.962 56.3069ZM340.973 55.8685L340.973 56.3069C340.973 57.2532 341.057 58.1368 341.224 58.9579C341.391 59.7789 341.655 60.5026 342.017 61.1288C342.393 61.7411 342.88 62.2212 343.478 62.5691C344.077 62.917 344.807 63.0909 345.67 63.0909C346.505 63.0909 347.222 62.917 347.82 62.5691C348.418 62.2212 348.898 61.7411 349.26 61.1288C349.622 60.5026 349.887 59.7789 350.054 58.9579C350.234 58.1368 350.325 57.2532 350.325 56.3069L350.325 55.8685C350.325 54.9501 350.234 54.0873 350.054 53.2802C349.887 52.4591 349.615 51.7355 349.239 51.1093C348.878 50.4691 348.398 49.9681 347.799 49.6063C347.201 49.2445 346.477 49.0636 345.628 49.0636C344.779 49.0636 344.056 49.2445 343.457 49.6063C342.873 49.9681 342.393 50.4691 342.017 51.1093C341.655 51.7355 341.391 52.4591 341.224 53.2802C341.057 54.0873 340.973 54.9501 340.973 55.8685ZM371.074 36.9775L382.408 36.9775C384.732 36.9775 386.729 37.3254 388.399 38.0212C390.083 38.717 391.377 39.7468 392.282 41.1106C393.186 42.4744 393.638 44.1512 393.638 46.1412C393.638 47.7694 393.36 49.168 392.804 50.3369C392.261 51.4919 391.488 52.4591 390.487 53.2384C389.498 54.0038 388.336 54.6161 387.001 55.0753L385.018 56.119L375.165 56.119L375.123 51.2345L382.45 51.2345C383.549 51.2345 384.461 51.0397 385.185 50.65C385.908 50.2604 386.451 49.7177 386.813 49.0219C387.188 48.3261 387.376 47.5189 387.376 46.6005C387.376 45.6263 387.195 44.7844 386.834 44.0747C386.472 43.365 385.922 42.8223 385.185 42.4465C384.447 42.0708 383.522 41.8829 382.408 41.8829L377.336 41.8829L377.336 67.3701L371.074 67.3701L371.074 36.9775ZM388.065 67.3701L381.135 53.8229L387.752 53.7811L394.766 67.0779L394.766 67.3701L388.065 67.3701ZM408.48 67.7876C406.727 67.7876 405.154 67.5093 403.762 66.9526C402.371 66.3821 401.188 65.5958 400.214 64.5939C399.254 63.5919 398.516 62.4299 398.001 61.1079C397.486 59.772 397.229 58.3525 397.229 56.8496L397.229 56.0147C397.229 54.303 397.472 52.7374 397.959 51.318C398.446 49.8986 399.142 48.667 400.047 47.6233C400.965 46.5796 402.079 45.7794 403.387 45.2228C404.695 44.6522 406.17 44.3669 407.812 44.3669C409.412 44.3669 410.832 44.6314 412.07 45.1602C413.309 45.689 414.346 46.4404 415.18 47.4146C416.029 48.3887 416.669 49.5576 417.101 50.9214C417.532 52.2712 417.748 53.7742 417.748 55.4302L417.748 57.9351L399.796 57.9351L399.796 53.9272L411.841 53.9272L411.841 53.468C411.841 52.6331 411.688 51.8886 411.381 51.2345C411.089 50.5665 410.644 50.0377 410.045 49.6481C409.447 49.2584 408.682 49.0636 407.749 49.0636C406.956 49.0636 406.274 49.2376 405.704 49.5855C405.133 49.9334 404.667 50.4204 404.305 51.0466C403.957 51.6729 403.693 52.4104 403.512 53.2593C403.345 54.0942 403.261 55.0127 403.261 56.0147L403.261 56.8496C403.261 57.7542 403.387 58.5891 403.637 59.3545C403.902 60.1199 404.27 60.7809 404.743 61.3375C405.231 61.8942 405.815 62.3256 406.497 62.6317C407.193 62.9379 407.979 63.0909 408.856 63.0909C409.941 63.0909 410.95 62.8822 411.882 62.4647C412.829 62.0333 413.643 61.3862 414.325 60.5234L417.247 63.6963C416.774 64.3782 416.127 65.0322 415.306 65.6585C414.499 66.2847 413.524 66.7996 412.383 67.2031C411.242 67.5928 409.941 67.7876 408.48 67.7876ZM434.51 62.4439L434.51 35.3076L440.563 35.3076L440.563 67.3701L435.115 67.3701L434.51 62.4439ZM420.232 56.3486L420.232 55.9103C420.232 54.1847 420.427 52.6191 420.816 51.2136C421.206 49.7942 421.777 48.5765 422.528 47.5607C423.28 46.5448 424.205 45.7585 425.304 45.2019C426.404 44.6453 427.656 44.3669 429.062 44.3669C430.384 44.3669 431.539 44.6453 432.527 45.2019C433.529 45.7585 434.378 46.5518 435.073 47.5815C435.783 48.5974 436.354 49.8012 436.785 51.1928C437.216 52.5704 437.53 54.0803 437.724 55.7224L437.724 56.6826C437.53 58.2551 437.216 59.7163 436.785 61.0662C436.354 62.416 435.783 63.5989 435.073 64.6147C434.378 65.6167 433.529 66.396 432.527 66.9526C431.525 67.5093 430.356 67.7876 429.02 67.7876C427.614 67.7876 426.362 67.5023 425.263 66.9318C424.177 66.3612 423.259 65.561 422.507 64.5313C421.77 63.5015 421.206 62.2908 420.816 60.8992C420.427 59.5076 420.232 57.9907 420.232 56.3486ZM426.244 55.9103L426.244 56.3486C426.244 57.281 426.313 58.1508 426.452 58.9579C426.606 59.765 426.849 60.4817 427.183 61.1079C427.531 61.7202 427.976 62.2003 428.519 62.5482C429.076 62.8822 429.751 63.0492 430.544 63.0492C431.574 63.0492 432.422 62.8196 433.09 62.3604C433.758 61.8872 434.266 61.2401 434.614 60.4191C434.976 59.598 435.185 58.6517 435.24 57.5802L435.24 54.8457C435.199 53.969 435.073 53.1827 434.865 52.4869C434.67 51.7772 434.378 51.1719 433.988 50.6709C433.612 50.1699 433.139 49.7803 432.569 49.502C432.012 49.2236 431.351 49.0845 430.586 49.0845C429.806 49.0845 429.138 49.2654 428.582 49.6272C428.025 49.9751 427.573 50.4552 427.225 51.0675C426.891 51.6798 426.64 52.4034 426.473 53.2384C426.32 54.0595 426.244 54.9501 426.244 55.9103ZM473.899 57.288L480.14 57.288C480.015 59.3336 479.452 61.1497 478.45 62.7361C477.462 64.3225 476.077 65.561 474.296 66.4517C472.528 67.3423 470.399 67.7876 467.908 67.7876C465.96 67.7876 464.214 67.4536 462.669 66.7856C461.124 66.1038 459.802 65.1296 458.703 63.8633C457.617 62.5969 456.789 61.0662 456.219 59.271C455.648 57.4758 455.363 55.465 455.363 53.2384L455.363 51.1301C455.363 48.9036 455.655 46.8927 456.24 45.0975C456.838 43.2885 457.687 41.7507 458.786 40.4844C459.9 39.218 461.229 38.2439 462.773 37.562C464.318 36.8801 466.044 36.5392 467.95 36.5392C470.483 36.5392 472.619 36.9984 474.358 37.9169C476.112 38.8353 477.469 40.1017 478.429 41.7159C479.403 43.3302 479.987 45.1671 480.182 47.2267L473.92 47.2267C473.85 46.0021 473.607 44.9653 473.189 44.1165C472.772 43.2537 472.139 42.6066 471.29 42.1752C470.455 41.7299 469.342 41.5072 467.95 41.5072C466.906 41.5072 465.995 41.702 465.216 42.0917C464.436 42.4813 463.782 43.0728 463.253 43.866C462.725 44.6592 462.328 45.6611 462.064 46.8718C461.813 48.0686 461.688 49.4741 461.688 51.0884L461.688 53.2384C461.688 54.8109 461.806 56.1956 462.043 57.3923C462.279 58.5752 462.641 59.5772 463.128 60.3982C463.629 61.2053 464.269 61.8176 465.049 62.2351C465.842 62.6387 466.795 62.8405 467.908 62.8405C469.216 62.8405 470.295 62.6317 471.144 62.2142C471.993 61.7968 472.64 61.1775 473.085 60.3564C473.544 59.5354 473.816 58.5126 473.899 57.288ZM489.889 49.7107L489.889 67.3701L483.877 67.3701L483.877 44.7844L489.534 44.7844L489.889 49.7107ZM496.694 44.6383L496.589 50.2117C496.297 50.1699 495.942 50.1351 495.525 50.1073C495.121 50.0656 494.752 50.0447 494.418 50.0447C493.569 50.0447 492.832 50.156 492.206 50.3787C491.593 50.5874 491.078 50.9005 490.661 51.318C490.257 51.7355 489.951 52.2434 489.742 52.8418C489.548 53.4402 489.436 54.1221 489.409 54.8875L488.198 54.5117C488.198 53.0505 488.344 51.7076 488.636 50.483C488.928 49.2445 489.353 48.166 489.909 47.2476C490.48 46.3291 491.176 45.6194 491.997 45.1184C492.818 44.6174 493.757 44.3669 494.815 44.3669C495.149 44.3669 495.49 44.3948 495.838 44.4504C496.186 44.4922 496.471 44.5548 496.694 44.6383ZM497.946 56.3069L497.946 55.8685C497.946 54.2125 498.183 52.6887 498.656 51.2971C499.129 49.8916 499.818 48.674 500.722 47.6442C501.627 46.6144 502.74 45.8142 504.062 45.2437C505.384 44.6592 506.901 44.3669 508.613 44.3669C510.324 44.3669 511.848 44.6592 513.184 45.2437C514.52 45.8142 515.64 46.6144 516.545 47.6442C517.463 48.674 518.159 49.8916 518.632 51.2971C519.105 52.6887 519.342 54.2125 519.342 55.8685L519.342 56.3069C519.342 57.949 519.105 59.4728 518.632 60.8783C518.159 62.2699 517.463 63.4876 516.545 64.5313C515.64 65.561 514.527 66.3612 513.205 66.9318C511.883 67.5023 510.366 67.7876 508.654 67.7876C506.943 67.7876 505.419 67.5023 504.083 66.9318C502.761 66.3612 501.641 65.561 500.722 64.5313C499.818 63.4876 499.129 62.2699 498.656 60.8783C498.183 59.4728 497.946 57.949 497.946 56.3069ZM503.958 55.8685L503.958 56.3069C503.958 57.2532 504.041 58.1368 504.208 58.9579C504.375 59.7789 504.64 60.5026 505.001 61.1288C505.377 61.7411 505.864 62.2212 506.463 62.5691C507.061 62.917 507.792 63.0909 508.654 63.0909C509.489 63.0909 510.206 62.917 510.804 62.5691C511.403 62.2212 511.883 61.7411 512.245 61.1288C512.607 60.5026 512.871 59.7789 513.038 58.9579C513.219 58.1368 513.309 57.2532 513.309 56.3069L513.309 55.8685C513.309 54.9501 513.219 54.0873 513.038 53.2802C512.871 52.4591 512.6 51.7355 512.224 51.1093C511.862 50.4691 511.382 49.9681 510.784 49.6063C510.185 49.2445 509.461 49.0636 508.613 49.0636C507.764 49.0636 507.04 49.2445 506.442 49.6063C505.857 49.9681 505.377 50.4691 505.001 51.1093C504.64 51.7355 504.375 52.4591 504.208 53.2802C504.041 54.0873 503.958 54.9501 503.958 55.8685ZM535.248 61.1288C535.248 60.6974 535.123 60.3077 534.872 59.9598C534.622 59.6119 534.155 59.2919 533.474 58.9996C532.806 58.6935 531.838 58.4152 530.572 58.1647C529.431 57.9142 528.366 57.6011 527.378 57.2253C526.404 56.8357 525.555 56.3695 524.832 55.8268C524.122 55.2841 523.565 54.6439 523.162 53.9064C522.758 53.1549 522.556 52.2991 522.556 51.3389C522.556 50.3926 522.758 49.502 523.162 48.667C523.579 47.832 524.171 47.0945 524.936 46.4544C525.715 45.8003 526.662 45.2924 527.775 44.9305C528.902 44.5548 530.169 44.3669 531.574 44.3669C533.536 44.3669 535.22 44.6801 536.626 45.3063C538.045 45.9325 539.13 46.7953 539.882 47.8947C540.647 48.9801 541.03 50.2186 541.03 51.6102L535.018 51.6102C535.018 51.0258 534.893 50.5039 534.643 50.0447C534.406 49.5715 534.03 49.2028 533.515 48.9384C533.014 48.66 532.36 48.5209 531.553 48.5209C530.885 48.5209 530.308 48.6392 529.821 48.8757C529.334 49.0984 528.958 49.4045 528.693 49.7942C528.443 50.1699 528.318 50.5874 528.318 51.0466C528.318 51.3945 528.387 51.7076 528.526 51.986C528.68 52.2504 528.923 52.4939 529.257 52.7166C529.591 52.9392 530.022 53.148 530.551 53.3428C531.094 53.5237 531.762 53.6907 532.555 53.8438C534.183 54.1777 535.638 54.6161 536.918 55.1588C538.198 55.6876 539.214 56.4113 539.965 57.3297C540.717 58.2343 541.093 59.4241 541.093 60.8992C541.093 61.9011 540.87 62.8196 540.425 63.6545C539.979 64.4895 539.339 65.2201 538.504 65.8463C537.669 66.4586 536.667 66.9387 535.498 67.2866C534.343 67.6206 533.042 67.7876 531.595 67.7876C529.494 67.7876 527.712 67.4119 526.251 66.6604C524.804 65.9089 523.705 64.9557 522.953 63.8007C522.216 62.6317 521.847 61.4349 521.847 60.2103L527.545 60.2103C527.573 61.0314 527.782 61.6924 528.172 62.1934C528.575 62.6943 529.083 63.0562 529.695 63.2788C530.322 63.5015 530.997 63.6128 531.72 63.6128C532.499 63.6128 533.147 63.5084 533.661 63.2997C534.176 63.077 534.566 62.7848 534.83 62.423C535.109 62.0472 535.248 61.6159 535.248 61.1288ZM557.207 61.1288C557.207 60.6974 557.082 60.3077 556.832 59.9598C556.581 59.6119 556.115 59.2919 555.433 58.9996C554.765 58.6935 553.798 58.4152 552.532 58.1647C551.39 57.9142 550.326 57.6011 549.338 57.2253C548.364 56.8357 547.515 56.3695 546.791 55.8268C546.081 55.2841 545.525 54.6439 545.121 53.9064C544.718 53.1549 544.516 52.2991 544.516 51.3389C544.516 50.3926 544.718 49.502 545.121 48.667C545.539 47.832 546.13 47.0945 546.896 46.4544C547.675 45.8003 548.621 45.2924 549.734 44.9305C550.862 44.5548 552.128 44.3669 553.534 44.3669C555.496 44.3669 557.18 44.6801 558.585 45.3063C560.004 45.9325 561.09 46.7953 561.841 47.8947C562.607 48.9801 562.989 50.2186 562.989 51.6102L556.978 51.6102C556.978 51.0258 556.852 50.5039 556.602 50.0447C556.365 49.5715 555.99 49.2028 555.475 48.9384C554.974 48.66 554.32 48.5209 553.513 48.5209C552.845 48.5209 552.267 48.6392 551.78 48.8757C551.293 49.0984 550.917 49.4045 550.653 49.7942C550.402 50.1699 550.277 50.5874 550.277 51.0466C550.277 51.3945 550.347 51.7076 550.486 51.986C550.639 52.2504 550.883 52.4939 551.216 52.7166C551.55 52.9392 551.982 53.148 552.511 53.3428C553.053 53.5237 553.721 53.6907 554.515 53.8438C556.143 54.1777 557.597 54.6161 558.877 55.1588C560.158 55.6876 561.173 56.4113 561.925 57.3297C562.676 58.2343 563.052 59.4241 563.052 60.8992C563.052 61.9011 562.829 62.8196 562.384 63.6545C561.939 64.4895 561.299 65.2201 560.464 65.8463C559.629 66.4586 558.627 66.9387 557.458 67.2866C556.303 67.6206 555.002 67.7876 553.554 67.7876C551.453 67.7876 549.672 67.4119 548.211 66.6604C546.763 65.9089 545.664 64.9557 544.913 63.8007C544.175 62.6317 543.806 61.4349 543.806 60.2103L549.505 60.2103C549.533 61.0314 549.741 61.6924 550.131 62.1934C550.535 62.6943 551.043 63.0562 551.655 63.2788C552.281 63.5015 552.956 63.6128 553.68 63.6128C554.459 63.6128 555.106 63.5084 555.621 63.2997C556.136 63.077 556.525 62.7848 556.79 62.423C557.068 62.0472 557.207 61.6159 557.207 61.1288Z" fill="white"/>
<g clip-path="url(#clip0_32_1662)">
<path d="M75.6842 21.3379V43.6845H53.3376V63.1163H75.6842V85.4629H95.116V63.1163H117.463V43.6845H95.116V21.3379H75.6842Z" fill="white"/>
</g>
<defs>
<clipPath id="clip0_32_1662">
<rect width="64.125" height="64.125" fill="white" transform="translate(53.3376 21.3379)"/>
</clipPath>
</defs>
</svg>
