<svg width="500" height="94" viewBox="0 0 500 94" fill="none" xmlns="http://www.w3.org/2000/svg">
<rect x="0.625061" y="0.387207" width="498.75" height="92.625" rx="21.375" fill="#9966FF"/>
<path d="M150.894 61.3823L144.277 61.3823L144.319 56.4978L150.894 56.4978C152.536 56.4978 153.921 56.129 155.048 55.3915C156.176 54.64 157.024 53.5476 157.595 52.1143C158.179 50.6809 158.472 48.9484 158.472 46.9166L158.472 45.4346C158.472 43.876 158.305 42.5052 157.971 41.3224C157.651 40.1395 157.171 39.1445 156.53 38.3374C155.89 37.5303 155.104 36.9249 154.172 36.5214C153.239 36.1039 152.168 35.8951 150.957 35.8951L144.152 35.8951L144.152 30.9897L150.957 30.9897C152.989 30.9897 154.847 31.3376 156.53 32.0334C158.228 32.7153 159.696 33.6964 160.935 34.9767C162.173 36.257 163.127 37.7877 163.795 39.569C164.476 41.3363 164.817 43.3054 164.817 45.4763L164.817 46.9166C164.817 49.0736 164.476 51.0427 163.795 52.824C163.127 54.6052 162.173 56.136 160.935 57.4163C159.71 58.6826 158.242 59.6637 156.53 60.3595C154.833 61.0414 152.954 61.3823 150.894 61.3823ZM147.826 30.9897L147.826 61.3823L141.564 61.3823L141.564 30.9897L147.826 30.9897ZM168.032 50.3191L168.032 49.8807C168.032 48.2247 168.269 46.7009 168.742 45.3093C169.215 43.9038 169.904 42.6862 170.808 41.6564C171.713 40.6266 172.826 39.8264 174.148 39.2559C175.47 38.6714 176.987 38.3791 178.699 38.3791C180.41 38.3791 181.934 38.6714 183.27 39.2559C184.606 39.8264 185.726 40.6266 186.631 41.6564C187.549 42.6862 188.245 43.9038 188.718 45.3093C189.191 46.7009 189.428 48.2247 189.428 49.8807L189.428 50.3191C189.428 51.9612 189.191 53.485 188.718 54.8905C188.245 56.2821 187.549 57.4998 186.631 58.5435C185.726 59.5732 184.613 60.3734 183.291 60.944C181.969 61.5145 180.452 61.7998 178.74 61.7998C177.029 61.7998 175.505 61.5145 174.169 60.944C172.847 60.3734 171.727 59.5732 170.808 58.5435C169.904 57.4998 169.215 56.2821 168.742 54.8905C168.269 53.485 168.032 51.9612 168.032 50.3191ZM174.044 49.8807L174.044 50.3191C174.044 51.2654 174.127 52.149 174.294 52.9701C174.461 53.7911 174.726 54.5148 175.087 55.141C175.463 55.7533 175.95 56.2334 176.549 56.5813C177.147 56.9292 177.878 57.1031 178.74 57.1031C179.575 57.1031 180.292 56.9292 180.89 56.5813C181.489 56.2334 181.969 55.7533 182.331 55.141C182.692 54.5148 182.957 53.7911 183.124 52.9701C183.305 52.149 183.395 51.2654 183.395 50.3191L183.395 49.8807C183.395 48.9623 183.305 48.0995 183.124 47.2924C182.957 46.4713 182.686 45.7477 182.31 45.1215C181.948 44.4813 181.468 43.9803 180.869 43.6185C180.271 43.2567 179.547 43.0758 178.699 43.0758C177.85 43.0758 177.126 43.2567 176.528 43.6185C175.943 43.9803 175.463 44.4813 175.087 45.1215C174.726 45.7477 174.461 46.4713 174.294 47.2924C174.127 48.0995 174.044 48.9623 174.044 49.8807ZM199.009 43.6185L199.009 61.3823L192.997 61.3823L192.997 38.7966L198.633 38.7966L199.009 43.6185ZM198.132 49.2963L196.504 49.2963C196.504 47.6263 196.72 46.1234 197.151 44.7875C197.583 43.4376 198.188 42.2895 198.967 41.3433C199.747 40.3831 200.672 39.6525 201.744 39.1515C202.829 38.6366 204.04 38.3791 205.376 38.3791C206.433 38.3791 207.4 38.5322 208.277 38.8384C209.154 39.1445 209.905 39.6316 210.531 40.2996C211.172 40.9675 211.659 41.8512 211.993 42.9506C212.341 44.0499 212.515 45.3928 212.515 46.9792L212.515 61.3823L206.461 61.3823L206.461 46.9584C206.461 45.9564 206.322 45.1771 206.044 44.6205C205.765 44.0638 205.355 43.6742 204.812 43.4515C204.283 43.215 203.629 43.0967 202.85 43.0967C202.043 43.0967 201.34 43.2567 200.742 43.5768C200.157 43.8968 199.67 44.3422 199.28 44.9127C198.905 45.4694 198.619 46.1234 198.425 46.8749C198.23 47.6263 198.132 48.4335 198.132 49.2963ZM227.481 61.7998C225.728 61.7998 224.155 61.5215 222.764 60.9648C221.372 60.3943 220.189 59.608 219.215 58.6061C218.255 57.6041 217.517 56.4421 217.002 55.1201C216.488 53.7842 216.23 52.3647 216.23 50.8618L216.23 50.0269C216.23 48.3152 216.474 46.7496 216.961 45.3302C217.448 43.9108 218.144 42.6792 219.048 41.6355C219.967 40.5918 221.08 39.7916 222.388 39.235C223.696 38.6644 225.171 38.3791 226.813 38.3791C228.414 38.3791 229.833 38.6436 231.072 39.1724C232.31 39.7012 233.347 40.4526 234.182 41.4268C235.031 42.4009 235.671 43.5698 236.102 44.9336C236.534 46.2834 236.749 47.7864 236.749 49.4424L236.749 51.9473L218.798 51.9473L218.798 47.9395L230.842 47.9395L230.842 47.4802C230.842 46.6453 230.689 45.9008 230.383 45.2467C230.09 44.5787 229.645 44.0499 229.047 43.6603C228.448 43.2706 227.683 43.0758 226.751 43.0758C225.957 43.0758 225.275 43.2498 224.705 43.5977C224.134 43.9456 223.668 44.4326 223.306 45.0588C222.958 45.6851 222.694 46.4226 222.513 47.2715C222.346 48.1064 222.263 49.0249 222.263 50.0269L222.263 50.8618C222.263 51.7664 222.388 52.6013 222.638 53.3667C222.903 54.1321 223.272 54.7931 223.745 55.3497C224.232 55.9064 224.816 56.3378 225.498 56.6439C226.194 56.9501 226.98 57.1031 227.857 57.1031C228.942 57.1031 229.951 56.8944 230.884 56.4769C231.83 56.0455 232.644 55.3984 233.326 54.5356L236.248 57.7085C235.775 58.3904 235.128 59.0444 234.307 59.6707C233.5 60.2969 232.526 60.8118 231.385 61.2153C230.244 61.605 228.942 61.7998 227.481 61.7998ZM257.853 30.9897L257.853 61.3823L251.612 61.3823L251.612 30.9897L257.853 30.9897ZM269.229 43.6185L269.229 61.3823L263.218 61.3823L263.218 38.7966L268.853 38.7966L269.229 43.6185ZM268.353 49.2963L266.724 49.2963C266.724 47.6263 266.94 46.1234 267.371 44.7875C267.803 43.4376 268.408 42.2895 269.187 41.3433C269.967 40.3831 270.892 39.6525 271.964 39.1515C273.049 38.6366 274.26 38.3791 275.596 38.3791C276.653 38.3791 277.621 38.5322 278.497 38.8384C279.374 39.1445 280.125 39.6316 280.752 40.2996C281.392 40.9675 281.879 41.8512 282.213 42.9506C282.561 44.0499 282.735 45.3928 282.735 46.9792L282.735 61.3823L276.681 61.3823L276.681 46.9584C276.681 45.9564 276.542 45.1771 276.264 44.6205C275.985 44.0638 275.575 43.6742 275.032 43.4515C274.503 43.215 273.849 43.0967 273.07 43.0967C272.263 43.0967 271.56 43.2567 270.962 43.5768C270.377 43.8968 269.89 44.3422 269.501 44.9127C269.125 45.4694 268.84 46.1234 268.645 46.8749C268.45 47.6263 268.353 48.4335 268.353 49.2963ZM299.517 55.141C299.517 54.7096 299.392 54.3199 299.142 53.972C298.891 53.6241 298.425 53.3041 297.743 53.0118C297.075 52.7057 296.108 52.4274 294.842 52.1769C293.701 51.9264 292.636 51.6133 291.648 51.2375C290.674 50.8479 289.825 50.3817 289.101 49.839C288.392 49.2963 287.835 48.6561 287.431 47.9186C287.028 47.1671 286.826 46.3113 286.826 45.3511C286.826 44.4048 287.028 43.5142 287.431 42.6792C287.849 41.8442 288.44 41.1067 289.206 40.4666C289.985 39.8125 290.931 39.3046 292.045 38.9427C293.172 38.567 294.438 38.3791 295.844 38.3791C297.806 38.3791 299.49 38.6923 300.895 39.3185C302.315 39.9447 303.4 40.8075 304.151 41.9069C304.917 42.9923 305.3 44.2308 305.3 45.6224L299.288 45.6224C299.288 45.038 299.163 44.5161 298.912 44.0569C298.676 43.5837 298.3 43.215 297.785 42.9506C297.284 42.6722 296.63 42.5331 295.823 42.5331C295.155 42.5331 294.577 42.6514 294.09 42.8879C293.603 43.1106 293.227 43.4167 292.963 43.8064C292.713 44.1821 292.587 44.5996 292.587 45.0588C292.587 45.4067 292.657 45.7198 292.796 45.9982C292.949 46.2626 293.193 46.5061 293.527 46.7288C293.861 46.9514 294.292 47.1602 294.821 47.355C295.364 47.5359 296.031 47.7029 296.825 47.856C298.453 48.1899 299.907 48.6283 301.187 49.171C302.468 49.6998 303.484 50.4235 304.235 51.3419C304.986 52.2465 305.362 53.4363 305.362 54.9114C305.362 55.9133 305.14 56.8318 304.694 57.6667C304.249 58.5017 303.609 59.2323 302.774 59.8585C301.939 60.4708 300.937 60.9509 299.768 61.2988C298.613 61.6328 297.312 61.7998 295.864 61.7998C293.763 61.7998 291.982 61.4241 290.521 60.6726C289.073 59.9211 287.974 58.9679 287.223 57.8129C286.485 56.6439 286.116 55.4471 286.116 54.2225L291.815 54.2225C291.843 55.0436 292.051 55.7046 292.441 56.2056C292.845 56.7065 293.353 57.0684 293.965 57.291C294.591 57.5137 295.266 57.625 295.99 57.625C296.769 57.625 297.416 57.5206 297.931 57.3119C298.446 57.0892 298.836 56.797 299.1 56.4352C299.378 56.0594 299.517 55.6281 299.517 55.141ZM319.661 61.7998C317.907 61.7998 316.335 61.5215 314.943 60.9648C313.552 60.3943 312.369 59.608 311.395 58.6061C310.435 57.6041 309.697 56.4421 309.182 55.1201C308.667 53.7842 308.41 52.3647 308.41 50.8618L308.41 50.0269C308.41 48.3152 308.653 46.7496 309.14 45.3302C309.627 43.9108 310.323 42.6792 311.228 41.6355C312.146 40.5918 313.26 39.7916 314.568 39.235C315.876 38.6644 317.351 38.3791 318.993 38.3791C320.593 38.3791 322.013 38.6436 323.251 39.1724C324.49 39.7012 325.526 40.4526 326.361 41.4268C327.21 42.4009 327.85 43.5698 328.282 44.9336C328.713 46.2834 328.929 47.7864 328.929 49.4424L328.929 51.9473L310.977 51.9473L310.977 47.9395L323.022 47.9395L323.022 47.4802C323.022 46.6453 322.869 45.9008 322.562 45.2467C322.27 44.5787 321.825 44.0499 321.226 43.6603C320.628 43.2706 319.863 43.0758 318.93 43.0758C318.137 43.0758 317.455 43.2498 316.885 43.5977C316.314 43.9456 315.848 44.4326 315.486 45.0588C315.138 45.6851 314.874 46.4226 314.693 47.2715C314.526 48.1064 314.442 49.0249 314.442 50.0269L314.442 50.8618C314.442 51.7664 314.568 52.6013 314.818 53.3667C315.083 54.1321 315.451 54.7931 315.924 55.3497C316.411 55.9064 316.996 56.3378 317.678 56.6439C318.374 56.9501 319.16 57.1032 320.037 57.1032C321.122 57.1032 322.131 56.8944 323.063 56.4769C324.01 56.0455 324.824 55.3984 325.506 54.5356L328.428 57.7085C327.955 58.3904 327.308 59.0444 326.487 59.6707C325.68 60.2969 324.705 60.8118 323.564 61.2153C322.423 61.605 321.122 61.7998 319.661 61.7998ZM338.364 43.7229L338.364 61.3823L332.352 61.3823L332.352 38.7966L338.009 38.7966L338.364 43.7229ZM345.169 38.6505L345.065 44.2239C344.772 44.1821 344.417 44.1473 344 44.1195C343.596 44.0778 343.228 44.0569 342.894 44.0569C342.045 44.0569 341.307 44.1682 340.681 44.3909C340.069 44.5996 339.554 44.9127 339.136 45.3302C338.733 45.7477 338.427 46.2556 338.218 46.854C338.023 47.4524 337.912 48.1343 337.884 48.8997L336.673 48.5239C336.673 47.0627 336.819 45.7198 337.112 44.4952C337.404 43.2567 337.828 42.1782 338.385 41.2598C338.955 40.3413 339.651 39.6316 340.472 39.1306C341.293 38.6296 342.233 38.3791 343.29 38.3791C343.624 38.3791 343.965 38.407 344.313 38.4626C344.661 38.5044 344.946 38.567 345.169 38.6505ZM360.115 38.7966L360.115 43.0549L346.964 43.0549L346.964 38.7966L360.115 38.7966ZM350.22 33.2233L356.232 33.2233L356.232 54.5774C356.232 55.2314 356.316 55.7324 356.483 56.0803C356.664 56.4282 356.928 56.6718 357.276 56.8109C357.624 56.9362 358.062 56.9988 358.591 56.9988C358.967 56.9988 359.301 56.9849 359.593 56.957C359.899 56.9153 360.156 56.8735 360.365 56.8318L360.386 61.2571C359.871 61.4241 359.315 61.5563 358.716 61.6537C358.118 61.7511 357.457 61.7998 356.733 61.7998C355.411 61.7998 354.256 61.5841 353.268 61.1527C352.294 60.7074 351.542 59.9977 351.014 59.0236C350.485 58.0494 350.22 56.7692 350.22 55.1827L350.22 33.2233ZM369.884 38.7966L369.884 61.3823L363.851 61.3823L363.851 38.7966L369.884 38.7966ZM363.475 32.9102C363.475 32.0334 363.782 31.3098 364.394 30.7393C365.006 30.1687 365.827 29.8834 366.857 29.8834C367.873 29.8834 368.687 30.1687 369.299 30.7393C369.926 31.3098 370.239 32.0334 370.239 32.9102C370.239 33.7869 369.926 34.5105 369.299 35.0811C368.687 35.6516 367.873 35.9369 366.857 35.9369C365.827 35.9369 365.006 35.6516 364.394 35.0811C363.782 34.5105 363.475 33.7869 363.475 32.9102ZM380.738 43.6185L380.738 61.3823L374.727 61.3823L374.727 38.7966L380.363 38.7966L380.738 43.6185ZM379.862 49.2963L378.233 49.2963C378.233 47.6263 378.449 46.1234 378.88 44.7875C379.312 43.4376 379.917 42.2896 380.697 41.3433C381.476 40.3831 382.401 39.6525 383.473 39.1515C384.558 38.6366 385.769 38.3791 387.105 38.3791C388.162 38.3791 389.13 38.5322 390.006 38.8384C390.883 39.1445 391.635 39.6316 392.261 40.2996C392.901 40.9675 393.388 41.8512 393.722 42.9506C394.07 44.0499 394.244 45.3928 394.244 46.9792L394.244 61.3823L388.19 61.3823L388.19 46.9584C388.19 45.9564 388.051 45.1771 387.773 44.6205C387.494 44.0638 387.084 43.6742 386.541 43.4515C386.012 43.215 385.358 43.0967 384.579 43.0967C383.772 43.0967 383.069 43.2567 382.471 43.5768C381.886 43.8969 381.399 44.3422 381.01 44.9127C380.634 45.4694 380.349 46.1234 380.154 46.8749C379.959 47.6263 379.862 48.4335 379.862 49.2963ZM413.114 38.7966L418.562 38.7966L418.562 60.6309C418.562 62.6904 418.103 64.4369 417.184 65.8702C416.28 67.3175 415.013 68.4099 413.385 69.1475C411.757 69.8989 409.865 70.2747 407.708 70.2747C406.761 70.2747 405.759 70.1494 404.702 69.8989C403.658 69.6484 402.656 69.2588 401.696 68.73C400.75 68.2012 399.956 67.5332 399.316 66.7261L401.967 63.1775C402.663 63.9846 403.47 64.6108 404.389 65.0562C405.307 65.5154 406.323 65.745 407.436 65.745C408.522 65.745 409.44 65.5432 410.192 65.1397C410.943 64.75 411.521 64.1725 411.924 63.4071C412.328 62.6556 412.529 61.7441 412.529 60.6726L412.529 44.0151L413.114 38.7966ZM397.918 50.3608L397.918 49.9225C397.918 48.1969 398.126 46.6313 398.544 45.2258C398.975 43.8064 399.581 42.5887 400.36 41.5729C401.153 40.557 402.113 39.7708 403.24 39.2141C404.368 38.6575 405.641 38.3791 407.06 38.3791C408.563 38.3791 409.823 38.6575 410.839 39.2141C411.854 39.7708 412.689 40.564 413.344 41.5937C413.998 42.6096 414.505 43.8134 414.867 45.205C415.243 46.5826 415.535 48.0925 415.744 49.7346L415.744 50.6948C415.535 52.2673 415.222 53.7285 414.805 55.0784C414.387 56.4282 413.838 57.6111 413.156 58.627C412.474 59.6289 411.625 60.4082 410.609 60.9648C409.607 61.5215 408.41 61.7998 407.019 61.7998C405.627 61.7998 404.368 61.5145 403.24 60.944C402.127 60.3734 401.174 59.5732 400.381 58.5435C399.588 57.5137 398.975 56.303 398.544 54.9114C398.126 53.5198 397.918 52.0029 397.918 50.3608ZM403.929 49.9225L403.929 50.3608C403.929 51.2932 404.02 52.163 404.201 52.9701C404.382 53.7772 404.66 54.4939 405.036 55.1201C405.425 55.7324 405.905 56.2125 406.476 56.5604C407.06 56.8944 407.749 57.0614 408.542 57.0614C409.642 57.0614 410.539 56.8318 411.235 56.3726C411.931 55.8994 412.453 55.2523 412.801 54.4313C413.149 53.6102 413.35 52.6639 413.406 51.5924L413.406 48.8579C413.378 47.9812 413.26 47.1949 413.051 46.4991C412.843 45.7894 412.55 45.1841 412.175 44.6831C411.799 44.1821 411.312 43.7925 410.713 43.5142C410.115 43.2358 409.405 43.0967 408.584 43.0967C407.791 43.0967 407.102 43.2776 406.518 43.6394C405.947 43.9873 405.467 44.4674 405.077 45.0797C404.702 45.692 404.416 46.4156 404.222 47.2506C404.027 48.0717 403.929 48.9623 403.929 49.9225Z" fill="white"/>
<path d="M87.4665 18.0175C87.3861 18.0259 87.0518 18.0555 86.7259 18.0766C83.8356 18.296 82.4011 18.7981 79.9128 20.4522C78.5375 21.3679 77.7927 21.9924 77.6276 22.3679C77.4372 22.7899 77.0437 23.3131 75.7276 24.8955C73.4551 27.6171 69.2699 33.1364 64.8393 39.2591C61.1492 44.3607 59.1941 47.2047 58.2335 48.8799C57.7595 49.7111 57.3998 50.2681 56.9809 50.8167C56.6085 51.3062 55.7494 52.5889 54.755 54.1333C53.0496 56.7833 52.3217 57.7917 51.5008 58.6399C51.1326 59.0197 50.976 59.1336 50.8237 59.1336C50.6925 59.1336 50.2482 58.6948 49.9985 58.315C49.698 57.8635 49.5076 57.4753 48.9786 56.2474C48.0349 54.0405 46.8966 51.648 46.5496 51.1289C46.3084 50.7745 45.9783 50.4791 45.6948 50.3779C45.4959 50.3061 45.3605 50.2935 44.6411 50.2935C44.0063 50.2935 43.7355 50.3103 43.4562 50.3694C42.4152 50.5931 41.226 51.1289 40.1131 51.88C38.8986 52.7029 38.1749 53.5426 38.0353 54.3021C37.8576 55.2473 38.3231 57.2052 40.075 62.8891C41.0906 66.1846 41.755 67.9357 42.5083 69.3071C42.8553 69.9443 43.7524 71.3663 43.8328 71.4085C44.0105 71.5056 44.9161 71.7039 45.826 71.8558C47.0955 72.0625 48.602 72.0457 49.9942 71.8136C50.7136 71.6912 51.2384 71.5435 51.6912 71.3326C51.9959 71.1891 52.0636 71.1342 52.3302 70.8178C52.9438 70.0793 53.9636 68.6657 55.2839 66.7078C57.4421 63.5051 58.4408 62.0789 58.809 61.6443C58.9317 61.505 59.1729 61.1421 59.3507 60.8425C59.5284 60.5387 59.8035 60.0746 59.96 59.8087C60.7006 58.5555 63.0619 55.1376 66.752 49.977C71.4831 43.3606 75.5964 37.8329 76.6036 36.7442C76.8829 36.4404 77.2383 35.9594 78.0085 34.8496C78.8676 33.6175 79.3542 32.9719 79.8916 32.3811C80.5603 31.6385 81.3558 30.6679 82.7819 28.8366C84.682 26.3977 85.668 25.174 86.5524 24.1739C87.6019 22.9882 89.3158 20.5197 89.7516 19.5745C90.0267 18.9753 90.069 18.642 89.8998 18.3888C89.7982 18.2285 89.4427 18.0892 89.0322 18.0386C88.7064 17.9964 87.822 17.9879 87.4665 18.0175Z" fill="white"/>
</svg>
