<svg width="706" height="93" viewBox="0 0 706 93" fill="none" xmlns="http://www.w3.org/2000/svg">
<rect x="0.312622" width="705.375" height="92.625" rx="21.375" fill="#00AEEF"/>
<path d="M263.236 53.0421C263.236 52.4994 263.153 52.0123 262.986 51.5809C262.833 51.1356 262.54 50.7321 262.109 50.3702C261.678 49.9945 261.072 49.6257 260.293 49.2639C259.514 48.9021 258.505 48.5264 257.266 48.1367C255.889 47.6914 254.581 47.1904 253.342 46.6338C252.117 46.0771 251.032 45.4301 250.086 44.6925C249.153 43.941 248.416 43.0713 247.873 42.0833C247.344 41.0952 247.08 39.9471 247.08 38.639C247.08 37.3727 247.358 36.2246 247.915 35.1948C248.471 34.1511 249.251 33.2605 250.253 32.5229C251.255 31.7715 252.437 31.194 253.801 30.7904C255.179 30.3868 256.689 30.1851 258.331 30.1851C260.571 30.1851 262.527 30.5886 264.196 31.3958C265.866 32.2029 267.161 33.3092 268.079 34.7147C269.011 36.1202 269.478 37.7275 269.478 39.5366L263.257 39.5366C263.257 38.646 263.069 37.8667 262.694 37.1987C262.332 36.5168 261.775 35.9811 261.024 35.5914C260.286 35.2018 259.354 35.007 258.227 35.007C257.141 35.007 256.237 35.174 255.513 35.5079C254.789 35.828 254.247 36.2664 253.885 36.823C253.523 37.3657 253.342 37.978 253.342 38.6599C253.342 39.1748 253.467 39.641 253.718 40.0585C253.982 40.476 254.372 40.8656 254.887 41.2274C255.402 41.5892 256.035 41.9302 256.786 42.2502C257.538 42.5703 258.407 42.8834 259.395 43.1896C261.051 43.6906 262.506 44.2542 263.758 44.8804C265.024 45.5066 266.082 46.2094 266.931 46.9886C267.78 47.7679 268.42 48.6516 268.851 49.6396C269.283 50.6277 269.498 51.7479 269.498 53.0004C269.498 54.3224 269.241 55.5052 268.726 56.549C268.211 57.5927 267.467 58.4763 266.493 59.2C265.518 59.9236 264.357 60.4733 263.007 60.849C261.657 61.2247 260.147 61.4126 258.477 61.4126C256.974 61.4126 255.492 61.2178 254.031 60.8281C252.57 60.4246 251.241 59.8192 250.044 59.0121C248.861 58.205 247.915 57.1752 247.205 55.9227C246.495 54.6703 246.14 53.1882 246.14 51.4766L252.424 51.4766C252.424 52.4229 252.57 53.223 252.862 53.8771C253.154 54.5311 253.565 55.0599 254.093 55.4635C254.636 55.8671 255.276 56.1593 256.014 56.3402C256.765 56.5211 257.586 56.6116 258.477 56.6116C259.562 56.6116 260.453 56.4585 261.149 56.1523C261.859 55.8462 262.38 55.4218 262.714 54.879C263.062 54.3363 263.236 53.724 263.236 53.0421ZM283.776 61.4126C282.023 61.4126 280.45 61.1343 279.059 60.5776C277.667 60.0071 276.484 59.2208 275.51 58.2189C274.55 57.2169 273.812 56.0549 273.298 54.7329C272.783 53.397 272.525 51.9775 272.525 50.4746L272.525 49.6396C272.525 47.928 272.769 46.3624 273.256 44.943C273.743 43.5236 274.439 42.292 275.343 41.2483C276.262 40.2046 277.375 39.4044 278.683 38.8478C279.991 38.2772 281.466 37.9919 283.108 37.9919C284.709 37.9919 286.128 38.2563 287.367 38.7852C288.605 39.314 289.642 40.0654 290.477 41.0396C291.326 42.0137 291.966 43.1826 292.397 44.5464C292.829 45.8962 293.044 47.3992 293.044 49.0552L293.044 51.5601L275.093 51.5601L275.093 47.5522L287.137 47.5522L287.137 47.093C287.137 46.2581 286.984 45.5136 286.678 44.8595C286.386 44.1915 285.94 43.6627 285.342 43.2731C284.743 42.8834 283.978 42.6886 283.046 42.6886C282.253 42.6886 281.571 42.8625 281 43.2104C280.43 43.5584 279.963 44.0454 279.602 44.6716C279.254 45.2979 278.989 46.0354 278.808 46.8843C278.641 47.7192 278.558 48.6377 278.558 49.6396L278.558 50.4746C278.558 51.3792 278.683 52.2141 278.934 52.9795C279.198 53.7449 279.567 54.4059 280.04 54.9625C280.527 55.5192 281.111 55.9506 281.793 56.2567C282.489 56.5629 283.275 56.7159 284.152 56.7159C285.237 56.7159 286.246 56.5072 287.179 56.0897C288.125 55.6583 288.939 55.0112 289.621 54.1484L292.543 57.3213C292.07 58.0032 291.423 58.6572 290.602 59.2834C289.795 59.9097 288.821 60.4246 287.68 60.8281C286.539 61.2178 285.237 61.4126 283.776 61.4126ZM302.354 43.2313L302.354 60.9951L296.342 60.9951L296.342 38.4094L301.978 38.4094L302.354 43.2313ZM301.477 48.9091L299.849 48.9091C299.849 47.2391 300.065 45.7362 300.496 44.4003C300.928 43.0504 301.533 41.9023 302.312 40.9561C303.092 39.9959 304.017 39.2653 305.089 38.7643C306.174 38.2494 307.385 37.9919 308.721 37.9919C309.778 37.9919 310.746 38.145 311.622 38.4512C312.499 38.7573 313.25 39.2444 313.877 39.9124C314.517 40.5803 315.004 41.464 315.338 42.5634C315.686 43.6627 315.86 45.0056 315.86 46.592L315.86 60.9951L309.806 60.9951L309.806 46.5712C309.806 45.5692 309.667 44.7899 309.389 44.2333C309.11 43.6766 308.7 43.287 308.157 43.0643C307.628 42.8278 306.974 42.7095 306.195 42.7095C305.388 42.7095 304.685 42.8695 304.087 43.1896C303.502 43.5096 303.015 43.955 302.626 44.5255C302.25 45.0822 301.965 45.7362 301.77 46.4877C301.575 47.2391 301.477 48.0463 301.477 48.9091ZM333.77 56.0688L333.77 28.9326L339.823 28.9326L339.823 60.9951L334.375 60.9951L333.77 56.0688ZM319.492 49.9736L319.492 49.5353C319.492 47.8097 319.687 46.2441 320.076 44.8386C320.466 43.4192 321.036 42.2015 321.788 41.1857C322.539 40.1698 323.465 39.3835 324.564 38.8269C325.664 38.2703 326.916 37.9919 328.321 37.9919C329.643 37.9919 330.799 38.2703 331.787 38.8269C332.789 39.3835 333.637 40.1768 334.333 41.2065C335.043 42.2224 335.613 43.4261 336.045 44.8178C336.476 46.1954 336.789 47.7053 336.984 49.3474L336.984 50.3076C336.789 51.8801 336.476 53.3413 336.045 54.6912C335.613 56.041 335.043 57.2239 334.333 58.2397C333.637 59.2417 332.789 60.021 331.787 60.5776C330.785 61.1343 329.616 61.4126 328.28 61.4126C326.874 61.4126 325.622 61.1273 324.522 60.5568C323.437 59.9862 322.518 59.186 321.767 58.1563C321.029 57.1265 320.466 55.9158 320.076 54.5242C319.687 53.1326 319.492 51.6157 319.492 49.9736ZM325.503 49.5353L325.503 49.9736C325.503 50.906 325.573 51.7758 325.712 52.5829C325.865 53.39 326.109 54.1067 326.443 54.7329C326.791 55.3452 327.236 55.8253 327.779 56.1732C328.335 56.5072 329.01 56.6742 329.804 56.6742C330.833 56.6742 331.682 56.4446 332.35 55.9854C333.018 55.5122 333.526 54.8651 333.874 54.0441C334.236 53.223 334.445 52.2767 334.5 51.2052L334.5 48.4707C334.458 47.594 334.333 46.8077 334.124 46.1119C333.93 45.4022 333.637 44.7969 333.248 44.2959C332.872 43.7949 332.399 43.4053 331.828 43.127C331.272 42.8486 330.611 42.7095 329.845 42.7095C329.066 42.7095 328.398 42.8904 327.841 43.2522C327.285 43.6001 326.832 44.0802 326.485 44.6925C326.151 45.3048 325.9 46.0284 325.733 46.8634C325.58 47.6844 325.503 48.5751 325.503 49.5353ZM366.229 38.4094L366.229 42.6677L353.078 42.6677L353.078 38.4094L366.229 38.4094ZM356.334 32.8361L362.346 32.8361L362.346 54.1902C362.346 54.8442 362.43 55.3452 362.597 55.6931C362.778 56.041 363.042 56.2845 363.39 56.4237C363.738 56.549 364.176 56.6116 364.705 56.6116C365.081 56.6116 365.415 56.5977 365.707 56.5698C366.013 56.5281 366.27 56.4863 366.479 56.4446L366.5 60.8699C365.985 61.0369 365.429 61.1691 364.83 61.2665C364.232 61.3639 363.571 61.4126 362.847 61.4126C361.525 61.4126 360.37 61.1969 359.382 60.7655C358.408 60.3202 357.656 59.6105 357.128 58.6364C356.599 57.6622 356.334 56.382 356.334 54.7955L356.334 32.8361ZM368.149 49.9319L368.149 49.4935C368.149 47.8375 368.386 46.3137 368.859 44.9221C369.332 43.5166 370.021 42.299 370.925 41.2692C371.83 40.2394 372.943 39.4392 374.265 38.8687C375.587 38.2842 377.104 37.9919 378.816 37.9919C380.527 37.9919 382.051 38.2842 383.387 38.8687C384.723 39.4392 385.843 40.2394 386.748 41.2692C387.666 42.299 388.362 43.5166 388.835 44.9221C389.308 46.3137 389.545 47.8375 389.545 49.4935L389.545 49.9319C389.545 51.574 389.308 53.0978 388.835 54.5033C388.362 55.8949 387.666 57.1126 386.748 58.1563C385.843 59.186 384.73 59.9862 383.408 60.5568C382.086 61.1273 380.569 61.4126 378.857 61.4126C377.146 61.4126 375.622 61.1273 374.286 60.5568C372.964 59.9862 371.844 59.186 370.925 58.1563C370.021 57.1126 369.332 55.8949 368.859 54.5033C368.386 53.0978 368.149 51.574 368.149 49.9319ZM374.161 49.4935L374.161 49.9319C374.161 50.8782 374.244 51.7618 374.411 52.5829C374.578 53.4039 374.843 54.1276 375.205 54.7538C375.58 55.3661 376.067 55.8462 376.666 56.1941C377.264 56.542 377.995 56.7159 378.857 56.7159C379.692 56.7159 380.409 56.542 381.008 56.1941C381.606 55.8462 382.086 55.3661 382.448 54.7538C382.81 54.1276 383.074 53.4039 383.241 52.5829C383.422 51.7618 383.512 50.8782 383.512 49.9319L383.512 49.4935C383.512 48.5751 383.422 47.7123 383.241 46.9052C383.074 46.0841 382.803 45.3605 382.427 44.7343C382.065 44.0941 381.585 43.5931 380.987 43.2313C380.388 42.8695 379.665 42.6886 378.816 42.6886C377.967 42.6886 377.243 42.8695 376.645 43.2313C376.06 43.5931 375.58 44.0941 375.205 44.7343C374.843 45.3605 374.578 46.0841 374.411 46.9052C374.244 47.7123 374.161 48.5751 374.161 49.4935ZM421.044 30.6025L427.285 30.6025L427.285 50.6834C427.285 53.0212 426.784 54.9904 425.782 56.5907C424.794 58.191 423.424 59.3948 421.67 60.2019C419.931 61.009 417.927 61.4126 415.658 61.4126C413.39 61.4126 411.372 61.009 409.605 60.2019C407.852 59.3948 406.474 58.191 405.472 56.5907C404.484 54.9904 403.99 53.0212 403.99 50.6834L403.99 30.6025L410.252 30.6025L410.252 50.6834C410.252 52.0471 410.468 53.1604 410.899 54.0232C411.331 54.886 411.95 55.5192 412.757 55.9227C413.578 56.3263 414.545 56.5281 415.658 56.5281C416.8 56.5281 417.767 56.3263 418.56 55.9227C419.367 55.5192 419.979 54.886 420.397 54.0232C420.828 53.1604 421.044 52.0471 421.044 50.6834L421.044 30.6025ZM437.952 43.2313L437.952 60.9951L431.94 60.9951L431.94 38.4094L437.576 38.4094L437.952 43.2313ZM437.075 48.9091L435.447 48.9091C435.447 47.2391 435.663 45.7362 436.094 44.4003C436.525 43.0504 437.131 41.9023 437.91 40.9561C438.689 39.9959 439.615 39.2653 440.686 38.7643C441.772 38.2494 442.982 37.9919 444.318 37.9919C445.376 37.9919 446.343 38.145 447.22 38.4512C448.097 38.7573 448.848 39.2444 449.474 39.9124C450.114 40.5803 450.602 41.464 450.935 42.5634C451.283 43.6627 451.457 45.0056 451.457 46.592L451.457 60.9951L445.404 60.9951L445.404 46.5712C445.404 45.5692 445.265 44.7899 444.986 44.2333C444.708 43.6766 444.298 43.287 443.755 43.0643C443.226 42.8278 442.572 42.7095 441.793 42.7095C440.986 42.7095 440.283 42.8695 439.684 43.1896C439.1 43.5096 438.613 43.955 438.223 44.5255C437.847 45.0822 437.562 45.7362 437.367 46.4877C437.173 47.2391 437.075 48.0463 437.075 48.9091ZM462.374 38.4094L462.374 60.9951L456.342 60.9951L456.342 38.4094L462.374 38.4094ZM455.966 32.523C455.966 31.6462 456.272 30.9226 456.885 30.3521C457.497 29.7815 458.318 29.4962 459.348 29.4962C460.364 29.4962 461.178 29.7815 461.79 30.3521C462.416 30.9226 462.729 31.6462 462.729 32.523C462.729 33.3997 462.416 34.1233 461.79 34.6939C461.178 35.2644 460.364 35.5497 459.348 35.5497C458.318 35.5497 457.497 35.2644 456.885 34.6939C456.272 34.1233 455.966 33.3997 455.966 32.523ZM476.673 56.7159C477.411 56.7159 478.065 56.5768 478.635 56.2985C479.206 56.0062 479.651 55.6027 479.971 55.0878C480.305 54.559 480.479 53.9397 480.493 53.23L486.15 53.23C486.136 54.8164 485.712 56.2289 484.877 57.4674C484.042 58.692 482.921 59.6592 481.516 60.3689C480.11 61.0647 478.538 61.4126 476.798 61.4126C475.045 61.4126 473.514 61.1204 472.206 60.5359C470.912 59.9514 469.833 59.1443 468.971 58.1145C468.108 57.0708 467.461 55.8601 467.029 54.4824C466.598 53.0908 466.382 51.6018 466.382 50.0154L466.382 49.41C466.382 47.8097 466.598 46.3207 467.029 44.943C467.461 43.5514 468.108 42.3407 468.971 41.3109C469.833 40.2672 470.912 39.4531 472.206 38.8687C473.5 38.2842 475.017 37.9919 476.757 37.9919C478.607 37.9919 480.229 38.3468 481.62 39.0565C483.026 39.7662 484.125 40.7821 484.918 42.1041C485.726 43.4122 486.136 44.9639 486.15 46.759L480.493 46.759C480.479 46.0076 480.319 45.3257 480.013 44.7134C479.721 44.1011 479.289 43.614 478.719 43.2522C478.162 42.8765 477.473 42.6886 476.652 42.6886C475.776 42.6886 475.059 42.8765 474.502 43.2522C473.946 43.614 473.514 44.115 473.208 44.7551C472.902 45.3814 472.686 46.098 472.561 46.9052C472.45 47.6984 472.394 48.5333 472.394 49.41L472.394 50.0154C472.394 50.8921 472.45 51.734 472.561 52.5411C472.672 53.3483 472.881 54.0649 473.187 54.6912C473.507 55.3174 473.946 55.8114 474.502 56.1732C475.059 56.535 475.783 56.7159 476.673 56.7159ZM500.031 61.4126C498.278 61.4126 496.705 61.1343 495.314 60.5776C493.922 60.0071 492.739 59.2208 491.765 58.2189C490.805 57.2169 490.067 56.0549 489.552 54.7329C489.038 53.397 488.78 51.9775 488.78 50.4746L488.78 49.6397C488.78 47.928 489.024 46.3624 489.511 44.943C489.998 43.5236 490.694 42.292 491.598 41.2483C492.517 40.2046 493.63 39.4044 494.938 38.8478C496.246 38.2772 497.721 37.9919 499.363 37.9919C500.964 37.9919 502.383 38.2564 503.622 38.7852C504.86 39.314 505.897 40.0654 506.732 41.0396C507.581 42.0137 508.221 43.1826 508.652 44.5464C509.084 45.8962 509.299 47.3992 509.299 49.0552L509.299 51.5601L491.348 51.5601L491.348 47.5523L503.392 47.5523L503.392 47.093C503.392 46.2581 503.239 45.5136 502.933 44.8595C502.64 44.1915 502.195 43.6627 501.597 43.2731C500.998 42.8834 500.233 42.6886 499.301 42.6886C498.507 42.6886 497.826 42.8626 497.255 43.2105C496.684 43.5584 496.218 44.0454 495.856 44.6716C495.508 45.2979 495.244 46.0354 495.063 46.8843C494.896 47.7192 494.813 48.6377 494.813 49.6397L494.813 50.4746C494.813 51.3792 494.938 52.2141 495.188 52.9795C495.453 53.7449 495.822 54.4059 496.295 54.9625C496.782 55.5192 497.366 55.9506 498.048 56.2567C498.744 56.5629 499.53 56.7159 500.407 56.7159C501.492 56.7159 502.501 56.5072 503.434 56.0897C504.38 55.6583 505.194 55.0112 505.876 54.1484L508.798 57.3213C508.325 58.0032 507.678 58.6572 506.857 59.2835C506.05 59.9097 505.076 60.4246 503.935 60.8281C502.794 61.2178 501.492 61.4126 500.031 61.4126ZM520.383 60.9951L514.33 60.9951L514.33 36.4055C514.33 34.6939 514.664 33.2535 515.332 32.0846C516.014 30.9017 516.967 30.0111 518.192 29.4127C519.43 28.8004 520.898 28.4943 522.596 28.4943C523.153 28.4943 523.688 28.536 524.203 28.6195C524.718 28.6891 525.219 28.7795 525.706 28.8909L525.644 33.4205C525.379 33.351 525.101 33.3023 524.809 33.2744C524.516 33.2466 524.175 33.2327 523.786 33.2327C523.062 33.2327 522.443 33.3579 521.928 33.6084C521.427 33.845 521.044 34.1998 520.78 34.673C520.516 35.1461 520.383 35.7236 520.383 36.4055L520.383 60.9951ZM524.892 38.4094L524.892 42.6677L510.969 42.6677L510.969 38.4094L524.892 38.4094Z" fill="white"/>
<path d="M78.849 14.25C64.8873 14.25 53.3903 25.4821 53.3903 39.5733C53.3903 53.4603 64.6822 64.8966 78.849 64.8966C92.8099 64.8966 104.308 53.6646 104.308 39.5733C104.308 25.4821 92.8099 14.25 78.849 14.25ZM98.5588 25.4821C97.3273 26.299 95.8899 27.1159 94.4524 27.9328C93.6312 26.299 92.6048 24.6652 91.3732 23.2357C92.3996 22.623 93.426 21.8061 94.2473 21.1935C96.095 22.2146 97.5324 23.8484 98.5588 25.4821ZM87.883 17.1091C89.9358 17.926 91.7835 18.947 93.6312 20.3766C92.8099 21.1935 91.7835 21.8061 90.7571 22.4188C89.5255 20.9893 88.0881 19.764 86.6507 18.5386C87.0617 17.926 87.472 17.5175 87.883 17.1091ZM89.9358 22.8273C88.4984 23.6442 87.0617 24.0526 85.6243 24.6652C85.0082 23.2357 84.392 21.8061 83.5715 20.5808C84.392 20.1724 85.2133 19.764 85.8294 19.1513C87.2669 20.1724 88.7043 21.3977 89.9358 22.8273ZM86.8559 16.7007C86.4456 17.1091 86.0346 17.5175 85.8294 17.926C84.392 17.1091 83.1605 16.2922 81.5179 15.6795C83.3656 15.6795 85.2133 16.088 86.8559 16.7007ZM85.0082 18.5386C84.392 18.947 83.7766 19.3555 83.1605 19.5598C82.3392 18.3344 81.5179 17.3133 80.6967 16.088C82.1341 16.7007 83.5708 17.5175 85.0082 18.5386ZM79.2593 16.2922C80.2864 17.3133 81.1077 18.5386 81.9289 19.9682C81.1077 20.1724 80.2864 20.3766 79.2593 20.3766V16.2922ZM79.2593 21.3977C80.2864 21.3977 81.5179 21.1935 82.5444 20.7851C83.3656 22.0103 83.9818 23.4399 84.5979 24.8694C82.9554 25.2779 81.1077 25.4821 79.2593 25.6863V21.3977ZM78.2328 16.2922V20.3766C77.4116 20.3766 76.5903 20.1724 75.5639 19.9682C76.5903 18.7428 77.4116 17.5175 78.2328 16.2922ZM74.7426 19.5598C74.1265 19.3555 73.3052 18.947 72.8949 18.5386C74.3323 17.7217 75.769 16.9049 77.2064 16.2922C76.18 17.3133 75.3587 18.3344 74.7426 19.5598ZM76.18 15.4753C74.7426 16.088 73.3052 16.9049 71.8685 17.7217C71.4575 17.3133 71.0473 16.9049 70.8414 16.4965C72.484 16.088 74.3323 15.6795 76.18 15.4753ZM93.6312 58.77C90.3468 56.9321 90.141 54.2772 90.3468 53.4603C90.5519 52.4392 91.1674 52.8477 91.5784 52.8477C93.837 52.8477 96.095 52.235 98.9698 49.1717C102.255 45.9042 103.281 38.5522 98.1485 33.8552C92.8099 28.7496 87.0617 29.5666 83.3656 34.2636C82.5443 35.2847 80.6967 35.8974 79.2593 35.8974C76.7962 35.8974 78.438 37.7353 78.438 38.1438C78.438 38.5522 78.0277 38.7564 77.8226 38.7564C77.0013 38.5522 77.4116 39.7776 77.4116 39.9818C77.4116 40.186 77.0013 40.5944 77.0013 40.5944C75.9749 40.5944 76.18 41.4113 76.3852 41.8197C76.3852 42.0239 76.3852 42.4324 75.9749 42.6366C75.5639 42.8409 75.3587 43.6578 75.3587 44.2704C75.3587 45.2915 76.3852 46.1084 78.0277 47.3337C79.6703 48.559 79.8754 49.7844 79.8754 50.6012C79.8754 51.4181 80.0805 52.8477 80.2864 53.6646C80.6967 54.6856 80.6967 56.7279 78.438 56.7279C75.5639 56.9321 70.6363 58.9743 70.226 59.1785C68.5834 59.7912 66.5299 59.9954 64.8874 59.5869C64.0668 58.9742 63.2455 58.3616 62.4243 57.5447C62.0133 56.5237 62.6294 55.2983 63.2455 54.4814C64.2719 55.5025 65.5035 55.2983 66.3248 55.2983C67.146 55.2983 70.8414 54.6856 71.4575 54.4814C72.0737 54.2772 72.2788 54.2772 72.4839 54.4814C73.9213 55.0941 75.9749 55.0941 76.7962 52.4392C77.6167 49.5801 75.769 50.397 75.3587 50.6012C75.1536 50.8055 74.7426 50.6012 74.9478 50.397C75.3588 49.7844 74.7426 49.7844 74.5375 49.7844C73.7162 49.7844 72.6898 50.6012 72.4839 50.8055C72.0737 51.0097 71.8685 51.0097 71.6627 51.0097C70.6363 50.397 67.557 51.2139 66.5299 49.5801C66.5299 49.1717 65.7086 42.4324 65.2984 41.2071C65.2984 41.0029 65.0932 40.5944 65.5035 40.186C66.3248 38.9606 68.3783 40.186 69.6098 40.186C71.0472 40.186 71.2524 39.5734 71.6627 39.1649C72.0737 38.7564 72.2788 38.9606 72.4839 38.7564C72.6898 38.5522 72.4839 38.348 72.4839 38.1438C72.4839 37.9396 72.6898 38.1438 72.8949 37.9396C73.1001 37.7353 72.8949 37.3269 72.8949 37.1227C73.3052 36.5101 74.1265 36.9185 73.7162 35.6931C73.5111 34.8762 73.9214 34.0594 74.3324 33.651C74.9478 32.8341 77.6167 29.1581 73.1001 25.2779C68.7886 21.6019 64.2719 22.0103 61.3971 25.0737C58.523 28.137 59.9604 32.6298 60.1656 33.8552C60.3707 35.0805 59.5494 36.1016 58.523 36.5101C57.7018 36.9185 55.8541 38.1438 54.6218 39.1649C54.8277 29.3623 60.7817 20.7851 69.815 17.3133C70.226 17.7217 70.6363 18.3344 71.0473 18.7428C70.0208 19.5598 67.7622 21.3977 67.7622 21.3977C67.7622 21.3977 67.9673 21.3977 68.3783 21.6019C68.5834 21.6019 68.9937 21.8061 68.9937 21.8061C68.9937 21.8061 70.8414 20.1724 71.8685 19.5598C72.4839 20.1724 73.3052 20.5808 74.1265 20.9893C73.7162 21.8061 72.4839 23.8484 72.4839 23.8484C72.4839 23.8484 72.6898 24.0526 72.8949 24.0526C73.1001 24.2568 73.3052 24.2568 73.3052 24.2568C73.3052 24.2568 74.5375 22.0103 74.9478 21.1935C75.9749 21.6019 77.0013 21.8061 78.0277 21.8061V25.8906C77.4116 25.8906 75.9749 25.8906 75.3587 25.6863H74.9478L75.1536 26.0948C75.3588 26.299 75.3588 26.5033 75.5639 26.7075C75.9749 26.7075 77.4116 26.7075 78.0277 26.7075V34.2636H79.0541V32.4256C80.6967 32.4256 81.9289 32.2214 83.3656 32.0171L84.803 30.7919H83.9818C82.3392 30.9961 80.9018 31.2003 79.6703 31.2003C79.6703 31.2003 79.2593 31.2003 79.0541 31.2003V26.5033C80.9018 26.5033 82.9553 26.299 84.803 25.6863C85.2133 26.9117 86.2404 29.975 86.2404 29.975L87.2668 29.5666C87.2668 29.5666 86.2404 26.5033 85.8294 25.2779C87.472 24.8694 88.9094 24.0526 90.3468 23.4399C91.5784 24.8694 92.6048 26.5033 93.426 28.137C92.6048 28.5454 91.3732 28.9538 91.3732 28.9538C92.3996 29.1581 93.2209 29.3623 93.2209 29.3623C93.2209 29.3623 93.6312 29.1581 93.837 29.1581C93.837 29.3623 94.0422 29.7708 94.0422 29.7708L95.4796 30.3834L95.2737 29.975C95.2737 29.975 94.8634 28.9539 94.6583 28.7496C96.095 28.137 97.5324 27.3201 98.9698 26.299C101.639 30.1792 102.87 34.8762 102.87 39.5733C103.281 47.3337 99.3801 54.2772 93.6312 58.77Z" fill="white"/>
<path d="M51.1315 20.9894L50.7212 21.3978C49.2838 22.6231 45.7936 26.0948 46.4097 29.975V30.1793L46.6148 30.9962L47.0251 30.5877C49.0787 28.7497 50.7212 25.4822 51.3373 21.8062L51.5425 20.7852L51.1315 20.9894Z" fill="white"/>
<path d="M44.1511 27.524L43.9459 27.9325C43.7408 28.5452 43.3298 29.9747 43.1246 31.6085C42.7136 34.0591 42.9195 37.7351 44.9723 40.3899L45.1775 40.7984L45.3826 41.2068L45.7936 39.5731C46.2039 36.714 45.5885 30.7916 44.5613 28.1367L44.1511 27.3198V27.524Z" fill="white"/>
<path d="M41.6873 37.7357V38.1442C41.4821 40.5948 41.6873 46.9256 46.82 50.3974L47.4362 50.8058V49.9889C47.4362 47.5383 44.5614 40.3906 42.5086 37.94L41.8924 37.123L41.6873 37.7357Z" fill="white"/>
<path d="M42.5086 48.9675V49.376C43.3299 53.0519 46.615 58.7701 51.9529 60.608L52.7742 60.8124L52.569 59.9954C51.5426 57.3405 46.4098 51.0097 43.1247 48.9675L42.5086 48.5591V48.9675Z" fill="white"/>
<path d="M53.3902 26.5031L52.7741 26.7073C48.8736 29.1579 47.0252 32.017 47.0252 35.693V36.5099L47.6413 36.1014C49.6949 34.2635 52.569 29.7706 53.1851 27.32L53.3902 26.2988V26.5031Z" fill="white"/>
<path d="M50.9264 34.2638L50.7213 34.6722C49.6949 35.6933 46.4098 39.165 46.6149 43.4537C46.6149 44.0664 46.8201 44.8832 47.0252 45.4959L47.231 46.1085L47.6413 45.4959C49.2839 43.2495 51.3367 37.5313 51.1315 34.8764V34.0596L50.9264 34.2638Z" fill="white"/>
<path d="M51.1315 41.8199L50.9264 42.2284C49.2839 44.679 48.4626 47.1297 48.4626 49.5803C48.4626 51.2141 49.0787 52.8479 50.1051 54.4816L50.5161 55.0943L50.7213 54.4816C51.3367 53.0521 51.9528 48.7634 51.9528 45.2917C51.9528 44.0664 51.7477 43.0453 51.5426 42.4326L51.3367 41.6157L51.1315 41.8199Z" fill="white"/>
<path d="M52.9792 49.7844L52.7741 50.1928C52.3638 51.8266 51.9528 53.2561 52.158 54.8899C52.158 58.1574 53.8005 60.8124 56.6753 62.6501L57.0856 62.8545L57.2907 62.2419V61.6294C57.2907 58.9743 55.2379 52.0308 53.5954 49.9886L53.1851 49.376L52.9792 49.7844Z" fill="white"/>
<path d="M47.4361 60.4039L47.6413 60.8128C49.6948 64.2844 53.3902 68.9812 60.1655 67.756H60.7817L60.3707 67.3479C59.1391 65.5095 50.9264 60.8128 48.0523 60.4039L47.231 60.2002L47.4361 60.4039Z" fill="white"/>
<path d="M57.4966 69.3895L56.4702 69.5939L57.4966 70.002C61.8081 71.8397 67.146 72.2486 70.4311 71.2272C71.6626 70.819 72.2787 70.2065 73.1 69.3895C78.6438 70.002 83.7766 74.4951 86.8558 78.1712L87.0617 78.3749H87.2668C87.6771 78.1712 88.0881 77.7623 88.2932 77.5579L88.4983 77.3542L88.2932 77.1498C85.2133 73.0656 80.2863 70.6146 80.0805 70.4102C75.5639 68.3681 67.7621 66.7348 57.4966 69.3895Z" fill="white"/>
<path d="M57.7018 57.9528V58.3612C58.3179 62.4459 59.9605 67.7553 66.9409 67.1427H67.3512L67.1461 66.7346C66.7358 64.8962 60.3707 59.5866 58.1121 58.157L57.4966 57.7485L57.7018 57.9528Z" fill="white"/>
<path d="M106.155 20.5806L106.361 21.6017C106.977 25.2777 108.619 28.5452 110.672 30.3832L111.083 30.7916L111.288 29.9747V29.7705C111.904 25.8903 108.414 22.4186 106.977 21.1933L106.566 20.7848L106.155 20.5806Z" fill="white"/>
<path d="M113.342 27.1157L112.931 27.9326C111.904 30.5874 111.493 36.5099 111.699 39.369L112.109 41.0027L112.315 40.7985L112.52 40.39C114.778 37.7352 114.778 34.2634 114.368 31.6086C114.163 29.7706 113.752 28.5453 113.547 27.9326L113.342 27.5241V27.1157Z" fill="white"/>
<path d="M116.011 37.3267L115.395 38.1436C113.342 40.7984 110.467 47.7419 110.467 50.1925V51.0095L111.083 50.601C116.216 47.3335 116.421 41.0027 116.216 38.3478V37.9393L116.011 37.3267Z" fill="white"/>
<path d="M115.189 48.5591L114.368 48.9675C111.083 51.0097 105.95 57.3405 104.924 59.9954L104.718 60.8124L105.539 60.608C110.878 58.9743 114.368 53.0519 114.984 49.376V48.9675L115.189 48.5591Z" fill="white"/>
<path d="M104.308 26.0947L104.513 27.1158C105.334 29.7707 107.798 34.2636 110.057 36.1015L110.672 36.51V35.6931C110.878 32.0171 109.03 29.158 105.129 26.7074L104.718 26.5032L104.308 26.0947Z" fill="white"/>
<path d="M106.566 34.0596V34.8764C106.361 37.5313 108.619 43.4537 110.057 45.4959L110.467 46.1085L110.672 45.4959C110.878 44.679 111.083 44.0664 111.083 43.4537C111.288 39.165 108.003 35.6933 106.977 34.6722L106.771 34.468L106.566 34.0596Z" fill="white"/>
<path d="M106.361 41.4111L106.155 42.228C105.95 42.8407 105.745 43.8618 105.745 45.0871C105.745 48.5588 106.155 52.8475 106.977 54.277L107.182 54.8897L107.593 54.277C108.619 52.8475 109.235 51.2137 109.235 49.3758C109.235 47.1293 108.414 44.4744 106.772 42.0238L106.566 41.6153L106.361 41.4111Z" fill="white"/>
<path d="M104.513 49.376L104.103 49.9886C102.46 52.0308 100.406 58.9743 100.406 61.6294C100.406 61.6294 100.406 62.0375 100.406 62.2419L100.612 62.8545L101.023 62.6501C103.897 60.8124 105.334 58.1574 105.539 54.8899C105.539 53.4603 105.334 51.8266 104.924 50.1928L104.718 49.7844L104.513 49.376Z" fill="white"/>
<path d="M110.467 59.9951L109.646 60.1995C106.771 60.6077 98.5588 65.3052 97.3272 67.1428L96.9162 67.551H97.5323C104.308 68.7768 108.003 64.0793 110.057 60.6077L110.262 60.1995L110.467 59.9951Z" fill="white"/>
<path d="M77.8225 70.4102C77.6167 70.4102 72.6897 73.0656 69.6098 77.1498L69.4047 77.3542L69.6098 77.5579C69.8149 77.7623 70.4311 78.1712 70.6362 78.3749H70.8421L71.0472 78.1712C74.1264 74.4951 79.2592 69.7976 84.803 69.3895C85.6243 70.2065 86.4455 70.819 87.4719 71.2272C90.5519 72.2486 96.0949 71.8397 100.406 70.002L101.434 69.5939L100.406 69.3895C89.9357 66.7348 82.134 68.3681 77.8225 70.4102Z" fill="white"/>
<path d="M99.9962 57.5444L99.38 57.9529C97.1213 59.3825 90.9622 64.6919 90.346 66.5302L90.1409 66.9384H90.5519C97.3272 67.5509 98.9697 62.2416 99.791 58.1571V57.7486L99.9962 57.5444Z" fill="white"/>
</svg>
