<svg width="912" height="413" viewBox="0 0 912 413" fill="none" xmlns="http://www.w3.org/2000/svg">
<g clip-path="url(#clip0_54_3)">
<g clip-path="url(#clip1_54_3)">
<path d="M651.161 269.059C677.479 258.96 699.429 239.97 713.202 215.384C726.976 190.799 731.704 162.169 726.567 134.463C721.429 106.757 706.749 81.7232 685.075 63.7052C663.401 45.6873 636.101 35.8223 607.91 35.8223C579.72 35.8223 552.419 45.6873 530.745 63.7052C509.071 81.7232 494.391 106.757 489.254 134.463C484.116 162.169 488.844 190.799 502.618 215.384C516.392 239.97 538.342 258.96 564.659 269.059L483.371 480.779C407.572 451.699 344.351 397.011 304.678 326.205C265.004 255.399 251.383 172.943 266.177 93.1474C280.971 13.3513 323.248 -58.7497 385.67 -110.644C448.092 -162.538 526.72 -190.95 607.91 -190.95C689.101 -190.95 767.729 -162.538 830.151 -110.644C892.573 -58.7497 934.849 13.3513 949.643 93.1474C964.437 172.943 950.816 255.399 911.143 326.205C871.47 397.011 808.248 451.699 732.45 480.779L651.161 269.059Z" stroke="#EEEEF2" stroke-width="6.15137" stroke-linejoin="round"/>
<path d="M333.098 151.071C333.098 160.39 336.419 168.325 343.063 174.784C349.799 181.151 357.919 184.38 367.422 184.38C377.019 184.38 385.138 181.151 391.782 174.784C398.425 168.325 401.747 160.39 401.747 151.071C401.747 141.751 398.425 133.908 391.69 127.45C385.046 120.991 376.926 117.761 367.422 117.761C357.919 117.761 349.799 120.991 343.063 127.45C336.419 133.908 333.098 141.751 333.098 151.071ZM347.307 151.071C347.307 145.442 349.245 140.644 353.12 136.677C356.996 132.709 361.794 130.679 367.422 130.679C373.051 130.679 377.849 132.709 381.724 136.677C385.6 140.644 387.537 145.442 387.537 151.071C387.537 156.699 385.6 161.59 381.632 165.557C377.757 169.525 373.051 171.463 367.422 171.463C361.794 171.463 356.996 169.525 353.12 165.649C349.245 161.682 347.307 156.884 347.307 151.071ZM423.38 200.897V176.999C424.764 181.059 430.208 183.919 437.221 183.919C443.772 183.919 449.308 181.612 453.645 176.999C458.074 172.293 460.288 166.572 460.288 159.836C460.288 153.101 458.074 147.38 453.645 142.766C449.308 138.061 443.772 135.754 437.221 135.754C430.208 135.754 424.764 138.614 423.38 142.674V136.584H409.632V200.897H423.38ZM434.729 171.463C431.315 171.463 428.455 170.355 426.056 168.141C423.749 165.834 422.55 163.066 422.55 159.836C422.55 156.607 423.749 153.839 426.056 151.624C428.455 149.318 431.315 148.21 434.729 148.21C438.051 148.21 440.819 149.318 443.126 151.624C445.433 153.839 446.54 156.607 446.54 159.836C446.54 163.066 445.433 165.834 443.126 168.141C440.819 170.355 438.051 171.463 434.729 171.463ZM465.361 160.113C465.361 167.403 467.668 173.216 472.374 177.645C477.079 181.981 483.169 184.196 490.828 184.196C498.671 184.196 505.406 181.335 510.85 175.707L502.823 168.049C499.593 171.093 495.81 172.57 491.474 172.57C484.184 172.57 479.386 168.971 479.109 163.435H514.264C514.357 162.051 514.449 160.575 514.449 159.006C514.449 152.27 512.234 146.734 507.805 142.213C503.376 137.692 497.656 135.385 490.551 135.385C483.262 135.385 477.172 137.599 472.466 142.121C467.76 146.55 465.361 152.455 465.361 159.744V160.113ZM479.294 154.485C479.663 150.148 484.553 146.734 490.551 146.734C496.087 146.734 500.608 150.148 500.608 154.485H479.294ZM535.024 183.089V156.976C535.024 151.532 538.807 147.749 543.974 147.749C549.418 147.749 552.278 151.071 552.278 156.515V170.355C552.278 179.213 556.338 183.642 564.55 183.642C567.411 183.642 569.441 183.458 570.548 182.996V171.37L569.994 171.463H569.072C566.765 171.463 566.027 170.171 566.027 166.572V154.854C566.027 142.766 559.568 135.569 548.403 135.569C542.129 135.569 536.961 138.337 535.024 142.397V136.584H521.276V183.089H535.024ZM588.865 183.089L593.202 172.293H620.053L624.389 183.089H639.522L612.948 118.776H600.307L573.733 183.089H588.865ZM606.673 137.599L615.993 160.944H597.262L606.673 137.599ZM665.659 183.089V131.694H682.822V118.776H634.011V131.694H651.45V183.089H665.659ZM703.554 183.089V143.874L724.222 174.323L744.799 143.874V183.089H758.178V118.776H746.275L724.222 151.717L702.17 118.776H690.267V183.089H703.554Z" fill="#113A63"/>
<path d="M221.11 173.336C227.133 171.024 232.156 166.676 235.308 161.048C238.46 155.419 239.542 148.865 238.366 142.522C237.19 136.179 233.831 130.448 228.871 126.323C223.911 122.198 217.664 119.939 211.213 119.939C204.762 119.939 198.514 122.198 193.555 126.323C188.595 130.448 185.236 136.179 184.06 142.522C182.884 148.865 183.966 155.419 187.118 161.048C190.27 166.676 195.293 171.024 201.315 173.336L182.714 221.807C165.368 215.149 150.901 202.629 141.822 186.419C132.743 170.208 129.626 151.331 133.012 133.063C136.397 114.795 146.071 98.2881 160.356 86.4076C174.64 74.5271 192.634 68.0225 211.213 68.0225C229.792 68.0225 247.785 74.5271 262.07 86.4076C276.354 98.2881 286.029 114.795 289.414 133.063C292.8 151.331 289.683 170.208 280.604 186.419C271.525 202.629 257.058 215.149 239.712 221.807L221.11 173.336Z" fill="#9966FF" stroke="#6518FF" stroke-width="6.15137" stroke-linejoin="round"/>
</g>
<rect y="289.988" width="912" height="123.262" fill="#EEEEF2"/>
<path d="M164.224 357.978L164.224 360.162L153.495 360.162L153.495 357.978L164.224 357.978ZM154.038 339.901L154.038 360.162L151.352 360.162L151.352 339.901L154.038 339.901ZM162.805 348.612L162.805 350.797L153.495 350.797L153.495 348.612L162.805 348.612ZM164.085 339.901L164.085 342.099L153.495 342.099L153.495 339.901L164.085 339.901ZM168.9 345.105L172.198 350.588L175.538 345.105L178.558 345.105L173.631 352.536L178.711 360.162L175.733 360.162L172.254 354.512L168.775 360.162L165.783 360.162L170.848 352.536L165.936 345.105L168.9 345.105ZM187.046 358.325C187.659 358.325 188.225 358.2 188.744 357.95C189.264 357.699 189.69 357.356 190.024 356.92C190.358 356.475 190.549 355.969 190.595 355.403L193.044 355.403C192.998 356.294 192.696 357.124 192.14 357.894C191.592 358.655 190.873 359.272 189.983 359.745C189.092 360.209 188.113 360.441 187.046 360.441C185.915 360.441 184.927 360.241 184.082 359.842C183.247 359.443 182.552 358.896 181.995 358.2C181.448 357.504 181.035 356.707 180.756 355.807C180.487 354.897 180.353 353.937 180.353 352.926L180.353 352.342C180.353 351.33 180.487 350.375 180.756 349.475C181.035 348.566 181.448 347.763 181.995 347.067C182.552 346.372 183.247 345.824 184.082 345.425C184.927 345.026 185.915 344.827 187.046 344.827C188.225 344.827 189.254 345.068 190.136 345.551C191.017 346.024 191.708 346.673 192.209 347.499C192.719 348.315 192.998 349.243 193.044 350.282L190.595 350.282C190.549 349.66 190.372 349.099 190.066 348.598C189.769 348.097 189.361 347.698 188.842 347.401C188.331 347.095 187.733 346.942 187.046 346.942C186.258 346.942 185.594 347.1 185.056 347.415C184.528 347.721 184.105 348.139 183.79 348.668C183.484 349.187 183.261 349.767 183.122 350.407C182.992 351.038 182.927 351.683 182.927 352.342L182.927 352.926C182.927 353.585 182.992 354.234 183.122 354.874C183.252 355.514 183.47 356.094 183.776 356.614C184.092 357.133 184.514 357.551 185.042 357.866C185.581 358.172 186.249 358.325 187.046 358.325ZM198.513 338.787L198.513 360.162L195.939 360.162L195.939 338.787L198.513 338.787ZM197.901 352.063L196.829 352.021C196.839 350.992 196.992 350.041 197.289 349.169C197.585 348.287 198.003 347.522 198.541 346.873C199.079 346.223 199.719 345.722 200.461 345.37C201.213 345.008 202.043 344.827 202.952 344.827C203.695 344.827 204.363 344.929 204.956 345.133C205.55 345.328 206.056 345.643 206.473 346.079C206.9 346.515 207.225 347.081 207.447 347.777C207.67 348.464 207.781 349.303 207.781 350.296L207.781 360.162L205.193 360.162L205.193 350.268C205.193 349.479 205.077 348.849 204.845 348.375C204.613 347.893 204.274 347.545 203.829 347.332C203.384 347.109 202.836 346.998 202.187 346.998C201.547 346.998 200.962 347.132 200.434 347.401C199.914 347.67 199.464 348.042 199.084 348.515C198.713 348.988 198.42 349.531 198.207 350.143C198.003 350.746 197.901 351.386 197.901 352.063ZM220.514 357.588L220.514 349.837C220.514 349.243 220.394 348.728 220.153 348.292C219.921 347.847 219.568 347.503 219.095 347.262C218.622 347.021 218.037 346.9 217.342 346.9C216.692 346.9 216.122 347.012 215.63 347.234C215.147 347.457 214.767 347.749 214.489 348.111C214.22 348.473 214.085 348.863 214.085 349.28L211.511 349.28C211.511 348.742 211.65 348.208 211.928 347.68C212.207 347.151 212.605 346.673 213.125 346.246C213.654 345.81 214.285 345.467 215.018 345.217C215.76 344.957 216.585 344.827 217.495 344.827C218.589 344.827 219.554 345.012 220.389 345.384C221.233 345.755 221.892 346.316 222.365 347.067C222.848 347.81 223.089 348.742 223.089 349.865L223.089 356.878C223.089 357.379 223.131 357.913 223.214 358.479C223.307 359.044 223.441 359.531 223.618 359.94L223.618 360.162L220.932 360.162C220.802 359.865 220.7 359.471 220.626 358.979C220.552 358.479 220.514 358.015 220.514 357.588ZM220.96 351.033L220.988 352.843L218.385 352.843C217.652 352.843 216.998 352.903 216.423 353.023C215.848 353.135 215.365 353.306 214.976 353.538C214.586 353.77 214.289 354.063 214.085 354.415C213.881 354.758 213.779 355.162 213.779 355.626C213.779 356.099 213.886 356.53 214.099 356.92C214.312 357.31 214.633 357.62 215.059 357.852C215.495 358.075 216.029 358.186 216.66 358.186C217.448 358.186 218.144 358.019 218.747 357.685C219.35 357.351 219.828 356.943 220.18 356.461C220.542 355.978 220.737 355.51 220.765 355.055L221.864 356.294C221.799 356.683 221.623 357.115 221.335 357.588C221.048 358.061 220.663 358.516 220.18 358.952C219.707 359.378 219.141 359.736 218.483 360.023C217.833 360.302 217.1 360.441 216.284 360.441C215.263 360.441 214.368 360.241 213.598 359.842C212.837 359.443 212.244 358.91 211.817 358.242C211.399 357.565 211.191 356.809 211.191 355.974C211.191 355.167 211.348 354.457 211.664 353.844C211.979 353.223 212.434 352.708 213.028 352.3C213.621 351.882 214.336 351.567 215.171 351.354C216.006 351.14 216.938 351.033 217.968 351.033L220.96 351.033ZM229.713 348.32L229.713 360.162L227.138 360.162L227.138 345.105L229.574 345.105L229.713 348.32ZM229.101 352.063L228.029 352.021C228.038 350.992 228.191 350.041 228.488 349.169C228.785 348.287 229.203 347.522 229.741 346.873C230.279 346.223 230.919 345.722 231.661 345.37C232.413 345.008 233.243 344.827 234.152 344.827C234.894 344.827 235.562 344.929 236.156 345.133C236.75 345.328 237.255 345.643 237.673 346.079C238.1 346.515 238.424 347.081 238.647 347.777C238.87 348.464 238.981 349.303 238.981 350.296L238.981 360.162L236.393 360.162L236.393 350.268C236.393 349.479 236.277 348.849 236.045 348.375C235.813 347.893 235.474 347.545 235.029 347.332C234.583 347.109 234.036 346.998 233.387 346.998C232.747 346.998 232.162 347.132 231.633 347.401C231.114 347.67 230.664 348.042 230.283 348.515C229.912 348.988 229.62 349.531 229.407 350.143C229.203 350.746 229.101 351.386 229.101 352.063ZM252.646 345.105L254.984 345.105L254.984 359.842C254.984 361.169 254.715 362.301 254.177 363.238C253.639 364.175 252.888 364.885 251.923 365.367C250.967 365.859 249.863 366.104 248.611 366.104C248.091 366.104 247.479 366.021 246.774 365.854C246.078 365.696 245.392 365.423 244.714 365.033C244.046 364.653 243.485 364.138 243.031 363.488L244.38 361.958C245.011 362.718 245.67 363.247 246.356 363.544C247.052 363.841 247.739 363.989 248.416 363.989C249.232 363.989 249.937 363.836 250.531 363.53C251.125 363.224 251.584 362.769 251.909 362.166C252.243 361.573 252.41 360.84 252.41 359.968L252.41 348.417L252.646 345.105ZM242.279 352.801L242.279 352.509C242.279 351.358 242.414 350.314 242.683 349.377C242.961 348.431 243.355 347.619 243.865 346.942C244.385 346.265 245.011 345.745 245.744 345.384C246.477 345.012 247.303 344.827 248.221 344.827C249.167 344.827 249.993 344.994 250.698 345.328C251.413 345.653 252.016 346.13 252.507 346.761C253.008 347.383 253.403 348.134 253.69 349.016C253.978 349.897 254.177 350.894 254.289 352.008L254.289 353.288C254.187 354.392 253.987 355.385 253.69 356.266C253.403 357.147 253.008 357.899 252.507 358.52C252.016 359.142 251.413 359.62 250.698 359.954C249.984 360.278 249.149 360.441 248.193 360.441C247.293 360.441 246.477 360.25 245.744 359.87C245.02 359.49 244.399 358.956 243.879 358.27C243.36 357.583 242.961 356.776 242.683 355.848C242.414 354.911 242.279 353.896 242.279 352.801ZM244.853 352.509L244.853 352.801C244.853 353.552 244.928 354.257 245.076 354.916C245.234 355.575 245.47 356.155 245.786 356.656C246.111 357.156 246.523 357.551 247.024 357.838C247.525 358.117 248.124 358.256 248.82 358.256C249.673 358.256 250.378 358.075 250.935 357.713C251.491 357.351 251.932 356.874 252.257 356.28C252.591 355.686 252.851 355.041 253.036 354.345L253.036 350.992C252.934 350.481 252.776 349.99 252.563 349.517C252.359 349.034 252.09 348.607 251.756 348.236C251.431 347.856 251.028 347.554 250.545 347.332C250.063 347.109 249.497 346.998 248.847 346.998C248.142 346.998 247.535 347.146 247.024 347.443C246.523 347.731 246.111 348.13 245.786 348.64C245.47 349.141 245.234 349.725 245.076 350.393C244.928 351.052 244.853 351.757 244.853 352.509ZM265.143 360.441C264.095 360.441 263.144 360.264 262.29 359.912C261.446 359.55 260.718 359.044 260.105 358.395C259.502 357.746 259.039 356.976 258.714 356.085C258.389 355.194 258.227 354.22 258.227 353.163L258.227 352.578C258.227 351.354 258.408 350.263 258.77 349.308C259.131 348.343 259.623 347.527 260.245 346.859C260.866 346.191 261.571 345.685 262.36 345.342C263.148 344.999 263.965 344.827 264.809 344.827C265.885 344.827 266.813 345.012 267.592 345.384C268.381 345.755 269.026 346.274 269.527 346.942C270.028 347.601 270.399 348.38 270.64 349.28C270.881 350.171 271.002 351.145 271.002 352.202L271.002 353.357L259.758 353.357L259.758 351.256L268.427 351.256L268.427 351.061C268.39 350.393 268.251 349.744 268.01 349.113C267.778 348.482 267.407 347.963 266.896 347.554C266.386 347.146 265.69 346.942 264.809 346.942C264.225 346.942 263.687 347.067 263.195 347.318C262.703 347.559 262.281 347.921 261.928 348.403C261.576 348.886 261.302 349.475 261.107 350.171C260.913 350.866 260.815 351.669 260.815 352.578L260.815 353.163C260.815 353.877 260.913 354.55 261.107 355.18C261.312 355.802 261.604 356.349 261.984 356.823C262.374 357.296 262.842 357.667 263.39 357.936C263.946 358.205 264.577 358.339 265.282 358.339C266.191 358.339 266.961 358.154 267.592 357.783C268.223 357.412 268.775 356.915 269.248 356.294L270.807 357.532C270.482 358.024 270.069 358.492 269.568 358.938C269.067 359.383 268.45 359.745 267.718 360.023C266.994 360.302 266.136 360.441 265.143 360.441ZM285.307 358.604L289.496 345.105L292.251 345.105L286.212 362.486C286.073 362.857 285.887 363.256 285.655 363.683C285.433 364.119 285.145 364.532 284.792 364.922C284.44 365.311 284.013 365.627 283.512 365.868C283.02 366.118 282.431 366.244 281.745 366.244C281.541 366.244 281.281 366.216 280.966 366.16C280.65 366.104 280.427 366.058 280.298 366.021L280.284 363.934C280.358 363.943 280.474 363.952 280.632 363.961C280.799 363.98 280.915 363.989 280.979 363.989C281.564 363.989 282.06 363.91 282.468 363.753C282.877 363.604 283.22 363.349 283.498 362.987C283.786 362.635 284.032 362.148 284.236 361.526L285.307 358.604ZM282.232 345.105L286.142 356.795L286.81 359.508L284.959 360.455L279.421 345.105L282.232 345.105ZM293.671 352.801L293.671 352.481C293.671 351.395 293.829 350.389 294.144 349.461C294.459 348.524 294.914 347.712 295.508 347.026C296.102 346.33 296.821 345.792 297.665 345.411C298.509 345.022 299.455 344.827 300.504 344.827C301.561 344.827 302.512 345.022 303.356 345.411C304.21 345.792 304.934 346.33 305.527 347.026C306.13 347.712 306.59 348.524 306.905 349.461C307.22 350.389 307.378 351.395 307.378 352.481L307.378 352.801C307.378 353.886 307.22 354.893 306.905 355.821C306.59 356.748 306.13 357.56 305.527 358.256C304.934 358.942 304.215 359.48 303.37 359.87C302.535 360.25 301.589 360.441 300.531 360.441C299.474 360.441 298.523 360.25 297.679 359.87C296.834 359.48 296.111 358.942 295.508 358.256C294.914 357.56 294.459 356.748 294.144 355.821C293.829 354.893 293.671 353.886 293.671 352.801ZM296.245 352.481L296.245 352.801C296.245 353.552 296.333 354.262 296.51 354.93C296.686 355.589 296.95 356.173 297.303 356.683C297.665 357.194 298.115 357.597 298.653 357.894C299.191 358.182 299.817 358.325 300.531 358.325C301.237 358.325 301.853 358.182 302.382 357.894C302.92 357.597 303.366 357.194 303.718 356.683C304.071 356.173 304.335 355.589 304.511 354.93C304.697 354.262 304.79 353.552 304.79 352.801L304.79 352.481C304.79 351.739 304.697 351.038 304.511 350.379C304.335 349.711 304.066 349.122 303.704 348.612C303.352 348.093 302.906 347.684 302.368 347.387C301.84 347.091 301.218 346.942 300.504 346.942C299.799 346.942 299.177 347.091 298.639 347.387C298.11 347.684 297.665 348.093 297.303 348.612C296.95 349.122 296.686 349.711 296.51 350.379C296.333 351.038 296.245 351.739 296.245 352.481ZM319.819 356.683L319.819 345.105L322.407 345.105L322.407 360.162L319.944 360.162L319.819 356.683ZM320.306 353.511L321.378 353.483C321.378 354.485 321.271 355.412 321.058 356.266C320.853 357.11 320.52 357.843 320.056 358.465C319.592 359.086 318.984 359.573 318.233 359.926C317.481 360.269 316.567 360.441 315.491 360.441C314.758 360.441 314.086 360.334 313.473 360.121C312.87 359.907 312.351 359.578 311.915 359.133C311.479 358.687 311.14 358.107 310.899 357.393C310.667 356.679 310.551 355.821 310.551 354.819L310.551 345.105L313.125 345.105L313.125 354.846C313.125 355.524 313.2 356.085 313.348 356.53C313.506 356.966 313.715 357.314 313.974 357.574C314.243 357.824 314.54 358.001 314.865 358.103C315.199 358.205 315.542 358.256 315.895 358.256C316.989 358.256 317.857 358.047 318.497 357.63C319.137 357.203 319.596 356.632 319.875 355.918C320.162 355.194 320.306 354.392 320.306 353.511ZM328.906 347.471L328.906 360.162L326.332 360.162L326.332 345.105L328.837 345.105L328.906 347.471ZM333.61 345.022L333.596 347.415C333.383 347.369 333.178 347.341 332.984 347.332C332.798 347.313 332.585 347.304 332.343 347.304C331.75 347.304 331.226 347.397 330.771 347.582C330.316 347.768 329.931 348.028 329.616 348.362C329.301 348.696 329.05 349.094 328.864 349.558C328.688 350.013 328.572 350.514 328.517 351.061L327.793 351.479C327.793 350.57 327.881 349.716 328.057 348.918C328.243 348.12 328.526 347.415 328.906 346.803C329.287 346.181 329.769 345.699 330.353 345.356C330.947 345.003 331.652 344.827 332.469 344.827C332.654 344.827 332.868 344.85 333.109 344.896C333.35 344.934 333.517 344.975 333.61 345.022ZM342.377 352.801L342.377 352.481C342.377 351.395 342.535 350.389 342.85 349.461C343.165 348.524 343.62 347.712 344.214 347.026C344.808 346.33 345.527 345.792 346.371 345.411C347.215 345.022 348.161 344.827 349.21 344.827C350.267 344.827 351.218 345.022 352.062 345.411C352.916 345.792 353.64 346.33 354.233 347.026C354.836 347.712 355.296 348.524 355.611 349.461C355.926 350.389 356.084 351.395 356.084 352.481L356.084 352.801C356.084 353.886 355.926 354.893 355.611 355.821C355.296 356.748 354.836 357.56 354.233 358.256C353.64 358.942 352.921 359.48 352.076 359.87C351.241 360.25 350.295 360.441 349.238 360.441C348.18 360.441 347.229 360.25 346.385 359.87C345.54 359.48 344.817 358.942 344.214 358.256C343.62 357.56 343.165 356.748 342.85 355.821C342.535 354.893 342.377 353.886 342.377 352.801ZM344.951 352.481L344.951 352.801C344.951 353.552 345.04 354.262 345.216 354.93C345.392 355.589 345.656 356.173 346.009 356.683C346.371 357.194 346.821 357.597 347.359 357.894C347.897 358.182 348.523 358.325 349.238 358.325C349.943 358.325 350.56 358.182 351.088 357.894C351.626 357.597 352.072 357.194 352.424 356.683C352.777 356.173 353.041 355.589 353.217 354.93C353.403 354.262 353.496 353.552 353.496 352.801L353.496 352.481C353.496 351.739 353.403 351.038 353.217 350.379C353.041 349.711 352.772 349.122 352.41 348.612C352.058 348.093 351.613 347.684 351.074 347.387C350.546 347.091 349.924 346.942 349.21 346.942C348.505 346.942 347.883 347.091 347.345 347.387C346.816 347.684 346.371 348.093 346.009 348.612C345.656 349.122 345.392 349.711 345.216 350.379C345.04 351.038 344.951 351.739 344.951 352.481ZM362.11 338.787L362.11 360.162L359.521 360.162L359.521 338.787L362.11 338.787ZM375.734 357.24L375.734 338.787L378.322 338.787L378.322 360.162L375.956 360.162L375.734 357.24ZM365.603 352.801L365.603 352.509C365.603 351.358 365.742 350.314 366.02 349.377C366.308 348.431 366.711 347.619 367.231 346.942C367.76 346.265 368.386 345.745 369.11 345.384C369.842 345.012 370.659 344.827 371.559 344.827C372.505 344.827 373.331 344.994 374.036 345.328C374.75 345.653 375.353 346.13 375.845 346.761C376.346 347.383 376.74 348.134 377.028 349.016C377.315 349.897 377.515 350.894 377.626 352.008L377.626 353.288C377.524 354.392 377.325 355.385 377.028 356.266C376.74 357.147 376.346 357.899 375.845 358.52C375.353 359.142 374.75 359.62 374.036 359.954C373.322 360.278 372.487 360.441 371.531 360.441C370.65 360.441 369.842 360.25 369.11 359.87C368.386 359.49 367.76 358.956 367.231 358.27C366.711 357.583 366.308 356.776 366.02 355.848C365.742 354.911 365.603 353.896 365.603 352.801ZM368.191 352.509L368.191 352.801C368.191 353.552 368.265 354.257 368.414 354.916C368.572 355.575 368.813 356.155 369.137 356.656C369.462 357.156 369.875 357.551 370.376 357.838C370.877 358.117 371.475 358.256 372.171 358.256C373.025 358.256 373.725 358.075 374.272 357.713C374.829 357.351 375.274 356.874 375.608 356.28C375.942 355.686 376.202 355.041 376.388 354.345L376.388 350.992C376.276 350.481 376.114 349.99 375.901 349.517C375.697 349.034 375.427 348.607 375.093 348.236C374.769 347.856 374.365 347.554 373.883 347.332C373.41 347.109 372.848 346.998 372.199 346.998C371.494 346.998 370.886 347.146 370.376 347.443C369.875 347.731 369.462 348.13 369.137 348.64C368.813 349.141 368.572 349.725 368.414 350.393C368.265 351.052 368.191 351.757 368.191 352.509ZM392.836 360.162L390.262 360.162L390.262 343.797C390.262 342.656 390.485 341.691 390.93 340.903C391.375 340.114 392.011 339.516 392.836 339.107C393.662 338.699 394.641 338.495 395.773 338.495C396.441 338.495 397.095 338.579 397.735 338.746C398.375 338.903 399.034 339.103 399.711 339.344L399.28 341.515C398.853 341.348 398.356 341.19 397.79 341.042C397.234 340.884 396.622 340.805 395.954 340.805C394.85 340.805 394.052 341.056 393.56 341.557C393.078 342.048 392.836 342.795 392.836 343.797L392.836 360.162ZM395.912 345.105L395.912 347.081L387.882 347.081L387.882 345.105L395.912 345.105ZM400.977 345.105L400.977 360.162L398.403 360.162L398.403 345.105L400.977 345.105ZM414.086 357.588L414.086 349.837C414.086 349.243 413.966 348.728 413.724 348.292C413.492 347.847 413.14 347.503 412.667 347.262C412.194 347.021 411.609 346.9 410.913 346.9C410.264 346.9 409.693 347.012 409.202 347.234C408.719 347.457 408.339 347.749 408.061 348.111C407.791 348.473 407.657 348.863 407.657 349.28L405.082 349.28C405.082 348.742 405.222 348.208 405.5 347.68C405.778 347.151 406.177 346.673 406.697 346.246C407.226 345.81 407.856 345.467 408.589 345.217C409.332 344.957 410.157 344.827 411.066 344.827C412.161 344.827 413.126 345.012 413.961 345.384C414.805 345.755 415.464 346.316 415.937 347.067C416.419 347.81 416.661 348.742 416.661 349.865L416.661 356.878C416.661 357.379 416.702 357.913 416.786 358.479C416.879 359.044 417.013 359.531 417.189 359.94L417.189 360.162L414.504 360.162C414.374 359.865 414.272 359.471 414.197 358.979C414.123 358.479 414.086 358.015 414.086 357.588ZM414.531 351.033L414.559 352.843L411.957 352.843C411.224 352.843 410.57 352.903 409.995 353.023C409.42 353.135 408.937 353.306 408.548 353.538C408.158 353.77 407.861 354.063 407.657 354.415C407.453 354.758 407.351 355.162 407.351 355.626C407.351 356.099 407.457 356.53 407.671 356.92C407.884 357.31 408.204 357.62 408.631 357.852C409.067 358.075 409.601 358.186 410.231 358.186C411.02 358.186 411.716 358.019 412.319 357.685C412.922 357.351 413.4 356.943 413.752 356.461C414.114 355.978 414.309 355.51 414.337 355.055L415.436 356.294C415.371 356.683 415.195 357.115 414.907 357.588C414.62 358.061 414.235 358.516 413.752 358.952C413.279 359.378 412.713 359.736 412.054 360.023C411.405 360.302 410.672 360.441 409.856 360.441C408.835 360.441 407.94 360.241 407.17 359.842C406.409 359.443 405.815 358.91 405.389 358.242C404.971 357.565 404.762 356.809 404.762 355.974C404.762 355.167 404.92 354.457 405.236 353.844C405.551 353.223 406.006 352.708 406.599 352.3C407.193 351.882 407.907 351.567 408.742 351.354C409.577 351.14 410.51 351.033 411.54 351.033L414.531 351.033ZM427.014 345.105L427.014 347.081L418.873 347.081L418.873 345.105L427.014 345.105ZM421.629 341.445L424.203 341.445L424.203 356.433C424.203 356.943 424.282 357.328 424.44 357.588C424.597 357.848 424.801 358.019 425.052 358.103C425.302 358.186 425.572 358.228 425.859 358.228C426.072 358.228 426.295 358.209 426.527 358.172C426.768 358.126 426.949 358.089 427.07 358.061L427.084 360.162C426.88 360.227 426.611 360.288 426.277 360.343C425.952 360.408 425.558 360.441 425.094 360.441C424.463 360.441 423.883 360.315 423.354 360.065C422.825 359.814 422.403 359.397 422.088 358.813C421.782 358.219 421.629 357.421 421.629 356.419L421.629 341.445ZM443.129 358.325C443.741 358.325 444.307 358.2 444.827 357.95C445.346 357.699 445.773 357.356 446.107 356.92C446.441 356.475 446.631 355.969 446.677 355.403L449.127 355.403C449.08 356.294 448.779 357.124 448.222 357.894C447.675 358.655 446.956 359.272 446.065 359.745C445.175 360.209 444.196 360.441 443.129 360.441C441.997 360.441 441.009 360.241 440.165 359.842C439.33 359.443 438.634 358.896 438.077 358.2C437.53 357.504 437.117 356.707 436.839 355.807C436.57 354.897 436.435 353.937 436.435 352.926L436.435 352.342C436.435 351.33 436.57 350.375 436.839 349.475C437.117 348.566 437.53 347.763 438.077 347.067C438.634 346.372 439.33 345.824 440.165 345.425C441.009 345.026 441.997 344.827 443.129 344.827C444.307 344.827 445.337 345.068 446.218 345.551C447.1 346.024 447.791 346.673 448.292 347.499C448.802 348.315 449.08 349.243 449.127 350.282L446.677 350.282C446.631 349.66 446.455 349.099 446.149 348.598C445.852 348.097 445.444 347.698 444.924 347.401C444.414 347.095 443.815 346.942 443.129 346.942C442.34 346.942 441.677 347.1 441.139 347.415C440.61 347.721 440.188 348.139 439.873 348.668C439.566 349.187 439.344 349.767 439.205 350.407C439.075 351.038 439.01 351.683 439.01 352.342L439.01 352.926C439.01 353.585 439.075 354.234 439.205 354.874C439.334 355.514 439.552 356.094 439.859 356.614C440.174 357.133 440.596 357.551 441.125 357.866C441.663 358.172 442.331 358.325 443.129 358.325ZM451.339 352.801L451.339 352.481C451.339 351.395 451.497 350.389 451.812 349.461C452.128 348.524 452.582 347.712 453.176 347.026C453.77 346.33 454.489 345.792 455.333 345.411C456.177 345.022 457.124 344.827 458.172 344.827C459.23 344.827 460.181 345.022 461.025 345.411C461.878 345.792 462.602 346.33 463.196 347.026C463.799 347.712 464.258 348.524 464.573 349.461C464.889 350.389 465.047 351.395 465.047 352.481L465.047 352.801C465.047 353.886 464.889 354.893 464.573 355.821C464.258 356.748 463.799 357.56 463.196 358.256C462.602 358.942 461.883 359.48 461.039 359.87C460.204 360.25 459.258 360.441 458.2 360.441C457.142 360.441 456.191 360.25 455.347 359.87C454.503 359.48 453.779 358.942 453.176 358.256C452.582 357.56 452.128 356.748 451.812 355.821C451.497 354.893 451.339 353.886 451.339 352.801ZM453.914 352.481L453.914 352.801C453.914 353.552 454.002 354.262 454.178 354.93C454.354 355.589 454.619 356.173 454.971 356.683C455.333 357.194 455.783 357.597 456.321 357.894C456.859 358.182 457.486 358.325 458.2 358.325C458.905 358.325 459.522 358.182 460.051 357.894C460.589 357.597 461.034 357.194 461.387 356.683C461.739 356.173 462.004 355.589 462.18 354.93C462.365 354.262 462.458 353.552 462.458 352.801L462.458 352.481C462.458 351.739 462.365 351.038 462.18 350.379C462.004 349.711 461.735 349.122 461.373 348.612C461.02 348.093 460.575 347.684 460.037 347.387C459.508 347.091 458.886 346.942 458.172 346.942C457.467 346.942 456.845 347.091 456.307 347.387C455.779 347.684 455.333 348.093 454.971 348.612C454.619 349.122 454.354 349.711 454.178 350.379C454.002 351.038 453.914 351.739 453.914 352.481ZM471.072 345.105L471.072 360.162L468.484 360.162L468.484 345.105L471.072 345.105ZM468.289 341.111C468.289 340.694 468.414 340.341 468.665 340.054C468.925 339.766 469.305 339.622 469.806 339.622C470.298 339.622 470.673 339.766 470.933 340.054C471.202 340.341 471.337 340.694 471.337 341.111C471.337 341.51 471.202 341.854 470.933 342.141C470.673 342.419 470.298 342.559 469.806 342.559C469.305 342.559 468.925 342.419 468.665 342.141C468.414 341.854 468.289 341.51 468.289 341.111ZM477.78 348.32L477.78 360.162L475.205 360.162L475.205 345.105L477.641 345.105L477.78 348.32ZM477.167 352.063L476.096 352.021C476.105 350.992 476.258 350.041 476.555 349.169C476.852 348.287 477.27 347.522 477.808 346.873C478.346 346.223 478.986 345.722 479.728 345.37C480.479 345.008 481.31 344.827 482.219 344.827C482.961 344.827 483.629 344.929 484.223 345.133C484.817 345.328 485.322 345.643 485.74 346.079C486.166 346.515 486.491 347.081 486.714 347.777C486.936 348.464 487.048 349.303 487.048 350.296L487.048 360.162L484.459 360.162L484.459 350.268C484.459 349.479 484.343 348.849 484.112 348.375C483.88 347.893 483.541 347.545 483.096 347.332C482.65 347.109 482.103 346.998 481.454 346.998C480.813 346.998 480.229 347.132 479.7 347.401C479.181 347.67 478.731 348.042 478.35 348.515C477.979 348.988 477.687 349.531 477.474 350.143C477.27 350.746 477.167 351.386 477.167 352.063ZM499.725 356.168C499.725 355.797 499.642 355.454 499.475 355.139C499.317 354.814 498.988 354.522 498.487 354.262C497.995 353.993 497.253 353.761 496.26 353.566C495.425 353.39 494.669 353.181 493.992 352.94C493.324 352.699 492.753 352.406 492.28 352.063C491.816 351.72 491.459 351.316 491.209 350.853C490.958 350.389 490.833 349.846 490.833 349.224C490.833 348.631 490.963 348.069 491.223 347.541C491.492 347.012 491.867 346.543 492.35 346.135C492.842 345.727 493.431 345.407 494.117 345.175C494.804 344.943 495.569 344.827 496.413 344.827C497.619 344.827 498.649 345.04 499.503 345.467C500.356 345.894 501.01 346.464 501.465 347.179C501.919 347.884 502.147 348.668 502.147 349.531L499.572 349.531C499.572 349.113 499.447 348.709 499.197 348.32C498.955 347.921 498.598 347.592 498.125 347.332C497.661 347.072 497.091 346.942 496.413 346.942C495.699 346.942 495.119 347.053 494.674 347.276C494.238 347.49 493.918 347.763 493.714 348.097C493.519 348.431 493.421 348.784 493.421 349.155C493.421 349.433 493.468 349.684 493.561 349.906C493.663 350.12 493.839 350.319 494.089 350.505C494.34 350.681 494.692 350.848 495.147 351.006C495.602 351.163 496.181 351.321 496.886 351.479C498.12 351.757 499.136 352.091 499.934 352.481C500.732 352.87 501.326 353.348 501.715 353.914C502.105 354.48 502.3 355.167 502.3 355.974C502.3 356.632 502.161 357.235 501.882 357.783C501.613 358.33 501.219 358.803 500.699 359.202C500.189 359.592 499.577 359.898 498.863 360.121C498.157 360.334 497.364 360.441 496.483 360.441C495.156 360.441 494.034 360.204 493.115 359.731C492.197 359.258 491.501 358.646 491.028 357.894C490.555 357.143 490.318 356.349 490.318 355.514L492.906 355.514C492.944 356.219 493.148 356.781 493.519 357.198C493.89 357.606 494.344 357.899 494.883 358.075C495.421 358.242 495.954 358.325 496.483 358.325C497.188 358.325 497.777 358.233 498.25 358.047C498.733 357.862 499.099 357.606 499.35 357.282C499.6 356.957 499.725 356.586 499.725 356.168ZM516.592 360.162L514.017 360.162L514.017 343.519C514.017 342.433 514.212 341.52 514.602 340.777C515 340.026 515.571 339.46 516.313 339.08C517.055 338.69 517.937 338.495 518.957 338.495C519.254 338.495 519.551 338.514 519.848 338.551C520.154 338.588 520.451 338.644 520.738 338.718L520.599 340.819C520.405 340.773 520.182 340.74 519.931 340.722C519.69 340.703 519.449 340.694 519.208 340.694C518.66 340.694 518.187 340.805 517.788 341.028C517.399 341.241 517.102 341.557 516.898 341.974C516.694 342.392 516.592 342.906 516.592 343.519L516.592 360.162ZM519.792 345.105L519.792 347.081L511.637 347.081L511.637 345.105L519.792 345.105ZM521.977 352.801L521.977 352.481C521.977 351.395 522.135 350.389 522.45 349.461C522.766 348.524 523.22 347.712 523.814 347.026C524.408 346.33 525.127 345.792 525.971 345.411C526.815 345.022 527.761 344.827 528.81 344.827C529.867 344.827 530.818 345.022 531.663 345.411C532.516 345.792 533.24 346.33 533.833 347.026C534.436 347.712 534.896 348.524 535.211 349.461C535.527 350.389 535.684 351.395 535.684 352.481L535.684 352.801C535.684 353.886 535.527 354.893 535.211 355.821C534.896 356.748 534.436 357.56 533.833 358.256C533.24 358.942 532.521 359.48 531.676 359.87C530.841 360.25 529.895 360.441 528.838 360.441C527.78 360.441 526.829 360.25 525.985 359.87C525.141 359.48 524.417 358.942 523.814 358.256C523.22 357.56 522.766 356.748 522.45 355.821C522.135 354.893 521.977 353.886 521.977 352.801ZM524.551 352.481L524.551 352.801C524.551 353.552 524.64 354.262 524.816 354.93C524.992 355.589 525.257 356.173 525.609 356.683C525.971 357.194 526.421 357.597 526.959 357.894C527.497 358.182 528.123 358.325 528.838 358.325C529.543 358.325 530.16 358.182 530.688 357.894C531.227 357.597 531.672 357.194 532.024 356.683C532.377 356.173 532.641 355.589 532.818 354.93C533.003 354.262 533.096 353.552 533.096 352.801L533.096 352.481C533.096 351.739 533.003 351.038 532.818 350.379C532.641 349.711 532.372 349.122 532.01 348.612C531.658 348.093 531.213 347.684 530.674 347.387C530.146 347.091 529.524 346.942 528.81 346.942C528.105 346.942 527.483 347.091 526.945 347.387C526.416 347.684 525.971 348.093 525.609 348.612C525.257 349.122 524.992 349.711 524.816 350.379C524.64 351.038 524.551 351.739 524.551 352.481ZM541.487 347.471L541.487 360.162L538.913 360.162L538.913 345.105L541.418 345.105L541.487 347.471ZM546.191 345.022L546.177 347.415C545.964 347.369 545.759 347.341 545.565 347.332C545.379 347.313 545.166 347.304 544.924 347.304C544.331 347.304 543.807 347.397 543.352 347.582C542.897 347.768 542.512 348.028 542.197 348.362C541.882 348.696 541.631 349.094 541.445 349.558C541.269 350.013 541.153 350.514 541.098 351.061L540.374 351.479C540.374 350.57 540.462 349.716 540.638 348.918C540.824 348.12 541.107 347.415 541.487 346.803C541.868 346.181 542.35 345.699 542.935 345.356C543.528 345.003 544.233 344.827 545.05 344.827C545.235 344.827 545.449 344.85 545.69 344.896C545.931 344.934 546.098 344.975 546.191 345.022ZM564.407 356.168C564.407 355.797 564.323 355.454 564.156 355.139C563.999 354.814 563.669 354.522 563.168 354.262C562.677 353.993 561.935 353.761 560.942 353.566C560.107 353.39 559.351 353.181 558.674 352.94C558.006 352.699 557.435 352.406 556.962 352.063C556.498 351.72 556.141 351.316 555.89 350.853C555.64 350.389 555.515 349.846 555.515 349.224C555.515 348.631 555.644 348.069 555.904 347.541C556.173 347.012 556.549 346.543 557.031 346.135C557.523 345.727 558.112 345.407 558.799 345.175C559.485 344.943 560.251 344.827 561.095 344.827C562.301 344.827 563.331 345.04 564.184 345.467C565.038 345.894 565.692 346.464 566.146 347.179C566.601 347.884 566.828 348.668 566.828 349.531L564.254 349.531C564.254 349.113 564.129 348.709 563.878 348.32C563.637 347.921 563.28 347.592 562.807 347.332C562.343 347.072 561.772 346.942 561.095 346.942C560.381 346.942 559.801 347.053 559.355 347.276C558.919 347.49 558.599 347.763 558.395 348.097C558.2 348.431 558.103 348.784 558.103 349.155C558.103 349.433 558.149 349.684 558.242 349.906C558.344 350.12 558.52 350.319 558.771 350.505C559.021 350.681 559.374 350.848 559.829 351.006C560.283 351.163 560.863 351.321 561.568 351.479C562.802 351.757 563.818 352.091 564.616 352.481C565.414 352.87 566.007 353.348 566.397 353.914C566.787 354.48 566.981 355.167 566.981 355.974C566.981 356.632 566.842 357.235 566.564 357.783C566.295 358.33 565.901 358.803 565.381 359.202C564.871 359.592 564.258 359.898 563.544 360.121C562.839 360.334 562.046 360.441 561.164 360.441C559.838 360.441 558.715 360.204 557.797 359.731C556.878 359.258 556.183 358.646 555.709 357.894C555.236 357.143 555 356.349 555 355.514L557.588 355.514C557.625 356.219 557.829 356.781 558.2 357.198C558.571 357.606 559.026 357.899 559.564 358.075C560.102 358.242 560.636 358.325 561.164 358.325C561.87 358.325 562.459 358.233 562.932 358.047C563.414 357.862 563.781 357.606 564.031 357.282C564.282 356.957 564.407 356.586 564.407 356.168ZM572.937 338.787L572.937 360.162L570.363 360.162L570.363 338.787L572.937 338.787ZM572.325 352.063L571.254 352.021C571.263 350.992 571.416 350.041 571.713 349.169C572.01 348.287 572.427 347.522 572.965 346.873C573.503 346.223 574.143 345.722 574.886 345.37C575.637 345.008 576.467 344.827 577.377 344.827C578.119 344.827 578.787 344.929 579.381 345.133C579.974 345.328 580.48 345.643 580.897 346.079C581.324 346.515 581.649 347.081 581.872 347.777C582.094 348.464 582.206 349.303 582.206 350.296L582.206 360.162L579.617 360.162L579.617 350.268C579.617 349.479 579.501 348.849 579.269 348.375C579.037 347.893 578.699 347.545 578.253 347.332C577.808 347.109 577.261 346.998 576.611 346.998C575.971 346.998 575.387 347.132 574.858 347.401C574.338 347.67 573.888 348.042 573.508 348.515C573.137 348.988 572.845 349.531 572.631 350.143C572.427 350.746 572.325 351.386 572.325 352.063ZM588.857 345.105L588.857 360.162L586.269 360.162L586.269 345.105L588.857 345.105ZM586.074 341.111C586.074 340.694 586.199 340.341 586.45 340.054C586.71 339.766 587.09 339.622 587.591 339.622C588.083 339.622 588.458 339.766 588.718 340.054C588.987 340.341 589.122 340.694 589.122 341.111C589.122 341.51 588.987 341.854 588.718 342.141C588.458 342.419 588.083 342.559 587.591 342.559C587.09 342.559 586.71 342.419 586.45 342.141C586.199 341.854 586.074 341.51 586.074 341.111ZM595.565 348.32L595.565 360.162L592.99 360.162L592.99 345.105L595.426 345.105L595.565 348.32ZM594.953 352.063L593.881 352.021C593.89 350.992 594.043 350.041 594.34 349.169C594.637 348.287 595.055 347.522 595.593 346.873C596.131 346.223 596.771 345.722 597.513 345.37C598.265 345.008 599.095 344.827 600.004 344.827C600.746 344.827 601.414 344.929 602.008 345.133C602.602 345.328 603.107 345.643 603.525 346.079C603.952 346.515 604.276 347.081 604.499 347.777C604.722 348.464 604.833 349.303 604.833 350.296L604.833 360.162L602.245 360.162L602.245 350.268C602.245 349.479 602.129 348.849 601.897 348.375C601.665 347.893 601.326 347.545 600.881 347.332C600.435 347.109 599.888 346.998 599.239 346.998C598.599 346.998 598.014 347.132 597.485 347.401C596.966 347.67 596.516 348.042 596.135 348.515C595.764 348.988 595.472 349.531 595.259 350.143C595.055 350.746 594.953 351.386 594.953 352.063ZM611.318 348.32L611.318 360.162L608.743 360.162L608.743 345.105L611.179 345.105L611.318 348.32ZM610.706 352.063L609.634 352.021C609.643 350.992 609.796 350.041 610.093 349.169C610.39 348.287 610.808 347.522 611.346 346.873C611.884 346.223 612.524 345.722 613.266 345.37C614.018 345.008 614.848 344.827 615.757 344.827C616.499 344.827 617.167 344.929 617.761 345.133C618.355 345.328 618.86 345.643 619.278 346.079C619.705 346.515 620.029 347.081 620.252 347.777C620.475 348.464 620.586 349.303 620.586 350.296L620.586 360.162L617.997 360.162L617.997 350.268C617.997 349.479 617.882 348.849 617.65 348.375C617.418 347.893 617.079 347.545 616.634 347.332C616.188 347.109 615.641 346.998 614.992 346.998C614.352 346.998 613.767 347.132 613.238 347.401C612.719 347.67 612.269 348.042 611.888 348.515C611.517 348.988 611.225 349.531 611.012 350.143C610.808 350.746 610.706 351.386 610.706 352.063ZM628.727 358.604L632.915 345.105L635.671 345.105L629.631 362.486C629.492 362.857 629.307 363.256 629.075 363.683C628.852 364.119 628.564 364.532 628.212 364.922C627.859 365.311 627.433 365.627 626.932 365.868C626.44 366.118 625.851 366.244 625.164 366.244C624.96 366.244 624.7 366.216 624.385 366.16C624.07 366.104 623.847 366.058 623.717 366.021L623.703 363.934C623.777 363.943 623.893 363.952 624.051 363.961C624.218 363.98 624.334 363.989 624.399 363.989C624.983 363.989 625.48 363.91 625.888 363.753C626.296 363.604 626.639 363.349 626.918 362.987C627.205 362.635 627.451 362.148 627.655 361.526L628.727 358.604ZM625.651 345.105L629.562 356.795L630.23 359.508L628.379 360.455L622.84 345.105L625.651 345.105ZM647.639 348.32L647.639 360.162L645.064 360.162L645.064 345.105L647.499 345.105L647.639 348.32ZM647.026 352.063L645.955 352.021C645.964 350.992 646.117 350.041 646.414 349.169C646.711 348.287 647.128 347.522 647.666 346.873C648.205 346.223 648.845 345.722 649.587 345.37C650.338 345.008 651.169 344.827 652.078 344.827C652.82 344.827 653.488 344.929 654.082 345.133C654.675 345.328 655.181 345.643 655.599 346.079C656.025 346.515 656.35 347.081 656.573 347.777C656.795 348.464 656.907 349.303 656.907 350.296L656.907 360.162L654.318 360.162L654.318 350.268C654.318 349.479 654.202 348.849 653.97 348.375C653.738 347.893 653.4 347.545 652.955 347.332C652.509 347.109 651.962 346.998 651.312 346.998C650.672 346.998 650.088 347.132 649.559 347.401C649.039 347.67 648.59 348.042 648.209 348.515C647.838 348.988 647.546 349.531 647.332 350.143C647.128 350.746 647.026 351.386 647.026 352.063ZM667.065 360.441C666.017 360.441 665.066 360.264 664.213 359.912C663.368 359.55 662.64 359.044 662.028 358.395C661.425 357.746 660.961 356.976 660.636 356.085C660.311 355.194 660.149 354.22 660.149 353.163L660.149 352.578C660.149 351.354 660.33 350.263 660.692 349.308C661.054 348.343 661.545 347.527 662.167 346.859C662.789 346.191 663.494 345.685 664.282 345.342C665.071 344.999 665.887 344.827 666.731 344.827C667.808 344.827 668.735 345.012 669.515 345.384C670.303 345.755 670.948 346.274 671.449 346.942C671.95 347.601 672.321 348.38 672.562 349.28C672.803 350.171 672.924 351.145 672.924 352.202L672.924 353.357L661.68 353.357L661.68 351.256L670.35 351.256L670.35 351.061C670.312 350.393 670.173 349.744 669.932 349.113C669.7 348.482 669.329 347.963 668.819 347.554C668.309 347.146 667.613 346.942 666.731 346.942C666.147 346.942 665.609 347.067 665.117 347.318C664.625 347.559 664.203 347.921 663.851 348.403C663.498 348.886 663.225 349.475 663.03 350.171C662.835 350.866 662.737 351.669 662.737 352.578L662.737 353.163C662.737 353.877 662.835 354.55 663.03 355.18C663.234 355.802 663.526 356.349 663.906 356.823C664.296 357.296 664.765 357.667 665.312 357.936C665.869 358.205 666.499 358.339 667.205 358.339C668.114 358.339 668.884 358.154 669.515 357.783C670.145 357.412 670.697 356.915 671.171 356.294L672.729 357.532C672.404 358.024 671.992 358.492 671.491 358.938C670.99 359.383 670.373 359.745 669.64 360.023C668.916 360.302 668.058 360.441 667.065 360.441ZM679.743 357.49L683.612 345.105L685.309 345.105L684.975 347.568L681.037 360.162L679.381 360.162L679.743 357.49ZM677.141 345.105L680.439 357.63L680.675 360.162L678.936 360.162L674.566 345.105L677.141 345.105ZM689.011 357.532L692.156 345.105L694.716 345.105L690.347 360.162L688.621 360.162L689.011 357.532ZM685.685 345.105L689.47 357.282L689.902 360.162L688.259 360.162L684.21 347.541L683.876 345.105L685.685 345.105ZM711.75 339.901L711.75 360.162L709.106 360.162L709.106 339.901L711.75 339.901ZM718.262 339.901L718.262 342.099L702.607 342.099L702.607 339.901L718.262 339.901ZM721.268 339.901L727.976 339.901C729.497 339.901 730.782 340.133 731.831 340.596C732.888 341.06 733.691 341.747 734.238 342.656C734.795 343.556 735.073 344.665 735.073 345.982C735.073 346.91 734.883 347.759 734.502 348.529C734.131 349.289 733.593 349.939 732.888 350.477C732.192 351.006 731.357 351.4 730.383 351.66L729.632 351.952L723.328 351.952L723.3 349.767L728.059 349.767C729.024 349.767 729.827 349.6 730.467 349.266C731.107 348.923 731.589 348.464 731.914 347.888C732.239 347.313 732.401 346.678 732.401 345.982C732.401 345.203 732.248 344.521 731.942 343.936C731.636 343.352 731.153 342.902 730.495 342.586C729.845 342.262 729.006 342.099 727.976 342.099L723.954 342.099L723.954 360.162L721.268 360.162L721.268 339.901ZM733.111 360.162L728.185 350.978L730.982 350.964L735.977 359.995L735.977 360.162L733.111 360.162ZM740.57 339.901L745.44 347.666L750.311 339.901L753.442 339.901L747.041 349.934L753.595 360.162L750.436 360.162L745.44 352.244L740.445 360.162L737.286 360.162L743.84 349.934L737.439 339.901L740.57 339.901ZM759.37 339.901L759.189 354.443L756.865 354.443L756.671 339.901L759.37 339.901ZM756.587 358.868C756.587 358.451 756.712 358.098 756.963 357.811C757.223 357.523 757.603 357.379 758.104 357.379C758.596 357.379 758.971 357.523 759.231 357.811C759.5 358.098 759.635 358.451 759.635 358.868C759.635 359.267 759.5 359.61 759.231 359.898C758.971 360.186 758.596 360.329 758.104 360.329C757.603 360.329 757.223 360.186 756.963 359.898C756.712 359.61 756.587 359.267 756.587 358.868Z" fill="#6518FF"/>
</g>
<defs>
<clipPath id="clip0_54_3">
<rect width="413" height="912" fill="white" transform="translate(912) rotate(90)"/>
</clipPath>
<clipPath id="clip1_54_3">
<rect width="604.2" height="769.5" fill="white" transform="translate(840.75 -190.95) rotate(90)"/>
</clipPath>
</defs>
</svg>
