<svg width="912" height="413" viewBox="0 0 912 413" fill="none" xmlns="http://www.w3.org/2000/svg">
<g clip-path="url(#clip0_54_3)">
<g clip-path="url(#clip1_54_3)">
<path d="M651.161 269.059C677.479 258.96 699.429 239.97 713.202 215.384C726.976 190.799 731.704 162.169 726.567 134.463C721.429 106.757 706.749 81.7232 685.075 63.7052C663.401 45.6873 636.101 35.8223 607.91 35.8223C579.72 35.8223 552.419 45.6873 530.745 63.7052C509.071 81.7232 494.391 106.757 489.254 134.463C484.116 162.169 488.844 190.799 502.618 215.384C516.392 239.97 538.342 258.96 564.659 269.059L483.371 480.779C407.572 451.699 344.351 397.011 304.678 326.205C265.004 255.399 251.383 172.943 266.177 93.1474C280.971 13.3513 323.248 -58.7497 385.67 -110.644C448.092 -162.538 526.72 -190.95 607.91 -190.95C689.101 -190.95 767.729 -162.538 830.151 -110.644C892.573 -58.7497 934.849 13.3513 949.643 93.1474C964.437 172.943 950.816 255.399 911.143 326.205C871.47 397.011 808.248 451.699 732.45 480.779L651.161 269.059Z" stroke="#EEEEF2" stroke-width="6.15137" stroke-linejoin="round"/>
<path d="M333.098 151.071C333.098 160.39 336.419 168.325 343.063 174.784C349.799 181.151 357.919 184.38 367.422 184.38C377.019 184.38 385.138 181.151 391.782 174.784C398.425 168.325 401.747 160.39 401.747 151.071C401.747 141.751 398.425 133.908 391.69 127.45C385.046 120.991 376.926 117.761 367.422 117.761C357.919 117.761 349.799 120.991 343.063 127.45C336.419 133.908 333.098 141.751 333.098 151.071ZM347.307 151.071C347.307 145.442 349.245 140.644 353.12 136.677C356.996 132.709 361.794 130.679 367.422 130.679C373.051 130.679 377.849 132.709 381.724 136.677C385.6 140.644 387.537 145.442 387.537 151.071C387.537 156.699 385.6 161.59 381.632 165.557C377.757 169.525 373.051 171.463 367.422 171.463C361.794 171.463 356.996 169.525 353.12 165.649C349.245 161.682 347.307 156.884 347.307 151.071ZM423.38 200.897V176.999C424.764 181.059 430.208 183.919 437.221 183.919C443.772 183.919 449.308 181.612 453.645 176.999C458.074 172.293 460.288 166.572 460.288 159.836C460.288 153.101 458.074 147.38 453.645 142.766C449.308 138.061 443.772 135.754 437.221 135.754C430.208 135.754 424.764 138.614 423.38 142.674V136.584H409.632V200.897H423.38ZM434.729 171.463C431.315 171.463 428.455 170.355 426.056 168.141C423.749 165.834 422.55 163.066 422.55 159.836C422.55 156.607 423.749 153.839 426.056 151.624C428.455 149.318 431.315 148.21 434.729 148.21C438.051 148.21 440.819 149.318 443.126 151.624C445.433 153.839 446.54 156.607 446.54 159.836C446.54 163.066 445.433 165.834 443.126 168.141C440.819 170.355 438.051 171.463 434.729 171.463ZM465.361 160.113C465.361 167.403 467.668 173.216 472.374 177.645C477.079 181.981 483.169 184.196 490.828 184.196C498.671 184.196 505.406 181.335 510.85 175.707L502.823 168.049C499.593 171.093 495.81 172.57 491.474 172.57C484.184 172.57 479.386 168.971 479.109 163.435H514.264C514.357 162.051 514.449 160.575 514.449 159.006C514.449 152.27 512.234 146.734 507.805 142.213C503.376 137.692 497.656 135.385 490.551 135.385C483.262 135.385 477.172 137.599 472.466 142.121C467.76 146.55 465.361 152.455 465.361 159.744V160.113ZM479.294 154.485C479.663 150.148 484.553 146.734 490.551 146.734C496.087 146.734 500.608 150.148 500.608 154.485H479.294ZM535.024 183.089V156.976C535.024 151.532 538.807 147.749 543.974 147.749C549.418 147.749 552.278 151.071 552.278 156.515V170.355C552.278 179.213 556.338 183.642 564.55 183.642C567.411 183.642 569.441 183.458 570.548 182.996V171.37L569.994 171.463H569.072C566.765 171.463 566.027 170.171 566.027 166.572V154.854C566.027 142.766 559.568 135.569 548.403 135.569C542.129 135.569 536.961 138.337 535.024 142.397V136.584H521.276V183.089H535.024ZM588.865 183.089L593.202 172.293H620.053L624.389 183.089H639.522L612.948 118.776H600.307L573.733 183.089H588.865ZM606.673 137.599L615.993 160.944H597.262L606.673 137.599ZM665.659 183.089V131.694H682.822V118.776H634.011V131.694H651.45V183.089H665.659ZM703.554 183.089V143.874L724.222 174.323L744.799 143.874V183.089H758.178V118.776H746.275L724.222 151.717L702.17 118.776H690.267V183.089H703.554Z" fill="#113A63"/>
<path d="M221.11 173.336C227.133 171.024 232.156 166.676 235.308 161.048C238.46 155.419 239.542 148.865 238.366 142.522C237.19 136.179 233.831 130.448 228.871 126.323C223.911 122.198 217.664 119.939 211.213 119.939C204.762 119.939 198.514 122.198 193.555 126.323C188.595 130.448 185.236 136.179 184.06 142.522C182.884 148.865 183.966 155.419 187.118 161.048C190.27 166.676 195.293 171.024 201.315 173.336L182.714 221.807C165.368 215.149 150.901 202.629 141.822 186.419C132.743 170.208 129.626 151.331 133.012 133.063C136.397 114.795 146.071 98.2881 160.356 86.4076C174.64 74.5271 192.634 68.0225 211.213 68.0225C229.792 68.0225 247.785 74.5271 262.07 86.4076C276.354 98.2881 286.029 114.795 289.414 133.063C292.8 151.331 289.683 170.208 280.604 186.419C271.525 202.629 257.058 215.149 239.712 221.807L221.11 173.336Z" fill="#9966FF" stroke="#6518FF" stroke-width="6.15137" stroke-linejoin="round"/>
</g>
<rect y="289.988" width="912" height="123.262" fill="#EEEEF2"/>
<path d="M110.574 357.978L110.574 360.162L99.8448 360.162L99.8448 357.978L110.574 357.978ZM100.388 339.901L100.388 360.162L97.7018 360.162L97.7018 339.901L100.388 339.901ZM109.155 348.612L109.155 350.797L99.8448 350.797L99.8448 348.612L109.155 348.612ZM110.435 339.901L110.435 342.099L99.8448 342.099L99.8448 339.901L110.435 339.901ZM115.25 345.105L118.548 350.588L121.888 345.105L124.908 345.105L119.981 352.536L125.061 360.162L122.083 360.162L118.604 354.512L115.125 360.162L112.133 360.162L117.198 352.536L112.286 345.105L115.25 345.105ZM133.396 358.325C134.009 358.325 134.575 358.2 135.094 357.95C135.614 357.699 136.04 357.356 136.374 356.92C136.708 356.475 136.899 355.969 136.945 355.403L139.394 355.403C139.348 356.294 139.046 357.124 138.49 357.894C137.942 358.655 137.223 359.272 136.333 359.745C135.442 360.209 134.463 360.441 133.396 360.441C132.265 360.441 131.276 360.241 130.432 359.842C129.597 359.443 128.901 358.896 128.345 358.2C127.797 357.504 127.385 356.707 127.106 355.807C126.837 354.897 126.703 353.937 126.703 352.926L126.703 352.342C126.703 351.33 126.837 350.375 127.106 349.475C127.385 348.566 127.797 347.763 128.345 347.067C128.901 346.372 129.597 345.824 130.432 345.425C131.276 345.026 132.265 344.827 133.396 344.827C134.575 344.827 135.604 345.068 136.486 345.551C137.367 346.024 138.058 346.673 138.559 347.499C139.069 348.315 139.348 349.243 139.394 350.282L136.945 350.282C136.899 349.66 136.722 349.099 136.416 348.598C136.119 348.097 135.711 347.698 135.192 347.401C134.681 347.095 134.083 346.942 133.396 346.942C132.608 346.942 131.944 347.1 131.406 347.415C130.878 347.721 130.455 348.139 130.14 348.668C129.834 349.187 129.611 349.767 129.472 350.407C129.342 351.038 129.277 351.683 129.277 352.342L129.277 352.926C129.277 353.585 129.342 354.234 129.472 354.874C129.602 355.514 129.82 356.094 130.126 356.614C130.442 357.133 130.864 357.551 131.392 357.866C131.931 358.172 132.599 358.325 133.396 358.325ZM144.863 338.787L144.863 360.162L142.289 360.162L142.289 338.787L144.863 338.787ZM144.251 352.063L143.179 352.021C143.189 350.992 143.342 350.041 143.639 349.169C143.935 348.287 144.353 347.522 144.891 346.873C145.429 346.223 146.069 345.722 146.811 345.37C147.563 345.008 148.393 344.827 149.302 344.827C150.045 344.827 150.713 344.929 151.306 345.133C151.9 345.328 152.406 345.643 152.823 346.079C153.25 346.515 153.575 347.081 153.797 347.777C154.02 348.464 154.131 349.303 154.131 350.296L154.131 360.162L151.543 360.162L151.543 350.268C151.543 349.479 151.427 348.849 151.195 348.375C150.963 347.893 150.624 347.545 150.179 347.332C149.734 347.109 149.186 346.998 148.537 346.998C147.897 346.998 147.312 347.132 146.784 347.401C146.264 347.67 145.814 348.042 145.434 348.515C145.063 348.988 144.77 349.531 144.557 350.143C144.353 350.746 144.251 351.386 144.251 352.063ZM166.864 357.588L166.864 349.837C166.864 349.243 166.744 348.728 166.503 348.292C166.271 347.847 165.918 347.503 165.445 347.262C164.972 347.021 164.387 346.9 163.692 346.9C163.042 346.9 162.472 347.012 161.98 347.234C161.497 347.457 161.117 347.749 160.839 348.111C160.57 348.473 160.435 348.863 160.435 349.28L157.861 349.28C157.861 348.742 158 348.208 158.278 347.68C158.557 347.151 158.955 346.673 159.475 346.246C160.004 345.81 160.635 345.467 161.368 345.217C162.11 344.957 162.935 344.827 163.845 344.827C164.939 344.827 165.904 345.012 166.739 345.384C167.583 345.755 168.242 346.316 168.715 347.067C169.198 347.81 169.439 348.742 169.439 349.865L169.439 356.878C169.439 357.379 169.481 357.913 169.564 358.479C169.657 359.044 169.791 359.531 169.968 359.94L169.968 360.162L167.282 360.162C167.152 359.865 167.05 359.471 166.976 358.979C166.901 358.479 166.864 358.015 166.864 357.588ZM167.31 351.033L167.338 352.843L164.735 352.843C164.002 352.843 163.348 352.903 162.773 353.023C162.198 353.135 161.715 353.306 161.326 353.538C160.936 353.77 160.639 354.063 160.435 354.415C160.231 354.758 160.129 355.162 160.129 355.626C160.129 356.099 160.236 356.53 160.449 356.92C160.662 357.31 160.983 357.62 161.409 357.852C161.845 358.075 162.379 358.186 163.01 358.186C163.798 358.186 164.494 358.019 165.097 357.685C165.7 357.351 166.178 356.943 166.53 356.461C166.892 355.978 167.087 355.51 167.115 355.055L168.214 356.294C168.149 356.683 167.973 357.115 167.685 357.588C167.398 358.061 167.013 358.516 166.53 358.952C166.057 359.378 165.491 359.736 164.833 360.023C164.183 360.302 163.45 360.441 162.634 360.441C161.613 360.441 160.718 360.241 159.948 359.842C159.187 359.443 158.594 358.91 158.167 358.242C157.749 357.565 157.541 356.809 157.541 355.974C157.541 355.167 157.698 354.457 158.014 353.844C158.329 353.223 158.784 352.708 159.378 352.3C159.971 351.882 160.686 351.567 161.521 351.354C162.356 351.14 163.288 351.033 164.318 351.033L167.31 351.033ZM176.063 348.32L176.063 360.162L173.488 360.162L173.488 345.105L175.924 345.105L176.063 348.32ZM175.451 352.063L174.379 352.021C174.388 350.992 174.541 350.041 174.838 349.169C175.135 348.287 175.553 347.522 176.091 346.873C176.629 346.223 177.269 345.722 178.011 345.37C178.763 345.008 179.593 344.827 180.502 344.827C181.244 344.827 181.912 344.929 182.506 345.133C183.1 345.328 183.605 345.643 184.023 346.079C184.45 346.515 184.774 347.081 184.997 347.777C185.22 348.464 185.331 349.303 185.331 350.296L185.331 360.162L182.743 360.162L182.743 350.268C182.743 349.479 182.627 348.849 182.395 348.375C182.163 347.893 181.824 347.545 181.379 347.332C180.933 347.109 180.386 346.998 179.737 346.998C179.097 346.998 178.512 347.132 177.983 347.401C177.464 347.67 177.014 348.042 176.633 348.515C176.262 348.988 175.97 349.531 175.757 350.143C175.553 350.746 175.451 351.386 175.451 352.063ZM198.996 345.105L201.334 345.105L201.334 359.842C201.334 361.169 201.065 362.301 200.527 363.238C199.989 364.175 199.238 364.885 198.273 365.367C197.317 365.859 196.213 366.104 194.961 366.104C194.441 366.104 193.829 366.021 193.124 365.854C192.428 365.696 191.742 365.423 191.064 365.033C190.396 364.653 189.835 364.138 189.38 363.488L190.73 361.958C191.361 362.718 192.02 363.247 192.706 363.544C193.402 363.841 194.089 363.989 194.766 363.989C195.582 363.989 196.287 363.836 196.881 363.53C197.475 363.224 197.934 362.769 198.259 362.166C198.593 361.573 198.76 360.84 198.76 359.968L198.76 348.417L198.996 345.105ZM188.629 352.801L188.629 352.509C188.629 351.358 188.764 350.314 189.033 349.377C189.311 348.431 189.705 347.619 190.215 346.942C190.735 346.265 191.361 345.745 192.094 345.384C192.827 345.012 193.653 344.827 194.571 344.827C195.517 344.827 196.343 344.994 197.048 345.328C197.763 345.653 198.366 346.13 198.857 346.761C199.358 347.383 199.753 348.134 200.04 349.016C200.328 349.897 200.527 350.894 200.639 352.008L200.639 353.288C200.536 354.392 200.337 355.385 200.04 356.266C199.753 357.147 199.358 357.899 198.857 358.52C198.366 359.142 197.763 359.62 197.048 359.954C196.334 360.278 195.499 360.441 194.543 360.441C193.643 360.441 192.827 360.25 192.094 359.87C191.37 359.49 190.749 358.956 190.229 358.27C189.71 357.583 189.311 356.776 189.033 355.848C188.764 354.911 188.629 353.896 188.629 352.801ZM191.203 352.509L191.203 352.801C191.203 353.552 191.278 354.257 191.426 354.916C191.584 355.575 191.82 356.155 192.136 356.656C192.461 357.156 192.873 357.551 193.374 357.838C193.875 358.117 194.474 358.256 195.17 358.256C196.023 358.256 196.728 358.075 197.285 357.713C197.841 357.351 198.282 356.874 198.607 356.28C198.941 355.686 199.201 355.041 199.386 354.345L199.386 350.992C199.284 350.481 199.126 349.99 198.913 349.517C198.709 349.034 198.44 348.607 198.106 348.236C197.781 347.856 197.378 347.554 196.895 347.332C196.413 347.109 195.847 346.998 195.197 346.998C194.492 346.998 193.885 347.146 193.374 347.443C192.873 347.731 192.461 348.13 192.136 348.64C191.82 349.141 191.584 349.725 191.426 350.393C191.278 351.052 191.203 351.757 191.203 352.509ZM211.493 360.441C210.445 360.441 209.494 360.264 208.64 359.912C207.796 359.55 207.068 359.044 206.455 358.395C205.852 357.746 205.389 356.976 205.064 356.085C204.739 355.194 204.577 354.22 204.577 353.163L204.577 352.578C204.577 351.354 204.758 350.263 205.119 349.308C205.481 348.343 205.973 347.527 206.595 346.859C207.216 346.191 207.921 345.685 208.71 345.342C209.498 344.999 210.315 344.827 211.159 344.827C212.235 344.827 213.163 345.012 213.942 345.384C214.731 345.755 215.376 346.274 215.877 346.942C216.378 347.601 216.749 348.38 216.99 349.28C217.231 350.171 217.352 351.145 217.352 352.202L217.352 353.357L206.108 353.357L206.108 351.256L214.777 351.256L214.777 351.061C214.74 350.393 214.601 349.744 214.36 349.113C214.128 348.482 213.757 347.963 213.246 347.554C212.736 347.146 212.04 346.942 211.159 346.942C210.575 346.942 210.036 347.067 209.545 347.318C209.053 347.559 208.631 347.921 208.278 348.403C207.926 348.886 207.652 349.475 207.457 350.171C207.263 350.866 207.165 351.669 207.165 352.578L207.165 353.163C207.165 353.877 207.263 354.55 207.457 355.18C207.661 355.802 207.954 356.349 208.334 356.823C208.724 357.296 209.192 357.667 209.74 357.936C210.296 358.205 210.927 358.339 211.632 358.339C212.541 358.339 213.311 358.154 213.942 357.783C214.573 357.412 215.125 356.915 215.598 356.294L217.157 357.532C216.832 358.024 216.419 358.492 215.918 358.938C215.417 359.383 214.8 359.745 214.067 360.023C213.344 360.302 212.486 360.441 211.493 360.441ZM231.657 358.604L235.846 345.105L238.601 345.105L232.562 362.486C232.423 362.857 232.237 363.256 232.005 363.683C231.783 364.119 231.495 364.532 231.142 364.922C230.79 365.311 230.363 365.627 229.862 365.868C229.37 366.118 228.781 366.244 228.095 366.244C227.891 366.244 227.631 366.216 227.316 366.16C227 366.104 226.777 366.058 226.648 366.021L226.634 363.934C226.708 363.943 226.824 363.952 226.982 363.961C227.149 363.98 227.265 363.989 227.329 363.989C227.914 363.989 228.41 363.91 228.818 363.753C229.227 363.604 229.57 363.349 229.848 362.987C230.136 362.635 230.382 362.148 230.586 361.526L231.657 358.604ZM228.582 345.105L232.492 356.795L233.16 359.508L231.309 360.455L225.771 345.105L228.582 345.105ZM240.021 352.801L240.021 352.481C240.021 351.395 240.179 350.389 240.494 349.461C240.809 348.524 241.264 347.712 241.858 347.026C242.452 346.33 243.171 345.792 244.015 345.411C244.859 345.022 245.805 344.827 246.854 344.827C247.911 344.827 248.862 345.022 249.706 345.411C250.56 345.792 251.284 346.33 251.877 347.026C252.48 347.712 252.94 348.524 253.255 349.461C253.57 350.389 253.728 351.395 253.728 352.481L253.728 352.801C253.728 353.886 253.57 354.893 253.255 355.821C252.94 356.748 252.48 357.56 251.877 358.256C251.284 358.942 250.565 359.48 249.72 359.87C248.885 360.25 247.939 360.441 246.881 360.441C245.824 360.441 244.873 360.25 244.029 359.87C243.184 359.48 242.461 358.942 241.858 358.256C241.264 357.56 240.809 356.748 240.494 355.821C240.179 354.893 240.021 353.886 240.021 352.801ZM242.595 352.481L242.595 352.801C242.595 353.552 242.683 354.262 242.86 354.93C243.036 355.589 243.3 356.173 243.653 356.683C244.015 357.194 244.465 357.597 245.003 357.894C245.541 358.182 246.167 358.325 246.881 358.325C247.587 358.325 248.203 358.182 248.732 357.894C249.27 357.597 249.716 357.194 250.068 356.683C250.421 356.173 250.685 355.589 250.861 354.93C251.047 354.262 251.14 353.552 251.14 352.801L251.14 352.481C251.14 351.739 251.047 351.038 250.861 350.379C250.685 349.711 250.416 349.122 250.054 348.612C249.702 348.093 249.256 347.684 248.718 347.387C248.19 347.091 247.568 346.942 246.854 346.942C246.149 346.942 245.527 347.091 244.989 347.387C244.46 347.684 244.015 348.093 243.653 348.612C243.3 349.122 243.036 349.711 242.86 350.379C242.683 351.038 242.595 351.739 242.595 352.481ZM266.169 356.683L266.169 345.105L268.757 345.105L268.757 360.162L266.294 360.162L266.169 356.683ZM266.656 353.511L267.728 353.483C267.728 354.485 267.621 355.412 267.408 356.266C267.203 357.11 266.869 357.843 266.406 358.465C265.942 359.086 265.334 359.573 264.583 359.926C263.831 360.269 262.917 360.441 261.841 360.441C261.108 360.441 260.436 360.334 259.823 360.121C259.22 359.907 258.701 359.578 258.265 359.133C257.829 358.687 257.49 358.107 257.249 357.393C257.017 356.679 256.901 355.821 256.901 354.819L256.901 345.105L259.475 345.105L259.475 354.846C259.475 355.524 259.55 356.085 259.698 356.53C259.856 356.966 260.065 357.314 260.324 357.574C260.593 357.824 260.89 358.001 261.215 358.103C261.549 358.205 261.892 358.256 262.245 358.256C263.339 358.256 264.207 358.047 264.847 357.63C265.487 357.203 265.946 356.632 266.225 355.918C266.512 355.194 266.656 354.392 266.656 353.511ZM275.256 347.471L275.256 360.162L272.682 360.162L272.682 345.105L275.187 345.105L275.256 347.471ZM279.96 345.022L279.946 347.415C279.733 347.369 279.528 347.341 279.334 347.332C279.148 347.313 278.935 347.304 278.693 347.304C278.1 347.304 277.576 347.397 277.121 347.582C276.666 347.768 276.281 348.028 275.966 348.362C275.65 348.696 275.4 349.094 275.214 349.558C275.038 350.013 274.922 350.514 274.867 351.061L274.143 351.479C274.143 350.57 274.231 349.716 274.407 348.918C274.593 348.12 274.876 347.415 275.256 346.803C275.637 346.181 276.119 345.699 276.703 345.356C277.297 345.003 278.002 344.827 278.819 344.827C279.004 344.827 279.218 344.85 279.459 344.896C279.7 344.934 279.867 344.975 279.96 345.022ZM288.727 352.801L288.727 352.481C288.727 351.395 288.885 350.389 289.2 349.461C289.515 348.524 289.97 347.712 290.564 347.026C291.158 346.33 291.877 345.792 292.721 345.411C293.565 345.022 294.511 344.827 295.56 344.827C296.617 344.827 297.568 345.022 298.412 345.411C299.266 345.792 299.99 346.33 300.583 347.026C301.186 347.712 301.646 348.524 301.961 349.461C302.276 350.389 302.434 351.395 302.434 352.481L302.434 352.801C302.434 353.886 302.276 354.893 301.961 355.821C301.646 356.748 301.186 357.56 300.583 358.256C299.99 358.942 299.271 359.48 298.426 359.87C297.591 360.25 296.645 360.441 295.587 360.441C294.53 360.441 293.579 360.25 292.735 359.87C291.89 359.48 291.167 358.942 290.564 358.256C289.97 357.56 289.515 356.748 289.2 355.821C288.885 354.893 288.727 353.886 288.727 352.801ZM291.301 352.481L291.301 352.801C291.301 353.552 291.389 354.262 291.566 354.93C291.742 355.589 292.006 356.173 292.359 356.683C292.721 357.194 293.171 357.597 293.709 357.894C294.247 358.182 294.873 358.325 295.587 358.325C296.293 358.325 296.91 358.182 297.438 357.894C297.976 357.597 298.422 357.194 298.774 356.683C299.127 356.173 299.391 355.589 299.567 354.93C299.753 354.262 299.846 353.552 299.846 352.801L299.846 352.481C299.846 351.739 299.753 351.038 299.567 350.379C299.391 349.711 299.122 349.122 298.76 348.612C298.408 348.093 297.962 347.684 297.424 347.387C296.896 347.091 296.274 346.942 295.56 346.942C294.855 346.942 294.233 347.091 293.695 347.387C293.166 347.684 292.721 348.093 292.359 348.612C292.006 349.122 291.742 349.711 291.566 350.379C291.389 351.038 291.301 351.739 291.301 352.481ZM308.46 338.787L308.46 360.162L305.871 360.162L305.871 338.787L308.46 338.787ZM322.084 357.24L322.084 338.787L324.672 338.787L324.672 360.162L322.306 360.162L322.084 357.24ZM311.953 352.801L311.953 352.509C311.953 351.358 312.092 350.314 312.37 349.377C312.658 348.431 313.061 347.619 313.581 346.942C314.11 346.265 314.736 345.745 315.46 345.384C316.192 345.012 317.009 344.827 317.909 344.827C318.855 344.827 319.681 344.994 320.386 345.328C321.1 345.653 321.703 346.13 322.195 346.761C322.696 347.383 323.09 348.134 323.378 349.016C323.665 349.897 323.865 350.894 323.976 352.008L323.976 353.288C323.874 354.392 323.675 355.385 323.378 356.266C323.09 357.147 322.696 357.899 322.195 358.52C321.703 359.142 321.1 359.62 320.386 359.954C319.671 360.278 318.837 360.441 317.881 360.441C317 360.441 316.192 360.25 315.46 359.87C314.736 359.49 314.11 358.956 313.581 358.27C313.061 357.583 312.658 356.776 312.37 355.848C312.092 354.911 311.953 353.896 311.953 352.801ZM314.541 352.509L314.541 352.801C314.541 353.552 314.615 354.257 314.764 354.916C314.921 355.575 315.163 356.155 315.487 356.656C315.812 357.156 316.225 357.551 316.726 357.838C317.227 358.117 317.825 358.256 318.521 358.256C319.375 358.256 320.075 358.075 320.622 357.713C321.179 357.351 321.624 356.874 321.958 356.28C322.292 355.686 322.552 355.041 322.738 354.345L322.738 350.992C322.626 350.481 322.464 349.99 322.251 349.517C322.046 349.034 321.777 348.607 321.443 348.236C321.119 347.856 320.715 347.554 320.233 347.332C319.76 347.109 319.198 346.998 318.549 346.998C317.844 346.998 317.236 347.146 316.726 347.443C316.225 347.731 315.812 348.13 315.487 348.64C315.163 349.141 314.921 349.725 314.764 350.393C314.615 351.052 314.541 351.757 314.541 352.509ZM339.186 360.162L336.612 360.162L336.612 343.797C336.612 342.656 336.835 341.691 337.28 340.903C337.725 340.114 338.361 339.516 339.186 339.107C340.012 338.699 340.991 338.495 342.123 338.495C342.791 338.495 343.445 338.579 344.085 338.746C344.725 338.903 345.384 339.103 346.061 339.344L345.629 341.515C345.203 341.348 344.706 341.19 344.14 341.042C343.584 340.884 342.972 340.805 342.304 340.805C341.2 340.805 340.402 341.056 339.91 341.557C339.428 342.048 339.186 342.795 339.186 343.797L339.186 360.162ZM342.262 345.105L342.262 347.081L334.232 347.081L334.232 345.105L342.262 345.105ZM347.327 345.105L347.327 360.162L344.753 360.162L344.753 345.105L347.327 345.105ZM360.436 357.588L360.436 349.837C360.436 349.243 360.316 348.728 360.074 348.292C359.842 347.847 359.49 347.503 359.017 347.262C358.544 347.021 357.959 346.9 357.263 346.9C356.614 346.9 356.043 347.012 355.552 347.234C355.069 347.457 354.689 347.749 354.41 348.111C354.141 348.473 354.007 348.863 354.007 349.28L351.432 349.28C351.432 348.742 351.572 348.208 351.85 347.68C352.128 347.151 352.527 346.673 353.047 346.246C353.576 345.81 354.206 345.467 354.939 345.217C355.681 344.957 356.507 344.827 357.416 344.827C358.511 344.827 359.476 345.012 360.311 345.384C361.155 345.755 361.814 346.316 362.287 347.067C362.769 347.81 363.011 348.742 363.011 349.865L363.011 356.878C363.011 357.379 363.052 357.913 363.136 358.479C363.229 359.044 363.363 359.531 363.539 359.94L363.539 360.162L360.854 360.162C360.724 359.865 360.622 359.471 360.547 358.979C360.473 358.479 360.436 358.015 360.436 357.588ZM360.881 351.033L360.909 352.843L358.307 352.843C357.574 352.843 356.92 352.903 356.345 353.023C355.77 353.135 355.287 353.306 354.898 353.538C354.508 353.77 354.211 354.063 354.007 354.415C353.803 354.758 353.701 355.162 353.701 355.626C353.701 356.099 353.807 356.53 354.021 356.92C354.234 357.31 354.554 357.62 354.981 357.852C355.417 358.075 355.951 358.186 356.581 358.186C357.37 358.186 358.066 358.019 358.669 357.685C359.272 357.351 359.75 356.943 360.102 356.461C360.464 355.978 360.659 355.51 360.687 355.055L361.786 356.294C361.721 356.683 361.545 357.115 361.257 357.588C360.97 358.061 360.585 358.516 360.102 358.952C359.629 359.378 359.063 359.736 358.404 360.023C357.755 360.302 357.022 360.441 356.206 360.441C355.185 360.441 354.29 360.241 353.52 359.842C352.759 359.443 352.165 358.91 351.739 358.242C351.321 357.565 351.112 356.809 351.112 355.974C351.112 355.167 351.27 354.457 351.586 353.844C351.901 353.223 352.356 352.708 352.949 352.3C353.543 351.882 354.257 351.567 355.092 351.354C355.927 351.14 356.86 351.033 357.889 351.033L360.881 351.033ZM373.364 345.105L373.364 347.081L365.223 347.081L365.223 345.105L373.364 345.105ZM367.979 341.445L370.553 341.445L370.553 356.433C370.553 356.943 370.632 357.328 370.79 357.588C370.947 357.848 371.151 358.019 371.402 358.103C371.652 358.186 371.921 358.228 372.209 358.228C372.422 358.228 372.645 358.209 372.877 358.172C373.118 358.126 373.299 358.089 373.42 358.061L373.434 360.162C373.23 360.227 372.961 360.288 372.627 360.343C372.302 360.408 371.908 360.441 371.444 360.441C370.813 360.441 370.233 360.315 369.704 360.065C369.175 359.814 368.753 359.397 368.438 358.813C368.132 358.219 367.979 357.421 367.979 356.419L367.979 341.445ZM389.479 358.325C390.091 358.325 390.657 358.2 391.177 357.95C391.696 357.699 392.123 357.356 392.457 356.92C392.791 356.475 392.981 355.969 393.027 355.403L395.477 355.403C395.43 356.294 395.129 357.124 394.572 357.894C394.025 358.655 393.306 359.272 392.415 359.745C391.525 360.209 390.546 360.441 389.479 360.441C388.347 360.441 387.359 360.241 386.515 359.842C385.68 359.443 384.984 358.896 384.427 358.2C383.88 357.504 383.467 356.707 383.189 355.807C382.92 354.897 382.785 353.937 382.785 352.926L382.785 352.342C382.785 351.33 382.92 350.375 383.189 349.475C383.467 348.566 383.88 347.763 384.427 347.067C384.984 346.372 385.68 345.824 386.515 345.425C387.359 345.026 388.347 344.827 389.479 344.827C390.657 344.827 391.687 345.068 392.568 345.551C393.45 346.024 394.141 346.673 394.642 347.499C395.152 348.315 395.43 349.243 395.477 350.282L393.027 350.282C392.981 349.66 392.805 349.099 392.499 348.598C392.202 348.097 391.794 347.698 391.274 347.401C390.764 347.095 390.165 346.942 389.479 346.942C388.69 346.942 388.027 347.1 387.489 347.415C386.96 347.721 386.538 348.139 386.223 348.668C385.916 349.187 385.694 349.767 385.555 350.407C385.425 351.038 385.36 351.683 385.36 352.342L385.36 352.926C385.36 353.585 385.425 354.234 385.555 354.874C385.684 355.514 385.902 356.094 386.209 356.614C386.524 357.133 386.946 357.551 387.475 357.866C388.013 358.172 388.681 358.325 389.479 358.325ZM397.689 352.801L397.689 352.481C397.689 351.395 397.847 350.389 398.162 349.461C398.478 348.524 398.932 347.712 399.526 347.026C400.12 346.33 400.839 345.792 401.683 345.411C402.527 345.022 403.474 344.827 404.522 344.827C405.58 344.827 406.531 345.022 407.375 345.411C408.228 345.792 408.952 346.33 409.546 347.026C410.149 347.712 410.608 348.524 410.923 349.461C411.239 350.389 411.397 351.395 411.397 352.481L411.397 352.801C411.397 353.886 411.239 354.893 410.923 355.821C410.608 356.748 410.149 357.56 409.546 358.256C408.952 358.942 408.233 359.48 407.389 359.87C406.554 360.25 405.608 360.441 404.55 360.441C403.492 360.441 402.541 360.25 401.697 359.87C400.853 359.48 400.129 358.942 399.526 358.256C398.932 357.56 398.478 356.748 398.162 355.821C397.847 354.893 397.689 353.886 397.689 352.801ZM400.264 352.481L400.264 352.801C400.264 353.552 400.352 354.262 400.528 354.93C400.704 355.589 400.969 356.173 401.321 356.683C401.683 357.194 402.133 357.597 402.671 357.894C403.209 358.182 403.836 358.325 404.55 358.325C405.255 358.325 405.872 358.182 406.401 357.894C406.939 357.597 407.384 357.194 407.737 356.683C408.089 356.173 408.354 355.589 408.53 354.93C408.715 354.262 408.808 353.552 408.808 352.801L408.808 352.481C408.808 351.739 408.715 351.038 408.53 350.379C408.354 349.711 408.085 349.122 407.723 348.612C407.37 348.093 406.925 347.684 406.387 347.387C405.858 347.091 405.236 346.942 404.522 346.942C403.817 346.942 403.195 347.091 402.657 347.387C402.129 347.684 401.683 348.093 401.321 348.612C400.969 349.122 400.704 349.711 400.528 350.379C400.352 351.038 400.264 351.739 400.264 352.481ZM417.422 345.105L417.422 360.162L414.834 360.162L414.834 345.105L417.422 345.105ZM414.639 341.111C414.639 340.694 414.764 340.341 415.015 340.054C415.275 339.766 415.655 339.622 416.156 339.622C416.648 339.622 417.023 339.766 417.283 340.054C417.552 340.341 417.687 340.694 417.687 341.111C417.687 341.51 417.552 341.854 417.283 342.141C417.023 342.419 416.648 342.559 416.156 342.559C415.655 342.559 415.275 342.419 415.015 342.141C414.764 341.854 414.639 341.51 414.639 341.111ZM424.13 348.32L424.13 360.162L421.555 360.162L421.555 345.105L423.991 345.105L424.13 348.32ZM423.517 352.063L422.446 352.021C422.455 350.992 422.608 350.041 422.905 349.169C423.202 348.287 423.619 347.522 424.158 346.873C424.696 346.223 425.336 345.722 426.078 345.37C426.829 345.008 427.66 344.827 428.569 344.827C429.311 344.827 429.979 344.929 430.573 345.133C431.167 345.328 431.672 345.643 432.09 346.079C432.516 346.515 432.841 347.081 433.064 347.777C433.286 348.464 433.398 349.303 433.398 350.296L433.398 360.162L430.809 360.162L430.809 350.268C430.809 349.479 430.693 348.849 430.462 348.375C430.23 347.893 429.891 347.545 429.446 347.332C429 347.109 428.453 346.998 427.804 346.998C427.163 346.998 426.579 347.132 426.05 347.401C425.531 347.67 425.081 348.042 424.7 348.515C424.329 348.988 424.037 349.531 423.824 350.143C423.619 350.746 423.517 351.386 423.517 352.063ZM446.075 356.168C446.075 355.797 445.992 355.454 445.825 355.139C445.667 354.814 445.338 354.522 444.837 354.262C444.345 353.993 443.603 353.761 442.61 353.566C441.775 353.39 441.019 353.181 440.342 352.94C439.674 352.699 439.103 352.406 438.63 352.063C438.166 351.72 437.809 351.316 437.559 350.853C437.308 350.389 437.183 349.846 437.183 349.224C437.183 348.631 437.313 348.069 437.573 347.541C437.842 347.012 438.217 346.543 438.7 346.135C439.191 345.727 439.781 345.407 440.467 345.175C441.154 344.943 441.919 344.827 442.763 344.827C443.969 344.827 444.999 345.04 445.853 345.467C446.706 345.894 447.36 346.464 447.815 347.179C448.269 347.884 448.497 348.668 448.497 349.531L445.922 349.531C445.922 349.113 445.797 348.709 445.546 348.32C445.305 347.921 444.948 347.592 444.475 347.332C444.011 347.072 443.441 346.942 442.763 346.942C442.049 346.942 441.469 347.053 441.024 347.276C440.588 347.49 440.268 347.763 440.064 348.097C439.869 348.431 439.771 348.784 439.771 349.155C439.771 349.433 439.818 349.684 439.91 349.906C440.013 350.12 440.189 350.319 440.439 350.505C440.69 350.681 441.042 350.848 441.497 351.006C441.952 351.163 442.531 351.321 443.236 351.479C444.47 351.757 445.486 352.091 446.284 352.481C447.082 352.87 447.676 353.348 448.065 353.914C448.455 354.48 448.65 355.167 448.65 355.974C448.65 356.632 448.511 357.235 448.232 357.783C447.963 358.33 447.569 358.803 447.049 359.202C446.539 359.592 445.927 359.898 445.212 360.121C444.507 360.334 443.714 360.441 442.833 360.441C441.506 360.441 440.384 360.204 439.465 359.731C438.547 359.258 437.851 358.646 437.378 357.894C436.905 357.143 436.668 356.349 436.668 355.514L439.256 355.514C439.294 356.219 439.498 356.781 439.869 357.198C440.24 357.606 440.694 357.899 441.233 358.075C441.771 358.242 442.304 358.325 442.833 358.325C443.538 358.325 444.127 358.233 444.6 358.047C445.083 357.862 445.449 357.606 445.7 357.282C445.95 356.957 446.075 356.586 446.075 356.168ZM462.941 360.162L460.367 360.162L460.367 343.519C460.367 342.433 460.562 341.52 460.952 340.777C461.35 340.026 461.921 339.46 462.663 339.08C463.405 338.69 464.287 338.495 465.307 338.495C465.604 338.495 465.901 338.514 466.198 338.551C466.504 338.588 466.801 338.644 467.088 338.718L466.949 340.819C466.754 340.773 466.532 340.74 466.281 340.722C466.04 340.703 465.799 340.694 465.558 340.694C465.01 340.694 464.537 340.805 464.138 341.028C463.749 341.241 463.452 341.557 463.248 341.974C463.044 342.392 462.941 342.906 462.941 343.519L462.941 360.162ZM466.142 345.105L466.142 347.081L457.987 347.081L457.987 345.105L466.142 345.105ZM468.327 352.801L468.327 352.481C468.327 351.395 468.485 350.389 468.8 349.461C469.116 348.524 469.57 347.712 470.164 347.026C470.758 346.33 471.477 345.792 472.321 345.411C473.165 345.022 474.111 344.827 475.16 344.827C476.217 344.827 477.168 345.022 478.013 345.411C478.866 345.792 479.59 346.33 480.183 347.026C480.786 347.712 481.246 348.524 481.561 349.461C481.877 350.389 482.034 351.395 482.034 352.481L482.034 352.801C482.034 353.886 481.877 354.893 481.561 355.821C481.246 356.748 480.786 357.56 480.183 358.256C479.59 358.942 478.871 359.48 478.026 359.87C477.191 360.25 476.245 360.441 475.188 360.441C474.13 360.441 473.179 360.25 472.335 359.87C471.491 359.48 470.767 358.942 470.164 358.256C469.57 357.56 469.116 356.748 468.8 355.821C468.485 354.893 468.327 353.886 468.327 352.801ZM470.901 352.481L470.901 352.801C470.901 353.552 470.99 354.262 471.166 354.93C471.342 355.589 471.607 356.173 471.959 356.683C472.321 357.194 472.771 357.597 473.309 357.894C473.847 358.182 474.473 358.325 475.188 358.325C475.893 358.325 476.51 358.182 477.038 357.894C477.576 357.597 478.022 357.194 478.374 356.683C478.727 356.173 478.991 355.589 479.168 354.93C479.353 354.262 479.446 353.552 479.446 352.801L479.446 352.481C479.446 351.739 479.353 351.038 479.168 350.379C478.991 349.711 478.722 349.122 478.36 348.612C478.008 348.093 477.563 347.684 477.024 347.387C476.496 347.091 475.874 346.942 475.16 346.942C474.455 346.942 473.833 347.091 473.295 347.387C472.766 347.684 472.321 348.093 471.959 348.612C471.607 349.122 471.342 349.711 471.166 350.379C470.99 351.038 470.901 351.739 470.901 352.481ZM487.837 347.471L487.837 360.162L485.263 360.162L485.263 345.105L487.768 345.105L487.837 347.471ZM492.541 345.022L492.527 347.415C492.314 347.369 492.109 347.341 491.915 347.332C491.729 347.313 491.516 347.304 491.274 347.304C490.681 347.304 490.157 347.397 489.702 347.582C489.247 347.768 488.862 348.028 488.547 348.362C488.232 348.696 487.981 349.094 487.795 349.558C487.619 350.013 487.503 350.514 487.448 351.061L486.724 351.479C486.724 350.57 486.812 349.716 486.988 348.918C487.174 348.12 487.457 347.415 487.837 346.803C488.218 346.181 488.7 345.699 489.284 345.356C489.878 345.003 490.583 344.827 491.4 344.827C491.585 344.827 491.799 344.85 492.04 344.896C492.281 344.934 492.448 344.975 492.541 345.022ZM510.757 356.168C510.757 355.797 510.673 355.454 510.506 355.139C510.349 354.814 510.019 354.522 509.518 354.262C509.027 353.993 508.284 353.761 507.292 353.566C506.457 353.39 505.701 353.181 505.023 352.94C504.356 352.699 503.785 352.406 503.312 352.063C502.848 351.72 502.491 351.316 502.24 350.853C501.99 350.389 501.865 349.846 501.865 349.224C501.865 348.631 501.994 348.069 502.254 347.541C502.523 347.012 502.899 346.543 503.381 346.135C503.873 345.727 504.462 345.407 505.149 345.175C505.835 344.943 506.601 344.827 507.445 344.827C508.651 344.827 509.681 345.04 510.534 345.467C511.388 345.894 512.042 346.464 512.496 347.179C512.951 347.884 513.178 348.668 513.178 349.531L510.604 349.531C510.604 349.113 510.479 348.709 510.228 348.32C509.987 347.921 509.63 347.592 509.157 347.332C508.693 347.072 508.122 346.942 507.445 346.942C506.731 346.942 506.151 347.053 505.705 347.276C505.269 347.49 504.949 347.763 504.745 348.097C504.55 348.431 504.453 348.784 504.453 349.155C504.453 349.433 504.499 349.684 504.592 349.906C504.694 350.12 504.87 350.319 505.121 350.505C505.371 350.681 505.724 350.848 506.179 351.006C506.633 351.163 507.213 351.321 507.918 351.479C509.152 351.757 510.168 352.091 510.966 352.481C511.763 352.87 512.357 353.348 512.747 353.914C513.137 354.48 513.331 355.167 513.331 355.974C513.331 356.632 513.192 357.235 512.914 357.783C512.645 358.33 512.251 358.803 511.731 359.202C511.221 359.592 510.608 359.898 509.894 360.121C509.189 360.334 508.396 360.441 507.514 360.441C506.188 360.441 505.065 360.204 504.147 359.731C503.228 359.258 502.533 358.646 502.059 357.894C501.586 357.143 501.35 356.349 501.35 355.514L503.938 355.514C503.975 356.219 504.179 356.781 504.55 357.198C504.921 357.606 505.376 357.899 505.914 358.075C506.452 358.242 506.986 358.325 507.514 358.325C508.22 358.325 508.809 358.233 509.282 358.047C509.764 357.862 510.131 357.606 510.381 357.282C510.632 356.957 510.757 356.586 510.757 356.168ZM519.287 338.787L519.287 360.162L516.713 360.162L516.713 338.787L519.287 338.787ZM518.675 352.063L517.604 352.021C517.613 350.992 517.766 350.041 518.063 349.169C518.36 348.287 518.777 347.522 519.315 346.873C519.853 346.223 520.493 345.722 521.236 345.37C521.987 345.008 522.817 344.827 523.727 344.827C524.469 344.827 525.137 344.929 525.731 345.133C526.324 345.328 526.83 345.643 527.247 346.079C527.674 346.515 527.999 347.081 528.221 347.777C528.444 348.464 528.555 349.303 528.555 350.296L528.555 360.162L525.967 360.162L525.967 350.268C525.967 349.479 525.851 348.849 525.619 348.375C525.387 347.893 525.049 347.545 524.603 347.332C524.158 347.109 523.611 346.998 522.961 346.998C522.321 346.998 521.737 347.132 521.208 347.401C520.688 347.67 520.238 348.042 519.858 348.515C519.487 348.988 519.195 349.531 518.981 350.143C518.777 350.746 518.675 351.386 518.675 352.063ZM535.207 345.105L535.207 360.162L532.619 360.162L532.619 345.105L535.207 345.105ZM532.424 341.111C532.424 340.694 532.549 340.341 532.8 340.054C533.06 339.766 533.44 339.622 533.941 339.622C534.433 339.622 534.808 339.766 535.068 340.054C535.337 340.341 535.472 340.694 535.472 341.111C535.472 341.51 535.337 341.854 535.068 342.141C534.808 342.419 534.433 342.559 533.941 342.559C533.44 342.559 533.06 342.419 532.8 342.141C532.549 341.854 532.424 341.51 532.424 341.111ZM541.915 348.32L541.915 360.162L539.34 360.162L539.34 345.105L541.776 345.105L541.915 348.32ZM541.303 352.063L540.231 352.021C540.24 350.992 540.393 350.041 540.69 349.169C540.987 348.287 541.405 347.522 541.943 346.873C542.481 346.223 543.121 345.722 543.863 345.37C544.615 345.008 545.445 344.827 546.354 344.827C547.096 344.827 547.764 344.929 548.358 345.133C548.952 345.328 549.457 345.643 549.875 346.079C550.302 346.515 550.626 347.081 550.849 347.777C551.072 348.464 551.183 349.303 551.183 350.296L551.183 360.162L548.595 360.162L548.595 350.268C548.595 349.479 548.479 348.849 548.247 348.375C548.015 347.893 547.676 347.545 547.231 347.332C546.785 347.109 546.238 346.998 545.589 346.998C544.949 346.998 544.364 347.132 543.835 347.401C543.316 347.67 542.866 348.042 542.485 348.515C542.114 348.988 541.822 349.531 541.609 350.143C541.405 350.746 541.303 351.386 541.303 352.063ZM557.668 348.32L557.668 360.162L555.093 360.162L555.093 345.105L557.529 345.105L557.668 348.32ZM557.055 352.063L555.984 352.021C555.993 350.992 556.146 350.041 556.443 349.169C556.74 348.287 557.158 347.522 557.696 346.873C558.234 346.223 558.874 345.722 559.616 345.37C560.367 345.008 561.198 344.827 562.107 344.827C562.849 344.827 563.517 344.929 564.111 345.133C564.705 345.328 565.21 345.643 565.628 346.079C566.055 346.515 566.379 347.081 566.602 347.777C566.825 348.464 566.936 349.303 566.936 350.296L566.936 360.162L564.347 360.162L564.347 350.268C564.347 349.479 564.232 348.849 564 348.375C563.768 347.893 563.429 347.545 562.984 347.332C562.538 347.109 561.991 346.998 561.342 346.998C560.701 346.998 560.117 347.132 559.588 347.401C559.069 347.67 558.619 348.042 558.238 348.515C557.867 348.988 557.575 349.531 557.362 350.143C557.158 350.746 557.055 351.386 557.055 352.063ZM575.077 358.604L579.265 345.105L582.021 345.105L575.981 362.486C575.842 362.857 575.657 363.256 575.425 363.683C575.202 364.119 574.914 364.532 574.562 364.922C574.209 365.311 573.783 365.627 573.282 365.868C572.79 366.118 572.201 366.244 571.514 366.244C571.31 366.244 571.05 366.216 570.735 366.16C570.419 366.104 570.197 366.058 570.067 366.021L570.053 363.934C570.127 363.943 570.243 363.952 570.401 363.961C570.568 363.98 570.684 363.989 570.749 363.989C571.333 363.989 571.83 363.91 572.238 363.753C572.646 363.604 572.989 363.349 573.268 362.987C573.555 362.635 573.801 362.148 574.005 361.526L575.077 358.604ZM572.001 345.105L575.912 356.795L576.58 359.508L574.729 360.455L569.19 345.105L572.001 345.105ZM593.989 348.32L593.989 360.162L591.414 360.162L591.414 345.105L593.849 345.105L593.989 348.32ZM593.376 352.063L592.305 352.021C592.314 350.992 592.467 350.041 592.764 349.169C593.061 348.287 593.478 347.522 594.016 346.873C594.555 346.223 595.195 345.722 595.937 345.37C596.688 345.008 597.519 344.827 598.428 344.827C599.17 344.827 599.838 344.929 600.432 345.133C601.025 345.328 601.531 345.643 601.949 346.079C602.375 346.515 602.7 347.081 602.923 347.777C603.145 348.464 603.257 349.303 603.257 350.296L603.257 360.162L600.668 360.162L600.668 350.268C600.668 349.479 600.552 348.849 600.32 348.375C600.088 347.893 599.75 347.545 599.305 347.332C598.859 347.109 598.312 346.998 597.662 346.998C597.022 346.998 596.438 347.132 595.909 347.401C595.389 347.67 594.94 348.042 594.559 348.515C594.188 348.988 593.896 349.531 593.682 350.143C593.478 350.746 593.376 351.386 593.376 352.063ZM613.415 360.441C612.367 360.441 611.416 360.264 610.563 359.912C609.718 359.55 608.99 359.044 608.378 358.395C607.775 357.746 607.311 356.976 606.986 356.085C606.661 355.194 606.499 354.22 606.499 353.163L606.499 352.578C606.499 351.354 606.68 350.263 607.042 349.308C607.404 348.343 607.895 347.527 608.517 346.859C609.138 346.191 609.844 345.685 610.632 345.342C611.421 344.999 612.237 344.827 613.081 344.827C614.158 344.827 615.085 345.012 615.865 345.384C616.653 345.755 617.298 346.274 617.799 346.942C618.3 347.601 618.671 348.38 618.912 349.28C619.153 350.171 619.274 351.145 619.274 352.202L619.274 353.357L608.03 353.357L608.03 351.256L616.7 351.256L616.7 351.061C616.662 350.393 616.523 349.744 616.282 349.113C616.05 348.482 615.679 347.963 615.169 347.554C614.659 347.146 613.963 346.942 613.081 346.942C612.497 346.942 611.959 347.067 611.467 347.318C610.975 347.559 610.553 347.921 610.201 348.403C609.848 348.886 609.575 349.475 609.38 350.171C609.185 350.866 609.087 351.669 609.087 352.578L609.087 353.163C609.087 353.877 609.185 354.55 609.38 355.18C609.584 355.802 609.876 356.349 610.256 356.823C610.646 357.296 611.115 357.667 611.662 357.936C612.219 358.205 612.849 358.339 613.555 358.339C614.464 358.339 615.234 358.154 615.865 357.783C616.495 357.412 617.047 356.915 617.521 356.294L619.079 357.532C618.754 358.024 618.342 358.492 617.841 358.938C617.34 359.383 616.723 359.745 615.99 360.023C615.266 360.302 614.408 360.441 613.415 360.441ZM626.093 357.49L629.961 345.105L631.659 345.105L631.325 347.568L627.387 360.162L625.731 360.162L626.093 357.49ZM623.491 345.105L626.789 357.63L627.025 360.162L625.286 360.162L620.916 345.105L623.491 345.105ZM635.361 357.532L638.506 345.105L641.066 345.105L636.697 360.162L634.971 360.162L635.361 357.532ZM632.035 345.105L635.82 357.282L636.252 360.162L634.609 360.162L630.56 347.541L630.226 345.105L632.035 345.105ZM656.805 358.325C657.418 358.325 657.984 358.2 658.503 357.95C659.023 357.699 659.45 357.356 659.784 356.92C660.117 356.475 660.308 355.969 660.354 355.403L662.803 355.403C662.757 356.294 662.455 357.124 661.899 357.894C661.351 358.655 660.632 359.272 659.742 359.745C658.851 360.209 657.872 360.441 656.805 360.441C655.674 360.441 654.686 360.241 653.841 359.842C653.006 359.443 652.311 358.896 651.754 358.2C651.207 357.504 650.794 356.707 650.515 355.807C650.246 354.897 650.112 353.937 650.112 352.926L650.112 352.342C650.112 351.33 650.246 350.375 650.515 349.475C650.794 348.566 651.207 347.763 651.754 347.067C652.311 346.372 653.006 345.824 653.841 345.425C654.686 345.026 655.674 344.827 656.805 344.827C657.984 344.827 659.013 345.068 659.895 345.551C660.776 346.024 661.467 346.673 661.968 347.499C662.479 348.315 662.757 349.243 662.803 350.282L660.354 350.282C660.308 349.66 660.131 349.099 659.825 348.598C659.528 348.097 659.12 347.698 658.601 347.401C658.09 347.095 657.492 346.942 656.805 346.942C656.017 346.942 655.354 347.1 654.815 347.415C654.287 347.721 653.865 348.139 653.549 348.668C653.243 349.187 653.02 349.767 652.881 350.407C652.751 351.038 652.686 351.683 652.686 352.342L652.686 352.926C652.686 353.585 652.751 354.234 652.881 354.874C653.011 355.514 653.229 356.094 653.535 356.614C653.851 357.133 654.273 357.551 654.802 357.866C655.34 358.172 656.008 358.325 656.805 358.325ZM668.272 347.471L668.272 360.162L665.698 360.162L665.698 345.105L668.203 345.105L668.272 347.471ZM672.976 345.022L672.962 347.415C672.749 347.369 672.544 347.341 672.35 347.332C672.164 347.313 671.951 347.304 671.71 347.304C671.116 347.304 670.592 347.397 670.137 347.582C669.682 347.768 669.297 348.028 668.982 348.362C668.667 348.696 668.416 349.094 668.231 349.558C668.054 350.013 667.938 350.514 667.883 351.061L667.159 351.479C667.159 350.57 667.247 349.716 667.423 348.918C667.609 348.12 667.892 347.415 668.272 346.803C668.653 346.181 669.135 345.699 669.72 345.356C670.313 345.003 671.018 344.827 671.835 344.827C672.02 344.827 672.234 344.85 672.475 344.896C672.716 344.934 672.883 344.975 672.976 345.022ZM679.836 358.604L684.025 345.105L686.781 345.105L680.741 362.486C680.602 362.857 680.416 363.256 680.184 363.683C679.962 364.119 679.674 364.532 679.322 364.922C678.969 365.311 678.542 365.627 678.041 365.868C677.55 366.118 676.961 366.244 676.274 366.244C676.07 366.244 675.81 366.216 675.495 366.16C675.179 366.104 674.957 366.058 674.827 366.021L674.813 363.934C674.887 363.943 675.003 363.952 675.161 363.961C675.328 363.98 675.444 363.989 675.509 363.989C676.093 363.989 676.589 363.91 676.998 363.753C677.406 363.604 677.749 363.349 678.027 362.987C678.315 362.635 678.561 362.148 678.765 361.526L679.836 358.604ZM676.761 345.105L680.671 356.795L681.339 359.508L679.489 360.455L673.95 345.105L676.761 345.105ZM695.409 345.105L695.409 347.081L687.268 347.081L687.268 345.105L695.409 345.105ZM690.023 341.445L692.597 341.445L692.597 356.433C692.597 356.943 692.676 357.328 692.834 357.588C692.992 357.848 693.196 358.019 693.446 358.103C693.697 358.186 693.966 358.228 694.253 358.228C694.467 358.228 694.69 358.209 694.921 358.172C695.163 358.126 695.344 358.089 695.464 358.061L695.478 360.162C695.274 360.227 695.005 360.288 694.671 360.343C694.346 360.408 693.952 360.441 693.488 360.441C692.857 360.441 692.277 360.315 691.749 360.065C691.22 359.814 690.798 359.397 690.482 358.813C690.176 358.219 690.023 357.421 690.023 356.419L690.023 341.445ZM701.003 348L701.003 365.951L698.414 365.951L698.414 345.105L700.78 345.105L701.003 348ZM711.148 352.509L711.148 352.801C711.148 353.896 711.018 354.911 710.758 355.848C710.498 356.776 710.118 357.583 709.617 358.27C709.125 358.956 708.517 359.49 707.794 359.87C707.07 360.25 706.24 360.441 705.303 360.441C704.347 360.441 703.503 360.283 702.77 359.968C702.037 359.652 701.416 359.193 700.905 358.59C700.395 357.987 699.987 357.263 699.681 356.419C699.384 355.575 699.18 354.624 699.068 353.566L699.068 352.008C699.18 350.894 699.388 349.897 699.695 349.016C700.001 348.134 700.404 347.383 700.905 346.761C701.416 346.13 702.033 345.653 702.756 345.328C703.48 344.994 704.315 344.827 705.261 344.827C706.207 344.827 707.047 345.012 707.78 345.384C708.513 345.745 709.13 346.265 709.631 346.942C710.132 347.619 710.507 348.431 710.758 349.377C711.018 350.314 711.148 351.358 711.148 352.509ZM708.559 352.801L708.559 352.509C708.559 351.757 708.48 351.052 708.323 350.393C708.165 349.725 707.919 349.141 707.585 348.64C707.26 348.13 706.843 347.731 706.333 347.443C705.822 347.146 705.215 346.998 704.51 346.998C703.86 346.998 703.294 347.109 702.812 347.332C702.339 347.554 701.935 347.856 701.601 348.236C701.267 348.607 700.993 349.034 700.78 349.517C700.576 349.99 700.423 350.481 700.321 350.992L700.321 354.596C700.506 355.245 700.766 355.858 701.1 356.433C701.434 356.999 701.879 357.458 702.436 357.811C702.993 358.154 703.693 358.325 704.537 358.325C705.233 358.325 705.832 358.182 706.333 357.894C706.843 357.597 707.26 357.194 707.585 356.683C707.919 356.173 708.165 355.589 708.323 354.93C708.48 354.262 708.559 353.552 708.559 352.801ZM713.75 352.801L713.75 352.481C713.75 351.395 713.908 350.389 714.223 349.461C714.538 348.524 714.993 347.712 715.587 347.026C716.18 346.33 716.899 345.792 717.744 345.411C718.588 345.022 719.534 344.827 720.583 344.827C721.64 344.827 722.591 345.022 723.435 345.411C724.289 345.792 725.013 346.33 725.606 347.026C726.209 347.712 726.669 348.524 726.984 349.461C727.299 350.389 727.457 351.395 727.457 352.481L727.457 352.801C727.457 353.886 727.299 354.893 726.984 355.821C726.669 356.748 726.209 357.56 725.606 358.256C725.013 358.942 724.294 359.48 723.449 359.87C722.614 360.25 721.668 360.441 720.61 360.441C719.553 360.441 718.602 360.25 717.758 359.87C716.913 359.48 716.19 358.942 715.587 358.256C714.993 357.56 714.538 356.748 714.223 355.821C713.908 354.893 713.75 353.886 713.75 352.801ZM716.324 352.481L716.324 352.801C716.324 353.552 716.412 354.262 716.589 354.93C716.765 355.589 717.029 356.173 717.382 356.683C717.744 357.194 718.194 357.597 718.732 357.894C719.27 358.182 719.896 358.325 720.61 358.325C721.315 358.325 721.932 358.182 722.461 357.894C722.999 357.597 723.445 357.194 723.797 356.683C724.15 356.173 724.414 355.589 724.59 354.93C724.776 354.262 724.869 353.552 724.869 352.801L724.869 352.481C724.869 351.739 724.776 351.038 724.59 350.379C724.414 349.711 724.145 349.122 723.783 348.612C723.431 348.093 722.985 347.684 722.447 347.387C721.919 347.091 721.297 346.942 720.583 346.942C719.878 346.942 719.256 347.091 718.718 347.387C718.189 347.684 717.744 348.093 717.382 348.612C717.029 349.122 716.765 349.711 716.589 350.379C716.412 351.038 716.324 351.739 716.324 352.481ZM743.781 358.325C744.393 358.325 744.959 358.2 745.478 357.95C745.998 357.699 746.425 357.356 746.759 356.92C747.093 356.475 747.283 355.969 747.329 355.403L749.778 355.403C749.732 356.294 749.43 357.124 748.874 357.894C748.326 358.655 747.607 359.272 746.717 359.745C745.826 360.209 744.847 360.441 743.781 360.441C742.649 360.441 741.661 360.241 740.816 359.842C739.982 359.443 739.286 358.896 738.729 358.2C738.182 357.504 737.769 356.707 737.491 355.807C737.221 354.897 737.087 353.937 737.087 352.926L737.087 352.342C737.087 351.33 737.221 350.375 737.491 349.475C737.769 348.566 738.182 347.763 738.729 347.067C739.286 346.372 739.982 345.824 740.816 345.425C741.661 345.026 742.649 344.827 743.781 344.827C744.959 344.827 745.989 345.068 746.87 345.551C747.751 346.024 748.442 346.673 748.943 347.499C749.454 348.315 749.732 349.243 749.778 350.282L747.329 350.282C747.283 349.66 747.107 349.099 746.8 348.598C746.503 348.097 746.095 347.698 745.576 347.401C745.065 347.095 744.467 346.942 743.781 346.942C742.992 346.942 742.329 347.1 741.791 347.415C741.262 347.721 740.84 348.139 740.524 348.668C740.218 349.187 739.995 349.767 739.856 350.407C739.726 351.038 739.661 351.683 739.661 352.342L739.661 352.926C739.661 353.585 739.726 354.234 739.856 354.874C739.986 355.514 740.204 356.094 740.51 356.614C740.826 357.133 741.248 357.551 741.777 357.866C742.315 358.172 742.983 358.325 743.781 358.325ZM751.991 352.801L751.991 352.481C751.991 351.395 752.149 350.389 752.464 349.461C752.78 348.524 753.234 347.712 753.828 347.026C754.422 346.33 755.141 345.792 755.985 345.411C756.829 345.022 757.775 344.827 758.824 344.827C759.881 344.827 760.832 345.022 761.677 345.411C762.53 345.792 763.254 346.33 763.847 347.026C764.45 347.712 764.91 348.524 765.225 349.461C765.541 350.389 765.698 351.395 765.698 352.481L765.698 352.801C765.698 353.886 765.541 354.893 765.225 355.821C764.91 356.748 764.45 357.56 763.847 358.256C763.254 358.942 762.535 359.48 761.69 359.87C760.856 360.25 759.909 360.441 758.852 360.441C757.794 360.441 756.843 360.25 755.999 359.87C755.155 359.48 754.431 358.942 753.828 358.256C753.234 357.56 752.78 356.748 752.464 355.821C752.149 354.893 751.991 353.886 751.991 352.801ZM754.565 352.481L754.565 352.801C754.565 353.552 754.654 354.262 754.83 354.93C755.006 355.589 755.271 356.173 755.623 356.683C755.985 357.194 756.435 357.597 756.973 357.894C757.511 358.182 758.137 358.325 758.852 358.325C759.557 358.325 760.174 358.182 760.702 357.894C761.241 357.597 761.686 357.194 762.038 356.683C762.391 356.173 762.655 355.589 762.832 354.93C763.017 354.262 763.11 353.552 763.11 352.801L763.11 352.481C763.11 351.739 763.017 351.038 762.832 350.379C762.655 349.711 762.386 349.122 762.024 348.612C761.672 348.093 761.227 347.684 760.689 347.387C760.16 347.091 759.538 346.942 758.824 346.942C758.119 346.942 757.497 347.091 756.959 347.387C756.43 347.684 755.985 348.093 755.623 348.612C755.271 349.122 755.006 349.711 754.83 350.379C754.654 351.038 754.565 351.739 754.565 352.481ZM771.724 345.105L771.724 360.162L769.136 360.162L769.136 345.105L771.724 345.105ZM768.941 341.111C768.941 340.694 769.066 340.341 769.316 340.054C769.576 339.766 769.957 339.622 770.458 339.622C770.949 339.622 771.325 339.766 771.585 340.054C771.854 340.341 771.988 340.694 771.988 341.111C771.988 341.51 771.854 341.854 771.585 342.141C771.325 342.419 770.949 342.559 770.458 342.559C769.957 342.559 769.576 342.419 769.316 342.141C769.066 341.854 768.941 341.51 768.941 341.111ZM778.431 348.32L778.431 360.162L775.857 360.162L775.857 345.105L778.292 345.105L778.431 348.32ZM777.819 352.063L776.748 352.021C776.757 350.992 776.91 350.041 777.207 349.169C777.504 348.287 777.921 347.522 778.459 346.873C778.997 346.223 779.638 345.722 780.38 345.37C781.131 345.008 781.961 344.827 782.871 344.827C783.613 344.827 784.281 344.929 784.875 345.133C785.468 345.328 785.974 345.643 786.391 346.079C786.818 346.515 787.143 347.081 787.366 347.777C787.588 348.464 787.7 349.303 787.7 350.296L787.7 360.162L785.111 360.162L785.111 350.268C785.111 349.479 784.995 348.849 784.763 348.375C784.531 347.893 784.193 347.545 783.747 347.332C783.302 347.109 782.755 346.998 782.105 346.998C781.465 346.998 780.881 347.132 780.352 347.401C779.832 347.67 779.382 348.042 779.002 348.515C778.631 348.988 778.339 349.531 778.125 350.143C777.921 350.746 777.819 351.386 777.819 352.063ZM800.377 356.168C800.377 355.797 800.294 355.454 800.127 355.139C799.969 354.814 799.639 354.522 799.138 354.262C798.647 353.993 797.905 353.761 796.912 353.566C796.077 353.39 795.321 353.181 794.644 352.94C793.976 352.699 793.405 352.406 792.932 352.063C792.468 351.72 792.111 351.316 791.86 350.853C791.61 350.389 791.485 349.846 791.485 349.224C791.485 348.631 791.615 348.069 791.874 347.541C792.143 347.012 792.519 346.543 793.002 346.135C793.493 345.727 794.082 345.407 794.769 345.175C795.455 344.943 796.221 344.827 797.065 344.827C798.271 344.827 799.301 345.04 800.154 345.467C801.008 345.894 801.662 346.464 802.117 347.179C802.571 347.884 802.798 348.668 802.798 349.531L800.224 349.531C800.224 349.113 800.099 348.709 799.848 348.32C799.607 347.921 799.25 347.592 798.777 347.332C798.313 347.072 797.742 346.942 797.065 346.942C796.351 346.942 795.771 347.053 795.325 347.276C794.889 347.49 794.569 347.763 794.365 348.097C794.17 348.431 794.073 348.784 794.073 349.155C794.073 349.433 794.119 349.684 794.212 349.906C794.314 350.12 794.491 350.319 794.741 350.505C794.992 350.681 795.344 350.848 795.799 351.006C796.253 351.163 796.833 351.321 797.538 351.479C798.772 351.757 799.788 352.091 800.586 352.481C801.384 352.87 801.977 353.348 802.367 353.914C802.757 354.48 802.951 355.167 802.951 355.974C802.951 356.632 802.812 357.235 802.534 357.783C802.265 358.33 801.871 358.803 801.351 359.202C800.841 359.592 800.229 359.898 799.514 360.121C798.809 360.334 798.016 360.441 797.135 360.441C795.808 360.441 794.685 360.204 793.767 359.731C792.848 359.258 792.153 358.646 791.68 357.894C791.206 357.143 790.97 356.349 790.97 355.514L793.558 355.514C793.595 356.219 793.799 356.781 794.17 357.198C794.542 357.606 794.996 357.899 795.534 358.075C796.072 358.242 796.606 358.325 797.135 358.325C797.84 358.325 798.429 358.233 798.902 358.047C799.384 357.862 799.751 357.606 800.001 357.282C800.252 356.957 800.377 356.586 800.377 356.168ZM809.395 339.901L809.214 354.443L806.89 354.443L806.695 339.901L809.395 339.901ZM806.611 358.868C806.611 358.451 806.737 358.098 806.987 357.811C807.247 357.523 807.627 357.379 808.128 357.379C808.62 357.379 808.996 357.523 809.255 357.811C809.524 358.098 809.659 358.451 809.659 358.868C809.659 359.267 809.524 359.61 809.255 359.898C808.996 360.186 808.62 360.329 808.128 360.329C807.627 360.329 807.247 360.186 806.987 359.898C806.737 359.61 806.611 359.267 806.611 358.868Z" fill="#6518FF"/>
</g>
<defs>
<clipPath id="clip0_54_3">
<rect width="413" height="912" fill="white" transform="translate(912) rotate(90)"/>
</clipPath>
<clipPath id="clip1_54_3">
<rect width="604.2" height="769.5" fill="white" transform="translate(840.75 -190.95) rotate(90)"/>
</clipPath>
</defs>
</svg>
