<svg width="239" height="252" viewBox="0 0 239 252" fill="none" xmlns="http://www.w3.org/2000/svg">
<path d="M103.294 237.538L122.434 103.554M224.517 90.794L122.434 103.554M13.9716 14.2319L122.434 103.554M186.236 46.1328L122.434 103.554" stroke="white" stroke-width="12.7603" stroke-linecap="round" stroke-linejoin="round"/>
<path d="M97.3701 239.907C98.2066 241.999 100.084 243.494 102.309 243.842C104.535 244.189 106.778 243.338 108.213 241.601L229.436 94.8574C231.412 92.465 231.381 88.9978 229.361 86.6418L191.08 41.9806C190.131 40.8735 188.832 40.1248 187.398 39.8593L15.1333 7.95843C12.8471 7.53506 10.5116 8.38889 9.0375 10.187C7.56343 11.9851 7.18421 14.4427 8.04772 16.6015L97.3701 239.907Z" stroke="white" stroke-width="12.7603" stroke-linecap="round" stroke-linejoin="round"/>
</svg>
