<svg width="500" height="94" viewBox="0 0 500 94" fill="none" xmlns="http://www.w3.org/2000/svg">
<rect x="0.625" y="0.837402" width="498.75" height="92.625" rx="21.375" fill="#9966FF"/>
<path d="M85.7914 17.4926C85.711 17.501 85.3767 17.5306 85.0509 17.5517C82.1606 17.7711 80.726 18.2732 78.2377 19.9273C76.8624 20.843 76.1176 21.4675 75.9526 21.843C75.7622 22.265 75.3686 22.7882 74.0525 24.3706C71.7801 27.0922 67.5949 32.6115 63.1642 38.7342C59.4741 43.8358 57.519 46.6798 56.5584 48.355C56.0845 49.1862 55.7248 49.7432 55.3058 50.2918C54.9334 50.7813 54.0744 52.064 53.0799 53.6084C51.3745 56.2584 50.6467 57.2668 49.8257 58.115C49.4575 58.4948 49.301 58.6087 49.1486 58.6087C49.0174 58.6087 48.5731 58.1698 48.3234 57.7901C48.023 57.3386 47.8325 56.9504 47.3036 55.7225C46.3599 53.5156 45.2215 51.1231 44.8745 50.604C44.6333 50.2496 44.3033 49.9542 44.0197 49.8529C43.8208 49.7812 43.6854 49.7686 42.966 49.7686C42.3313 49.7686 42.0604 49.7854 41.7811 49.8445C40.7401 50.0682 39.551 50.604 38.438 51.3551C37.2235 52.178 36.4999 53.0177 36.3602 53.7772C36.1825 54.7224 36.648 56.6803 38.4 62.3642C39.4156 65.6597 40.08 67.4108 40.8332 68.7822C41.1802 69.4194 42.0774 70.8414 42.1578 70.8836C42.3355 70.9807 43.2411 71.179 44.1509 71.3309C45.4204 71.5376 46.9269 71.5208 48.3192 71.2887C49.0386 71.1663 49.5633 71.0186 50.0161 70.8077C50.3208 70.6642 50.3885 70.6093 50.6551 70.2929C51.2687 69.5544 52.2886 68.1408 53.6089 66.1829C55.7671 62.9802 56.7658 61.554 57.134 61.1194C57.2567 60.9801 57.4979 60.6172 57.6756 60.3176C57.8534 60.0138 58.1284 59.5497 58.285 59.2838C59.0256 58.0306 61.3869 54.6127 65.077 49.4521C69.8081 42.8357 73.9214 37.308 74.9285 36.2193C75.2078 35.9155 75.5633 35.4345 76.3335 34.3247C77.1925 33.0926 77.6792 32.447 78.2166 31.8562C78.8852 31.1136 79.6808 30.143 81.1069 28.3117C83.0069 25.8728 83.9929 24.6491 84.8774 23.649C85.9269 22.4633 87.6407 19.9948 88.0766 19.0496C88.3517 18.4504 88.394 18.1171 88.2247 17.8639C88.1231 17.7036 87.7677 17.5643 87.3572 17.5137C87.0313 17.4715 86.1469 17.463 85.7914 17.4926Z" fill="white"/>
<path d="M224.731 51.7504L230.973 51.7504C230.847 53.796 230.284 55.6121 229.282 57.1985C228.294 58.7849 226.909 60.0234 225.128 60.9141C223.36 61.8047 221.231 62.25 218.74 62.25C216.792 62.25 215.046 61.916 213.501 61.248C211.956 60.5662 210.634 59.592 209.535 58.3257C208.449 57.0593 207.621 55.5286 207.051 53.7334C206.48 51.9382 206.195 49.9274 206.195 47.7008L206.195 45.5925C206.195 43.366 206.487 41.3551 207.072 39.5599C207.67 37.7509 208.519 36.2131 209.618 34.9468C210.732 33.6804 212.061 32.7063 213.605 32.0244C215.15 31.3425 216.876 31.0016 218.782 31.0016C221.315 31.0016 223.451 31.4608 225.19 32.3793C226.944 33.2977 228.301 34.5641 229.261 36.1783C230.235 37.7926 230.819 39.6295 231.014 41.6891L224.752 41.6891C224.682 40.4645 224.439 39.4277 224.021 38.5789C223.604 37.7161 222.971 37.069 222.122 36.6376C221.287 36.1923 220.174 35.9696 218.782 35.9696C217.738 35.9696 216.827 36.1644 216.048 36.5541C215.268 36.9437 214.614 37.5352 214.085 38.3284C213.557 39.1216 213.16 40.1235 212.896 41.3342C212.645 42.531 212.52 43.9365 212.52 45.5508L212.52 47.7008C212.52 49.2733 212.638 50.658 212.875 51.8547C213.111 53.0376 213.473 54.0396 213.96 54.8606C214.461 55.6677 215.101 56.28 215.881 56.6975C216.674 57.1011 217.627 57.3029 218.74 57.3029C220.048 57.3029 221.127 57.0941 221.976 56.6766C222.825 56.2592 223.472 55.6399 223.917 54.8188C224.376 53.9978 224.648 52.975 224.731 51.7504ZM233.749 50.7693L233.749 50.3309C233.749 48.6749 233.985 47.1511 234.458 45.7595C234.932 44.354 235.62 43.1364 236.525 42.1066C237.43 41.0768 238.543 40.2766 239.865 39.7061C241.187 39.1216 242.704 38.8293 244.415 38.8293C246.127 38.8293 247.651 39.1216 248.987 39.7061C250.323 40.2766 251.443 41.0768 252.348 42.1066C253.266 43.1364 253.962 44.354 254.435 45.7595C254.908 47.1511 255.145 48.6749 255.145 50.3309L255.145 50.7693C255.145 52.4114 254.908 53.9352 254.435 55.3407C253.962 56.7323 253.266 57.95 252.348 58.9937C251.443 60.0234 250.33 60.8236 249.008 61.3942C247.686 61.9647 246.169 62.25 244.457 62.25C242.745 62.25 241.222 61.9647 239.886 61.3942C238.564 60.8236 237.443 60.0234 236.525 58.9937C235.62 57.95 234.932 56.7323 234.458 55.3407C233.985 53.9352 233.749 52.4114 233.749 50.7693ZM239.761 50.3309L239.761 50.7693C239.761 51.7156 239.844 52.5992 240.011 53.4203C240.178 54.2413 240.442 54.965 240.804 55.5912C241.18 56.2035 241.667 56.6836 242.265 57.0315C242.864 57.3794 243.594 57.5533 244.457 57.5533C245.292 57.5533 246.009 57.3794 246.607 57.0315C247.206 56.6836 247.686 56.2035 248.047 55.5912C248.409 54.965 248.674 54.2413 248.841 53.4203C249.022 52.5992 249.112 51.7156 249.112 50.7693L249.112 50.3309C249.112 49.4125 249.022 48.5497 248.841 47.7426C248.674 46.9215 248.402 46.1979 248.027 45.5717C247.665 44.9315 247.185 44.4305 246.586 44.0687C245.988 43.7069 245.264 43.526 244.415 43.526C243.567 43.526 242.843 43.7069 242.245 44.0687C241.66 44.4305 241.18 44.9315 240.804 45.5717C240.442 46.1979 240.178 46.9215 240.011 47.7426C239.844 48.5497 239.761 49.4125 239.761 50.3309ZM264.726 44.0687L264.726 61.8325L258.714 61.8325L258.714 39.2468L264.35 39.2468L264.726 44.0687ZM263.849 49.7465L262.221 49.7465C262.221 48.0765 262.437 46.5736 262.868 45.2377C263.299 43.8878 263.905 42.7397 264.684 41.7935C265.463 40.8333 266.389 40.1027 267.46 39.6017C268.546 39.0868 269.756 38.8293 271.092 38.8293C272.15 38.8293 273.117 38.9824 273.994 39.2886C274.871 39.5947 275.622 40.0818 276.248 40.7498C276.888 41.4177 277.375 42.3014 277.709 43.4008C278.057 44.5001 278.231 45.843 278.231 47.4294L278.231 61.8325L272.178 61.8325L272.178 47.4086C272.178 46.4066 272.039 45.6273 271.76 45.0707C271.482 44.514 271.072 44.1244 270.529 43.9017C270 43.6652 269.346 43.5469 268.567 43.5469C267.76 43.5469 267.057 43.7069 266.458 44.027C265.874 44.347 265.387 44.7924 264.997 45.3629C264.621 45.9196 264.336 46.5736 264.141 47.3251C263.947 48.0765 263.849 48.8837 263.849 49.7465ZM290.317 61.8325L284.285 61.8325L284.285 38.224C284.285 36.3036 284.674 34.6824 285.454 33.3603C286.247 32.0383 287.374 31.0364 288.835 30.3545C290.31 29.6726 292.092 29.3317 294.179 29.3317C295.362 29.3317 296.51 29.4499 297.623 29.6865C298.737 29.9092 299.885 30.2014 301.068 30.5632L300.191 35.3851C299.425 35.1486 298.604 34.9259 297.728 34.7172C296.851 34.5084 295.793 34.4041 294.555 34.4041C293.163 34.4041 292.106 34.7311 291.382 35.3851C290.672 36.0253 290.317 36.9716 290.317 38.224L290.317 61.8325ZM294.805 39.2468L294.805 43.5051L280.924 43.5051L280.924 39.2468L294.805 39.2468ZM303.865 39.2468L303.865 61.8325L297.832 61.8325L297.832 39.2468L303.865 39.2468ZM314.907 44.1731L314.907 61.8325L308.895 61.8325L308.895 39.2468L314.552 39.2468L314.907 44.1731ZM321.712 39.1007L321.608 44.6741C321.315 44.6323 320.96 44.5975 320.543 44.5697C320.139 44.528 319.771 44.5071 319.437 44.5071C318.588 44.5071 317.85 44.6184 317.224 44.8411C316.612 45.0498 316.097 45.3629 315.679 45.7804C315.276 46.1979 314.97 46.7058 314.761 47.3042C314.566 47.9026 314.455 48.5845 314.427 49.3499L313.216 48.9741C313.216 47.5129 313.362 46.17 313.655 44.9454C313.947 43.7069 314.371 42.6284 314.928 41.71C315.498 40.7915 316.194 40.0818 317.015 39.5808C317.836 39.0798 318.776 38.8293 319.833 38.8293C320.167 38.8293 320.508 38.8572 320.856 38.9128C321.204 38.9546 321.489 39.0172 321.712 39.1007ZM330.563 43.9226L330.563 61.8325L324.53 61.8325L324.53 39.2468L330.187 39.2468L330.563 43.9226ZM329.728 49.7465L328.058 49.7465C328.058 48.1739 328.245 46.7267 328.621 45.4047C329.011 44.0687 329.574 42.9137 330.312 41.9396C331.063 40.9515 331.989 40.1862 333.088 39.6434C334.188 39.1007 335.461 38.8293 336.908 38.8293C337.91 38.8293 338.829 38.9824 339.664 39.2886C340.499 39.5808 341.215 40.047 341.814 40.6871C342.426 41.3134 342.899 42.1344 343.233 43.1503C343.567 44.1522 343.734 45.356 343.734 46.7615L343.734 61.8325L337.722 61.8325L337.722 47.4294C337.722 46.3997 337.583 45.6064 337.305 45.0498C337.026 44.4932 336.63 44.1035 336.115 43.8809C335.614 43.6582 335.009 43.5469 334.299 43.5469C333.52 43.5469 332.838 43.7069 332.253 44.027C331.683 44.347 331.21 44.7924 330.834 45.3629C330.458 45.9196 330.18 46.5736 329.999 47.3251C329.818 48.0765 329.728 48.8837 329.728 49.7465ZM343.17 49.0576L341.02 49.329C341.02 47.8539 341.201 46.4832 341.563 45.2168C341.939 43.9504 342.489 42.8372 343.212 41.877C343.95 40.9167 344.861 40.1722 345.947 39.6434C347.032 39.1007 348.285 38.8293 349.704 38.8293C350.789 38.8293 351.777 38.9894 352.668 39.3094C353.559 39.6156 354.317 40.1096 354.943 40.7915C355.584 41.4595 356.071 42.3362 356.405 43.4216C356.752 44.5071 356.926 45.8361 356.926 47.4086L356.926 61.8325L350.894 61.8325L350.894 47.4086C350.894 46.3649 350.755 45.5717 350.476 45.0289C350.212 44.4723 349.822 44.0896 349.307 43.8809C348.806 43.6582 348.208 43.5469 347.512 43.5469C346.789 43.5469 346.155 43.693 345.613 43.9852C345.07 44.2635 344.618 44.6532 344.256 45.1542C343.894 45.6552 343.623 46.2396 343.442 46.9076C343.261 47.5616 343.17 48.2783 343.17 49.0576Z" fill="white"/>
</svg>
