<svg width="308" height="275" viewBox="0 0 308 275" fill="none" xmlns="http://www.w3.org/2000/svg">
<rect x="218" y="6" width="78" height="261" rx="18" fill="#D9D9D9" stroke="#113A63" stroke-width="7"/>
<rect x="242" y="25" width="30" height="224" rx="10" fill="#D9D9D9" stroke="#113A63" stroke-width="7"/>
<path d="M256.5 137C256.5 206.136 206.447 261.5 145.5 261.5C84.553 261.5 34.5 206.136 34.5 137C34.5 67.8635 84.553 12.5 145.5 12.5C206.447 12.5 256.5 67.8635 256.5 137Z" fill="#D9D9D9" stroke="#113A63" stroke-width="7"/>
<path d="M284.5 137C284.5 206.136 234.447 261.5 173.5 261.5C112.553 261.5 62.5 206.136 62.5 137C62.5 67.8635 112.553 12.5 173.5 12.5C234.447 12.5 284.5 67.8635 284.5 137Z" fill="#D9D9D9" stroke="#113A63" stroke-width="7"/>
<path d="M91 29.5H117.5" stroke="#113A63" stroke-width="7"/>
<path d="M66 52H92.5" stroke="#113A63" stroke-width="7"/>
<path d="M46 79H72.5" stroke="#113A63" stroke-width="7"/>
<path d="M40 102H66.5" stroke="#113A63" stroke-width="7"/>
<path d="M37 124H63.5" stroke="#113A63" stroke-width="7"/>
<path d="M37 147H63.5" stroke="#113A63" stroke-width="7"/>
<path d="M40 168H66.5" stroke="#113A63" stroke-width="7"/>
<path d="M48 192H74.5" stroke="#113A63" stroke-width="7"/>
<path d="M61 218H87.5" stroke="#113A63" stroke-width="7"/>
<path d="M86 241H112.5" stroke="#113A63" stroke-width="7"/>
<ellipse cx="177" cy="136.5" rx="88" ry="98.5" stroke="#113A63" stroke-width="7" stroke-linecap="round" stroke-dasharray="14 14"/>
<path d="M156.189 159.665C161.172 165.113 167.147 168.503 174.196 169.793C181.285 170.96 188.056 169.923 194.63 166.519C203.151 162.106 208.528 154.999 210.718 145.116L198.375 142.348C197.233 148.292 194.024 152.629 188.83 155.319C182.418 158.639 175.086 157.599 169.337 152.857L181.673 146.468L181.323 139.034L164.604 147.691C164.229 147.165 163.85 146.435 163.472 145.704C162.716 144.244 162.25 143.146 162.076 142.413L180.905 132.663L180.474 125.27L161.077 135.315C160.939 128.49 164.329 122.515 170.253 119.447C175.285 116.841 180.556 116.684 186.108 119.058L190.89 107.422C181.678 103.547 172.852 103.795 164.412 108.165C158.081 111.444 153.367 116.252 150.307 122.468C147.248 128.684 146.361 135.319 147.604 142.291L142.572 144.897L143.004 152.29L149.497 148.927C149.794 149.7 150.259 150.797 150.974 152.177C151.352 152.907 151.73 153.638 152.105 154.164L146.911 156.853L147.262 164.288L156.189 159.665Z" fill="#113A63"/>
<mask id="mask0_54_92" style="mask-type:alpha" maskUnits="userSpaceOnUse" x="269" y="0" width="39" height="275">
<rect x="269" width="39" height="275" fill="#D9D9D9"/>
</mask>
<g mask="url(#mask0_54_92)">
<rect x="218" y="6" width="78" height="261" rx="18" fill="#D9D9D9" stroke="#113A63" stroke-width="7"/>
<rect x="242" y="25" width="30" height="224" rx="10" fill="#D9D9D9" stroke="#113A63" stroke-width="7"/>
</g>
</svg>
