<svg width="322" height="322" viewBox="0 0 322 322" fill="none" xmlns="http://www.w3.org/2000/svg">
<path d="M176.687 202.584C186.383 198.862 194.47 191.862 199.544 182.8C204.619 173.738 206.361 163.186 204.468 152.974C202.575 142.761 197.167 133.534 189.182 126.893C181.196 120.252 171.138 116.616 160.752 116.616C150.366 116.616 140.307 120.252 132.322 126.893C124.337 133.534 118.928 142.761 117.035 152.974C115.142 163.186 116.884 173.738 121.959 182.8C127.034 191.862 135.121 198.862 144.817 202.584L114.868 280.622C86.9415 269.904 63.649 249.746 49.0322 223.648C34.4155 197.549 29.397 167.157 34.8476 137.745C40.2982 108.333 55.874 81.7575 78.872 62.6298C101.87 43.5022 130.839 33.0298 160.752 33.0298C190.665 33.0298 219.633 43.5022 242.631 62.6298C265.63 81.7575 281.205 108.333 286.656 137.745C292.107 167.157 287.088 197.549 272.471 223.648C257.855 249.746 234.562 269.904 206.636 280.622L176.687 202.584Z" fill="#9966FF" stroke="#6518FF" stroke-width="9.9037" stroke-linejoin="round"/>
</svg>
