<svg width="311" height="324" viewBox="0 0 311 324" fill="none" xmlns="http://www.w3.org/2000/svg">
<path d="M295.35 0.554536C294.87 0.60509 292.878 0.782027 290.936 0.908411C273.709 2.2228 265.158 5.23074 250.327 15.1392C242.13 20.6243 237.69 24.3653 236.707 26.6149C235.572 29.1426 233.226 32.2769 225.382 41.7557C211.837 58.0592 186.892 91.1212 160.484 127.798C138.49 158.357 126.837 175.394 121.111 185.429C118.286 190.408 116.142 193.745 113.645 197.031C111.426 199.963 106.305 207.647 100.378 216.898C90.2132 232.772 85.8749 238.813 80.9817 243.894C78.7874 246.169 77.8541 246.851 76.9461 246.851C76.1642 246.851 73.5158 244.223 72.0277 241.948C70.2369 239.243 69.1018 236.918 65.949 229.562C60.3243 216.342 53.5394 202.01 51.4712 198.901C50.0335 196.778 48.0661 195.009 46.3762 194.402C45.1907 193.972 44.3836 193.897 40.0957 193.897C36.3123 193.897 34.698 193.998 33.0333 194.352C26.8286 195.691 19.741 198.901 13.1074 203.401C5.86848 208.33 1.55539 213.36 0.723045 217.91C-0.336309 223.572 2.43819 235.3 12.8804 269.348C18.9338 289.089 22.8938 299.579 27.3835 307.794C29.4517 311.611 34.7989 320.129 35.2782 320.382C36.3375 320.963 41.7352 322.151 47.1581 323.061C54.7249 324.299 63.7042 324.198 72.0024 322.808C76.2903 322.075 79.4179 321.19 82.1168 319.927C83.9328 319.067 84.3364 318.739 85.9254 316.843C89.5827 312.419 95.6614 303.952 103.531 292.223C116.394 273.038 122.347 264.495 124.541 261.891C125.273 261.057 126.711 258.883 127.77 257.089C128.829 255.269 130.469 252.488 131.402 250.896C135.816 243.389 149.89 222.914 171.884 192.001C200.083 152.367 224.6 119.254 230.603 112.733C232.268 110.913 234.386 108.031 238.977 101.384C244.097 94.0028 246.998 90.1354 250.201 86.5967C254.186 82.148 258.928 76.3343 267.428 65.3642C278.753 50.7542 284.63 43.4239 289.902 37.4334C296.157 30.3306 306.372 15.5437 308.97 9.88167C310.609 6.29236 310.862 4.2955 309.853 2.77889C309.247 1.81838 307.129 0.984241 304.682 0.68092C302.74 0.428152 297.468 0.377599 295.35 0.554536Z" fill="#9966FF"/>
</svg>
